<svg width="800" height="600" xmlns="http://www.w3.org/2000/svg">
 <g>
  <title>Layer 1</title>
  <path d="m194,326c0,-1 -0.61731,-1.07611 -1,-2c-0.5412,-1.30655 -2.4588,-0.69345 -3,-2c-0.38269,-0.92389 -1.29289,-0.29291 -2,-1c-0.70711,-0.70709 -1,-1 -2,-1c-1,0 -2.07613,0.38269 -3,0c-1.30656,-0.5412 -2,-1 -4,-1c-1,0 -3,0 -5,0c-1,0 -2,0 -3,0c-1,0 -2,0 -3,0c-1,0 -3.08025,-0.68927 -6,0c-2.17625,0.51373 -3.82375,1.48627 -6,2c-1.9465,0.4595 -2.69344,0.4588 -4,1c-0.92387,0.38269 -2.07613,-0.38269 -3,0c-1.30656,0.5412 -3,1 -5,2c-2,1 -5,2 -8,3c-3,1 -5,2 -8,3c-3,1 -4.85273,2.1731 -6,3c-1.814,1.30746 -2.29289,1.29291 -3,2c-0.70711,0.70709 -1.69344,1.4588 -3,2c-0.92388,0.38269 -2.186,0.69254 -4,2c-1.14727,0.8269 -2.186,1.69254 -4,3c-1.14727,0.8269 -2.186,1.69254 -4,3c-1.14727,0.8269 -2,2 -3,3c-1,1 -1.85273,2.1731 -3,3c-1.814,1.30746 -3.1731,1.85272 -4,3c-1.30745,1.814 -2.1731,2.85272 -3,4c-1.30745,1.814 -1.69255,3.186 -3,5c-0.8269,1.14728 -2,2 -3,3c-1,1 -1.77025,2.02676 -2,3c-0.51374,2.17624 -2.4588,2.69345 -3,4c-0.38268,0.92389 -1.4588,1.69345 -2,3c-0.38268,0.92389 -0.61732,2.07611 -1,3c-0.5412,1.30655 -1.29289,1.29291 -2,2c-0.70711,0.70709 0.38268,2.07611 0,3c-0.5412,1.30655 -1.4588,1.69345 -2,3c-0.38268,0.92389 -0.48626,1.82376 -1,4c-0.22975,0.97324 -0.48626,1.82376 -1,4c-0.22975,0.97324 -1,2 -1,3c0,1 0,2 0,4c0,1 0,2 0,4c0,1 0,2 0,3c0,2 0,3 0,4c0,1 0,2 0,3c0,1 0,2 0,3c0,1 0,2 0,3c0,1 0,2 0,3c0,1 1,2 1,4c0,1 1,2 1,3c0,1 0.29289,2.29291 1,3c0.70711,0.70709 0.29289,1.29291 1,2c0.70711,0.70709 0.61732,1.07611 1,2c0.5412,1.30655 2.4588,1.69345 3,3c0.38268,0.92389 1.09789,2.82443 3,4c0.85065,0.52573 2.07612,1.61731 3,2c1.30656,0.5412 2.29289,1.29291 3,2c0.70711,0.70709 1.07612,1.61731 2,2c1.30656,0.5412 2,2 3,3c1,1 2,1 3,2c1,1 3.29289,1.29291 4,2c0.70711,0.70709 1.29289,0.29291 2,1c0.70711,0.70709 0.29289,1.29291 1,2c0.70711,0.70709 1.69344,0.4588 3,1c0.92388,0.38269 1.69344,1.4588 3,2c2.77164,1.14804 4.08025,0.31073 7,1c2.17625,0.51373 3.82375,1.48627 6,2c1.9465,0.4595 4,1 5,1c2,0 3,0 4,0c1,0 1,1 2,1c1,0 3,0 4,0c2,0 4,0 6,0c2,0 4,0 6,0c2,0 4,0 6,0c2,0 4.87856,-0.49347 8,-1c1.97418,-0.32037 5.08025,0.68927 8,0c2.17625,-0.51373 4.0535,-0.5405 6,-1c2.17625,-0.51373 3.0535,-0.5405 5,-1c2.17625,-0.51373 3.82375,-1.48627 6,-2c0.97325,-0.22977 3,0 5,-1c2,-1 4,-1 6,-2c2,-1 4.87856,-2.49347 8,-3c2.96126,-0.48056 6.08025,-1.31073 9,-2c2.17625,-0.51373 2.82375,-2.48627 5,-3c0.97325,-0.22977 1,-1 2,-1c1,0 1.29289,-0.29291 2,-1c0.70711,-0.70709 0.07613,-1.61731 1,-2c1.30656,-0.5412 0.69344,-2.4588 2,-3c0.92387,-0.38269 1.07613,-1.61731 2,-2c1.30656,-0.5412 1.69255,-2.186 3,-4c0.8269,-1.14728 2.61731,-2.07611 3,-3c0.5412,-1.30655 2.4588,-1.69345 3,-3c0.38269,-0.92389 0.61731,-2.07611 1,-3c0.5412,-1.30655 1,-2 2,-3c1,-1 1.9176,-1.38687 3,-4c0.76537,-1.84775 1.48625,-2.82376 2,-5c0.22975,-0.97324 1,-3 1,-4c0,-1 1,-2 1,-4c0,-1 1.48625,-1.82376 2,-4c0.4595,-1.9465 1.34619,-3.70547 3,-6c1.30745,-1.814 2.1731,-4.85272 3,-6c1.30746,-1.814 1.4588,-2.69345 2,-4c0.38269,-0.92389 0,-2 0,-3c0,-1 0,-2 0,-3c0,-1 0,-2 0,-3c0,-1 0,-2 0,-3c0,-1 0,-2 0,-3c0,-1 0,-2 0,-3c0,-1 -0.48627,-1.82376 -1,-4c-0.22977,-0.97324 -0.23462,-2.15225 -1,-4c-0.5412,-1.30655 -2,-3 -2,-4c0,-2 -0.77025,-3.02676 -1,-4c-0.51375,-2.17624 -0.69255,-3.186 -2,-5c-0.8269,-1.14728 -1.4588,-1.69345 -2,-3c-0.38269,-0.92389 -0.61731,-2.07611 -1,-3c-0.5412,-1.30655 -0.29289,-2.29291 -1,-3c-0.70711,-0.70709 -0.29289,-1.29291 -1,-2c-0.70711,-0.70709 -1.29289,-0.29291 -2,-1c-0.70711,-0.70709 -0.29289,-2.29291 -1,-3c-0.70711,-0.70709 -1.61731,-1.07611 -2,-2c-0.5412,-1.30655 -1.61731,-1.07611 -2,-2c-0.5412,-1.30655 -1.61731,-1.07611 -2,-2c-0.5412,-1.30655 -2.186,-0.69254 -4,-2c-1.14726,-0.8269 -1.82375,-2.48627 -4,-3c-0.97325,-0.22977 -3.07613,-0.61731 -4,-1c-1.30656,-0.5412 -1.82375,-1.48627 -4,-2c-0.97325,-0.22977 -1,-1 -2,-1c-1,0 -2,-1 -4,-1c-1,0 -2,0 -4,0c-2,0 -3,-1 -5,-1c-2,0 -4,0 -5,0c-3,0 -5,0 -7,0c-2,0 -5,0 -7,0l-2,0l-1,0" id="svg_4" stroke="#000" fill="none"/>
  <path d="m81,442c-1,0 -1,1 -1,2c0,1 -1,1 -1,2c0,1 -1,1 -1,2c0,1 -0.29289,1.29291 -1,2c-0.70711,0.70709 0,2 0,3c0,1 0.70711,2.29291 0,3c-0.70711,0.70709 -1,1 -1,2c0,1 -0.29289,1.29291 -1,2c-0.70711,0.70709 0,2 0,3c0,1 -0.29289,1.29291 -1,2c-0.70711,0.70709 0,2 0,3c0,1 0.70711,2.29291 0,3c-0.70711,0.70709 -1,1 -1,2c0,1 -0.4588,1.69345 -1,3c-0.38268,0.92389 0,2 0,3c0,1 -0.4588,1.69345 -1,3c-0.38268,0.92389 0.70711,2.29291 0,3c-0.70711,0.70709 -1,1 -1,2c0,1 -0.29289,1.29291 -1,2c-0.70711,0.70709 0,2 0,3c0,1 -0.29289,1.29291 -1,2c-0.70711,0.70709 0,2 0,3c0,1 0,2 0,3c0,1 -1,1 -1,2c0,1 0,2 0,3c0,1 0.70711,2.29291 0,3c-0.70711,0.70709 -1,1 -1,2c0,1 0,2 0,3c0,1 0,2 0,3c0,1 -1,1 -1,2c0,1 0,2 0,3c0,1 -0.4588,1.69342 -1,3c-0.38268,0.92389 0,3 0,4c0,2 0.22975,3.02673 0,4c-0.51374,2.17627 -1,4 -1,6c0,2 -0.48626,3.82373 -1,6c-0.22975,0.97327 0,3 0,5c0,1 0,2 0,3c0,2 0,3 0,4c0,2 0,3 0,4c0,1 0,2 0,3c0,1 0,2 0,3c0,1 0,2 0,3c0,1 0,2 0,3c0,1 0,2 0,3c0,1 0,2 0,3c0,2 0.45881,2.69342 1,4c0.76537,1.84778 -0.22975,3.02673 0,4c0.51374,2.17627 1,3 1,4c0,1 1,2 1,3c0,1 -0.76537,2.15222 0,4c0.5412,1.30658 1,3 1,4c0,1 0,3 0,4c0,1 1,1 1,2l0,1l0,1l0,1" id="svg_5" stroke="#000" fill="none"/>
  <path d="m233,438c1,0 1.4588,0.69345 2,2c0.38269,0.92389 0.61731,1.07611 1,2c0.5412,1.30655 2.4588,1.69345 3,3c0.38269,0.92389 1,2 2,3c1,1 1.29289,1.29291 2,2c0.70711,0.70709 1,1 1,2c0,1 0.61731,1.07611 1,2c0.5412,1.30655 1.29289,1.29291 2,2c0.70711,0.70709 0.61731,2.07611 1,3c0.5412,1.30655 1.29289,1.29291 2,2c0.70711,0.70709 1.4588,1.69345 2,3c0.38269,0.92389 0.61731,2.07611 1,3c0.5412,1.30655 0.61731,2.07611 1,3c0.5412,1.30655 0.61731,2.07611 1,3c0.5412,1.30655 0.23463,2.15225 1,4c0.5412,1.30655 0.61731,2.07611 1,3c0.5412,1.30655 1.4588,2.69345 2,4c0.38269,0.92389 1,3 1,4c0,1 -0.22977,3.02676 0,4c0.51373,2.17624 1,3 1,4c0,2 0,3 0,5c0,1 0,2 0,3c0,1 0,2 0,3c0,1 0,2 0,4c0,1 0,2 0,4c0,1 0,3 0,4c0,1 0,2 0,3c0,1 0,3 0,4c0,1 1,2 1,3c0,1 0,2 0,3c0,1 0,2 0,3c0,1 0,2 0,3c0,1 0,2 0,3c0,1 0.38269,2.07611 0,3c-0.5412,1.30658 -1,2 -1,4c0,1 0,2 0,4c0,1 -0.4588,2.69342 -1,4c-0.76538,1.84778 0,3 0,5c0,1 0.22977,3.02673 0,4c-0.51373,2.17627 -0.77023,4.02673 -1,5c-0.51373,2.17627 -0.77023,4.02673 -1,5c-0.51373,2.17627 -0.5405,4.05353 -1,6c-0.51373,2.17627 -1.4588,3.69342 -2,5c-0.38269,0.92389 -0.4588,2.69342 -1,4c-0.38269,0.92389 0.70711,2.29291 0,3c-0.70711,0.70709 -1,1 -1,2c0,1 -1,1 -1,2c0,1 -0.29289,1.29291 -1,2c-0.70711,0.70709 -1.29289,0.29291 -2,1c-0.70711,0.70709 -1,1 -1,2l0,-1" id="svg_6" stroke="#000" fill="none"/>
  <path d="m244,448c1,0 2,0 3,0c1,0 2,0 3,0c1,0 2,0 3,0c1,0 2.29289,0.70709 3,0c0.70709,-0.70709 1,-1 2,-1c1,0 2,0 3,0c1,0 1.29291,-0.29291 2,-1c0.70709,-0.70709 2,0 3,0c1,0 2.07611,-0.61731 3,-1c1.30655,-0.5412 2.29291,-0.29291 3,-1c0.70709,-0.70709 1.29291,-0.29291 2,-1c0.70709,-0.70709 1.29291,-0.29291 2,-1c0.70709,-0.70709 0.29291,-1.29291 1,-2c0.70709,-0.70709 2,-1 3,-2c1,-1 1.69345,-2.4588 3,-3c0.92389,-0.38269 1.29291,-1.29291 2,-2c0.70709,-0.70709 1.29291,-0.29291 2,-1c0.70709,-0.70709 1.29291,-0.29291 2,-1c0.70709,-0.70709 0.29291,-1.29291 1,-2c0.70709,-0.70709 1,-1 2,-2c1,-1 2.186,-1.69254 4,-3c1.14728,-0.8269 3,-3 4,-4c1,-1 2.4588,-0.69345 3,-2c0.38269,-0.92389 0,-2 0,-3c0,-1 0,-2 0,-3c0,-1 -0.61731,-1.07611 -1,-2c-0.5412,-1.30655 -1.4588,-1.69345 -2,-3c-0.38269,-0.92389 -1.29291,-1.29291 -2,-2c-0.70709,-0.70709 -0.29291,-1.29291 -1,-2c-0.70709,-0.70709 -1.29291,-0.29291 -2,-1c-0.70709,-0.70709 -1,-1 -1,-2c0,-1 -0.29291,-1.29291 -1,-2c-0.70709,-0.70709 -1.29291,-0.29291 -2,-1c-0.70709,-0.70709 -0.29291,-1.29291 -1,-2c-0.70709,-0.70709 -1.29291,-0.29291 -2,-1c-0.70709,-0.70709 -1,-1 -2,-1c-1,0 -0.69345,-1.4588 -2,-2c-0.92389,-0.38269 -1,-1 -2,-2c-1,-1 -2.186,-1.69254 -4,-3c-1.14728,-0.8269 -2.85272,-2.1731 -4,-3c-1.814,-1.30746 -3,-2 -4,-3c-1,-1 -1.29291,-1.29291 -2,-2c-0.70709,-0.70709 -0.29291,-1.29291 -1,-2c-0.70709,-0.70709 -0.29291,-1.29291 -1,-2c-0.70709,-0.70709 -1,-1 -2,-1c-1,0 -1,-1 -2,-1c-1,0 -1,-1 -2,-1c-1,0 -2,-1 -3,-1l0,-1" id="svg_7" stroke="#000" fill="none"/>
  <path d="m77,450c0,-1 -1.07612,-0.61731 -2,-1c-1.30656,-0.5412 -1.29289,-1.29291 -2,-2c-0.70711,-0.70709 -2.29289,-0.29291 -3,-1c-0.70711,-0.70709 -1.4588,-0.69345 -2,-2c-0.38268,-0.92389 -1,-1 -2,-2c-1,-1 -1.69344,-1.4588 -3,-2c-0.92388,-0.38269 -2,-1 -3,-1c-1,0 -1,-1 -2,-1c-1,0 -1.29289,-0.29291 -2,-1c-0.70711,-0.70709 -1.29289,-0.29291 -2,-1c-0.70711,-0.70709 -0.69344,-1.4588 -2,-2c-0.92388,-0.38269 -1.69344,-1.4588 -3,-2c-0.92388,-0.38269 -1.29289,-0.29291 -2,-1c-0.70711,-0.70709 -2.29289,-0.29291 -3,-1c-0.70711,-0.70709 -0.29289,-1.29291 -1,-2c-0.70711,-0.70709 -1,-1 -2,-1c-1,0 -1.29289,-0.29291 -2,-1c-0.70711,-0.70709 -0.29289,-1.29291 -1,-2c-0.70711,-0.70709 -1.29289,-0.29291 -2,-1c-0.70711,-0.70709 -0.29289,-1.29291 -1,-2c-0.70711,-0.70709 -1.07612,-0.61731 -2,-1c-1.30656,-0.5412 -1.69344,-2.4588 -3,-3c-0.92388,-0.38269 -2.29289,-0.29291 -3,-1c-0.70711,-0.70709 -0.29289,-1.29291 -1,-2c-0.70711,-0.70709 -1.29289,-0.29291 -2,-1c-0.70711,-0.70709 -0.29289,-1.29291 -1,-2c-0.70711,-0.70709 -1.29289,-0.29291 -2,-1c-0.70711,-0.70709 -1,-1 -1,-2c0,-1 0.61732,-1.07611 1,-2c0.5412,-1.30655 2,-2 3,-3c1,-1 2.18601,-1.69254 4,-3c1.14727,-0.8269 3,-2 4,-3c1,-1 2,-1 3,-2c1,-1 1.69344,-1.4588 3,-2c0.92388,-0.38269 1.69344,-1.4588 3,-2c0.92388,-0.38269 1.07612,-0.61731 2,-1c1.30656,-0.5412 1.29289,-1.29291 2,-2c0.70711,-0.70709 1.29289,-0.29291 2,-1c0.70711,-0.70709 2,-1 3,-1c1,0 1.29289,-1.29291 2,-2c0.70711,-0.70709 2.29289,-0.29291 3,-1c0.70711,-0.70709 0.69344,-1.4588 2,-2c0.92388,-0.38269 1.29289,-0.29291 2,-1c0.70711,-0.70709 1.29289,-0.29291 2,-1c0.70711,-0.70709 1.29289,-0.29291 2,-1c0.70711,-0.70709 0.29289,-1.29291 1,-2c1.41422,-1.41422 2,-1 3,-1c1,0 1.29289,-0.29291 2,-1c0.70711,-0.70709 1.29289,-0.29291 2,-1c0.70711,-0.70709 0.29289,-1.29291 1,-2c0.70711,-0.70709 1.29289,-0.29291 2,-1c0.70711,-0.70709 2,-1 3,-1l0,-1l1,0" id="svg_8" stroke="#000" fill="none"/>
  <path d="m136,370c-1,0 -2,0 -3,0c-1,0 -1.29289,-0.29291 -2,-1c-0.70711,-0.70709 -2,0 -3,0c-1,0 -2.29289,-0.70709 -3,0c-0.70711,0.70709 -1,1 -2,1c-1,0 -1,1 -2,1c-1,0 -1.29289,0.29291 -2,1c-0.70711,0.70709 -1.29289,0.29291 -2,1c-0.70711,0.70709 -1.29289,1.29291 -2,2c-0.70711,0.70709 -1.29289,1.29291 -2,2c-0.70711,0.70709 -0.29289,1.29291 -1,2c-0.70711,0.70709 -1,1 -1,2c0,1 -1,1 -1,2c0,1 -1,1 -1,3c0,1 -1,2 -1,3c0,1 0,2 0,3c0,1 -1,1 -1,2c0,1 0,2 0,3c0,1 0,2 0,3c0,1 1,1 1,2c0,1 0.4588,1.69345 1,3c0.38268,0.92389 1,1 1,2c0,1 0.29289,1.29291 1,2c0.70711,0.70709 1,1 2,1c1,0 1,1 2,1c1,0 3.07612,0.61731 4,1c1.30656,0.5412 2.29289,0.29291 3,1c0.70711,0.70709 1,1 2,1c1,0 2,0 3,0c1,0 2,0 3,0c1,0 2,0 3,0c1,0 2,0 3,0c1,0 1,-1 2,-1c1,0 1.07613,-0.61731 2,-1c1.30656,-0.5412 1.29289,-1.29291 2,-2c0.70711,-0.70709 1.29289,-0.29291 2,-1c0.70711,-0.70709 1,-1 1,-2c0,-1 0.61731,-1.07611 1,-2c0.5412,-1.30655 1.1731,-1.85272 2,-3c1.30745,-1.814 1.4588,-2.69345 2,-4c0.76537,-1.84775 1,-3 1,-4c0,-1 -0.70711,-2.29291 0,-3c0.70711,-0.70709 1,-1 1,-2c0,-1 0,-2 0,-3c0,-1 0,-2 0,-3c0,-1 0,-2 0,-3c0,-1 -0.4588,-1.69345 -1,-3c-0.38269,-0.92389 -0.61731,-1.07611 -1,-2c-0.5412,-1.30655 -1.07613,-1.61731 -2,-2c-1.30656,-0.5412 -2,-2 -3,-3c-1,-1 -2.69344,-1.4588 -4,-2c-0.92387,-0.38269 -3,0 -4,0l-1,0l-1,0l-1,0" id="svg_9" stroke="#000" fill="none"/>
  <path d="m194,375c0,-1 -1,-1 -2,-1c-1,0 -1,-1 -2,-1c-1,0 -2,0 -3,0c-1,0 -2.29289,-0.70709 -3,0c-0.70711,0.70709 -1.07613,0.61731 -2,1c-1.30656,0.5412 -2.29289,0.29291 -3,1c-0.70711,0.70709 -0.69344,1.4588 -2,2c-0.92387,0.38269 -1.4588,0.69345 -2,2c-0.38269,0.92389 -0.29289,1.29291 -1,2c-0.70711,0.70709 -1.29289,0.29291 -2,1c-0.70711,0.70709 -0.29289,1.29291 -1,2c-0.70711,0.70709 -0.29289,1.29291 -1,2c-0.70711,0.70709 -1,1 -1,2c0,1 -1,2 -1,3c0,1 -1,1 -1,2c0,1 -0.4588,1.69345 -1,3c-0.38269,0.92389 0,2 0,3c0,1 0,2 0,3c0,1 1,1 1,2c0,1 0.4588,1.69345 1,3c0.38269,0.92389 1,1 1,2c0,1 0.29289,1.29291 1,2c0.70711,0.70709 1.29289,0.29291 2,1c0.70711,0.70709 2.29289,-0.70709 3,0c0.70711,0.70709 1,1 2,1c1,0 2,0 3,0c1,0 2,0 3,0c1,0 2,0 3,0c1,0 2,0 3,0c1,0 1.29289,-0.29291 2,-1c0.70711,-0.70709 1.29289,-0.29291 2,-1c0.70711,-0.70709 0.69344,-1.4588 2,-2c0.92387,-0.38269 1.69344,-1.4588 3,-2c0.92387,-0.38269 1.29289,-0.29291 2,-1c0.70711,-0.70709 0.29289,-1.29291 1,-2c0.70711,-0.70709 0.4588,-1.69345 1,-3c0.38269,-0.92389 -0.70711,-2.29291 0,-3c0.70711,-0.70709 0.77025,-1.02676 1,-2c0.51375,-2.17624 1,-3 1,-4c0,-1 0.4588,-1.69345 1,-3c0.38269,-0.92389 0.70711,-2.29291 0,-3c-0.70711,-0.70709 -1.4588,-0.69345 -2,-2c-0.38269,-0.92389 -0.29289,-1.29291 -1,-2c-0.70711,-0.70709 -0.29289,-1.29291 -1,-2c-0.70711,-0.70709 0,-2 -1,-3c-1,-1 -1.07613,-2.61731 -2,-3c-1.30656,-0.5412 -2.29289,-1.29291 -3,-2c-0.70711,-0.70709 -1,-1 -2,-1l-1,0l-1,0l-1,0" id="svg_10" stroke="#000" fill="none"/>
  <path d="m134,394c-1,0 -2.29289,0.70709 -3,0c-0.70711,-0.70709 0,-2 0,-3c0,-1 -1,-1 -1,-2c0,-1 0.29289,-2.70709 1,-2c0.70711,0.70709 0,2 0,3c0,1 0,2 -1,2c-1,0 -2,0 -1,0c1,0 1.29289,-0.29291 2,-1c0.70711,-0.70709 2.29289,-1.70709 3,-1c0.70711,0.70709 0.70711,2.29291 0,3c-0.70711,0.70709 -1,1 -2,1c-1,0 -2,0 -3,0c-1,0 -2,0 -2,-1c0,-1 -0.70711,-2.29291 0,-3c0.70711,-0.70709 1,-1 2,-1c1,0 2.70711,0.29291 2,1c-0.70711,0.70709 -2.29289,1.70709 -3,1c-0.70711,-0.70709 1,-1 2,-1c1,0 1,1 0,1l-1,0l-1,0" id="svg_11" stroke="#000" fill="none"/>
  <path d="m181,389c1,0 2,0 3,0c1,0 2,0 2,1c0,1 0,2 0,3c0,1 -0.29289,1.29291 -1,2c-0.70711,0.70709 -2.29289,0.70709 -3,0c-0.70711,-0.70709 -0.29289,-1.29291 -1,-2c-0.70711,-0.70709 -1,-1 0,-1c1,0 1.29289,-0.29291 2,-1c0.70711,-0.70709 1,-1 1,0c0,1 -1,1 -2,1c-1,0 -1,-1 0,-1c1,0 2.70711,0.29291 2,1c-0.70711,0.70709 -1.29289,0.29291 -2,1c-0.70711,0.70709 -2,0 -1,0c1,0 3,1 3,0c0,-1 -2,0 -3,0c-1,0 -1,-1 -1,-2l1,0" id="svg_12" stroke="#000" fill="none"/>
  <path d="m136,432c0,-1 1,-1 2,-1c1,0 2.07613,-0.61731 3,-1c1.30656,-0.5412 2.07613,-0.61731 3,-1c1.30656,-0.5412 2,-1 3,-1c1,0 2,0 3,0c1,0 2,0 3,0c1,0 2,0 3,0c1,0 2,0 3,0c1,0 2,0 3,0c1,0 2,0 3,0c1,0 2,0 3,0c1,0 1,1 2,1c1,0 1.29289,0.29291 2,1c0.70711,0.70709 1.29289,0.29291 2,1c0.70711,0.70709 2.29289,-0.70709 3,0c0.70711,0.70709 1.29289,0.29291 2,1c0.70711,0.70709 1.4588,0.69345 2,2c0.38269,0.92389 0.29289,1.29291 1,2c0.70711,0.70709 1.29289,0.29291 2,1c0.70711,0.70709 0.29289,1.29291 1,2c0.70711,0.70709 1,1 1,2c0,1 1,1 1,2c0,1 0,2 0,3c0,1 -0.29289,1.29291 -1,2c-0.70711,0.70709 -0.29289,1.29291 -1,2c-0.70711,0.70709 -0.69344,1.4588 -2,2c-0.92387,0.38269 -1.29289,0.29291 -2,1c-0.70711,0.70709 -1.29289,0.29291 -2,1c-0.70711,0.70709 -2,1 -3,1c-1,0 -2,0 -3,0c-1,0 -2,1 -3,1c-2,0 -4,0 -5,0c-2,0 -4.07613,-0.38269 -5,0c-1.30656,0.5412 -2,1 -3,1c-1,0 -1.29289,-0.29291 -2,-1c-0.70711,-0.70709 -2,0 -3,0c-1,0 -2,0 -3,0c-1,0 -1.29289,-0.29291 -2,-1c-0.70711,-0.70709 -1.69344,-0.4588 -3,-1c-0.92387,-0.38269 -1.29289,-0.29291 -2,-1c-0.70711,-0.70709 -1.69344,-0.4588 -3,-1c-0.92387,-0.38269 -2,-1 -3,-1c-1,0 -1.29289,-0.29291 -2,-1c-0.70711,-0.70709 -0.29289,-1.29291 -1,-2c-0.70711,-0.70709 -1.29289,-0.29291 -2,-1c-0.70711,-0.70709 -1,-2 -1,-3c0,-1 -1,-1 -1,-2c0,-1 0,-2 0,-3c0,-1 0,-2 0,-3c0,-1 -0.70711,-2.29291 0,-3c0.70711,-0.70709 0.29289,-1.29291 1,-2c0.70711,-0.70709 1,-1 2,-1c1,0 2.29289,0.70709 3,0c0.70711,-0.70709 1,-1 2,-1c1,0 2,0 4,-1l1,0l1,-1" id="svg_13" stroke="#000" fill="none"/>
  <path d="m357,116c0,1 0.22977,2.02675 0,3c-0.51373,2.17625 -0.67963,4.02583 -1,6c-0.50653,3.12144 -1.5405,4.0535 -2,6c-0.51373,2.17625 -1.4588,3.69344 -2,5c-0.76538,1.84776 -0.4588,3.69344 -1,5c-0.76538,1.84776 -0.31073,4.08025 -1,7c-0.51373,2.17625 -1.67963,4.02582 -2,6c-0.50653,3.12144 -2,5 -2,7c0,3 -0.5405,5.0535 -1,7c-0.51373,2.17625 -0.67963,4.02582 -1,6c-0.50653,3.12144 -1.14429,4.93414 -2,7c-1.21014,2.92157 -1.49622,4.90779 -2,9c-0.24435,1.98502 -1.49347,4.87856 -2,8c-0.48056,2.96126 -0.67963,6.02582 -1,8c-0.50653,3.12144 -1.48627,4.82375 -2,7c-0.68927,2.91975 -0.67963,6.02582 -1,8c-0.50653,3.12144 -1.67963,6.02582 -2,8c-0.50653,3.12144 -1.5405,5.0535 -2,7c-0.51373,2.17625 -0.83981,4.01291 -1,5c-0.50653,3.12144 -1,4 -1,6c0,2 -1,3 -1,5c0,2 -0.4588,3.69344 -1,5c-0.76538,1.84775 -0.5405,4.0535 -1,6c-0.51373,2.17624 -1.48627,2.82376 -2,5c-0.4595,1.9465 -0.48627,3.82376 -1,6c-0.4595,1.9465 -1,4 -1,6c0,3 0.14804,4.22836 -1,7c-0.5412,1.30655 -1.4588,3.69345 -2,5c-0.76538,1.84775 -0.23462,4.15225 -1,6c-0.5412,1.30655 -1.48627,2.82376 -2,5c-0.22977,0.97324 -1,3 -1,4c0,2 -1,3 -1,4c0,2 -0.29291,2.29291 -1,3c-0.70709,0.70709 -0.70709,2.29291 0,3c0.70709,0.70709 2,0 3,0c2,0 5,0 9,0c4,0 8.06458,0.8009 13,0c3.12143,-0.50653 7.87857,-1.49347 11,-2c3.94836,-0.64072 6.90778,-0.49622 11,-1c1.98502,-0.24435 6,0 9,0c3,0 6,0 9,0c4,0 7,0 11,0c4,0 8,0 12,0c3,0 6,1 9,1c2,0 4,0 6,0c2,0 4,0 6,0c1,0 3,0 4,0c3,0 4,0 7,0c3,0 6.02249,-0.36655 9,0c4.09222,0.50378 7.90778,1.49622 12,2c3.97003,0.48874 8,1 13,1c4,0 6.90778,0.49622 11,1c2.97751,0.36655 5,0 7,0c1,0 2,0 4,0c1,0 3.02676,-0.22977 4,0c2.17624,0.51373 4.0535,0.5405 6,1c2.17624,0.51373 4,1 6,1c2,0 4,0 6,0c2,0 3,0 4,0c1,0 2,0 3,0c2,0 5.87854,1.49347 9,2c3.94836,0.64072 7,1 11,1c4,0 8,0 10,0l2,0l1,0" id="svg_14" stroke="#000" fill="none"/>
  <path d="m359,118c1,0 2,0 3,0c3,0 5,-1 8,-1c3,0 5.90778,-0.49622 10,-1c2.97751,-0.36655 7,0 10,0c4,0 7,-1 10,-1c4,0 8,0 11,0c4,0 7.82376,-0.48626 10,-1c3.89301,-0.91901 7,0 10,0c4,0 7,-1 11,-1c4,0 9,0 13,0c6,0 10,0 15,0c4,0 6,0 9,0c2,0 5,0 6,0c1,0 1.69345,0.4588 3,1c0.92389,0.38268 2,0 3,0c1,0 2,0 4,0c3,0 7,0 10,0c3,0 6,0 10,0c4,0 6.87854,-0.49346 10,-1c3.94836,-0.64073 6,0 9,0c3,0 5,0 8,0c2,0 6,0 9,0c3,0 7,0 10,0c4,0 6,0 10,0c2,0 4,0 5,0c1,0 1,-1 2,-1c1,0 2.29291,-0.70711 3,0c0.70709,0.70711 0,2 0,3c0,1 0,2 0,3c0,2 0,4 0,6c0,3 0,6 0,8c0,3 0,6 0,9c0,2 -1,5 -1,7c0,2 0.68927,4.08025 0,7c-0.51373,2.17625 -1,4 -1,6c0,1 -0.48627,2.82375 -1,5c-0.45953,1.9465 -0.48627,3.82375 -1,6c-0.45953,1.9465 -0.48627,3.82375 -1,6c-0.68927,2.91975 0,5 0,8c0,2 -1,4 -1,7c0,2 0,4 0,6c0,1 -1,3 -1,5c0,1 0,2 0,4c0,2 0.22974,3.02675 0,4c-0.51373,2.17625 -1,3 -1,5c0,2 -0.4588,3.69344 -1,5c-0.76538,1.84776 0.45953,4.0535 0,6c-0.51373,2.17625 -1.49347,4.87856 -2,8c-0.32037,1.97418 -0.49347,4.87856 -1,8c-0.48053,2.96126 -1,5 -1,8c0,2 -1,4 -1,6c0,2 0.76538,3.15225 0,5c-0.5412,1.30655 -1,2 -1,3c0,1 -0.4588,1.69345 -1,3c-0.76538,1.84775 0.45953,3.0535 0,5c-0.51373,2.17624 -0.54047,3.0535 -1,5c-0.51373,2.17624 -1.4588,3.69345 -2,5c-0.76538,1.84775 0.76538,3.15225 0,5c-0.5412,1.30655 -1,2 -1,4c0,1 -1,2 -1,4c0,1 -1,3 -1,4c0,1 0.70709,2.29291 0,3c-0.70709,0.70709 -1,1 -1,2c0,1 0.70709,2.29291 0,3c-0.70709,0.70709 -1,1 -1,2c0,1 -1,1 -1,2c0,1 -0.29291,1.29291 -1,2c-0.70709,0.70709 0,2 0,3c0,1 -1,1 -1,2c0,1 -0.4588,1.69345 -1,3c-0.38269,0.92389 -0.29291,1.29291 -1,2c-0.70709,0.70709 0,2 -1,3l0,1" id="svg_15" stroke="#000" fill="none"/>
  <path d="m392,175c-1,0 -1,-1 -2,-1c-1,0 -2,0 -3,0c-1,0 -2.07611,-0.38269 -3,0c-1.30655,0.5412 -2.69345,2.4588 -4,3c-1.84775,0.76537 -2.69345,1.4588 -4,2c-0.92389,0.38269 -1.29291,1.29289 -2,2c-0.70709,0.70711 -1.4588,0.69344 -2,2c-0.38269,0.92387 -0.61731,1.07613 -1,2c-0.5412,1.30656 -1,2 -2,3c-1,1 -1.4588,1.69344 -2,3c-0.38269,0.92387 -1.4588,2.69344 -2,4c-0.38269,0.92387 -1,2 -1,4c0,1 -1,3 -1,4c0,2 -0.4588,2.69344 -1,4c-0.38269,0.92387 0,3 0,4c0,1 0,2 0,3c0,1 0,2 0,3c0,1 0,2 0,3c0,2 1,3 1,4c0,1 1,2 1,3c0,1 1,1 1,2c0,1 0.29291,1.29289 1,2c0.70709,0.70711 1.29291,0.29289 2,1c0.70709,0.70711 2,0 3,0c1,0 2,0 4,0c1,0 2,0 3,0c1,0 1,-1 2,-1c1,0 1,-1 2,-1c1,0 1,-1 2,-1c1,0 1.69345,-1.4588 3,-2c0.92389,-0.38269 1.29291,-0.29289 2,-1c0.70709,-0.70711 0,-2 0,-3c0,-1 1,-2 1,-3c0,-2 0,-3 0,-5c0,-1 0,-3 0,-4c0,-2 0,-3 0,-4c0,-1 -0.29291,-1.29289 -1,-2c-0.70709,-0.70711 -1,-1 -2,-1c-1,0 -1,-1 -2,-1c-1,0 -2,0 -3,0c-1,0 -2,0 -1,0c1,0 2,1 4,1c2,0 3,0 5,0c1,0 3,0 4,0l1,1l1,0l1,0" id="svg_16" stroke="#000" fill="none"/>
  <path d="m423,202c0,-1 -1.29291,-0.29289 -2,-1c-0.70709,-0.70711 -1.07611,-0.61731 -2,-1c-1.30655,-0.5412 -2,-1 -3,-1c-1,0 -2,0 -3,0c-1,0 -2,1 -3,2c-1,1 -2,1 -3,2c-1,1 -1.4588,1.69344 -2,3c-0.38269,0.92387 -0.29291,1.29289 -1,2c-0.70709,0.70711 0,2 0,3c0,1 0,2 0,3c0,1 0,2 0,3c0,1 0,2 0,3c0,1 0.29291,2.29289 1,3c0.70709,0.70711 1,1 2,1c1,0 1,1 2,1c1,0 2,0 3,0c1,0 2,0 3,0c1,0 2.29291,-0.29289 3,-1c0.70709,-0.70711 1.1731,-1.85274 2,-3c1.30746,-1.814 2.34619,-2.70546 4,-5c1.30746,-1.814 0.23462,-3.15224 1,-5c0.5412,-1.30656 1,-3 1,-4c0,-1 1,-1 1,-2c0,-1 -0.29291,-0.70711 -1,0c-0.70709,0.70711 0.70709,2.29289 0,3c-0.70709,0.70711 -1,1 -1,2c0,1 0,2 0,4c0,1 0,3 0,4c0,2 0,4 0,5c0,1 1,1 2,1c1,0 2,0 2,-1l1,0l1,-1l1,-1" id="svg_17" stroke="#000" fill="none"/>
  <path d="m441,201c1,0 1,1 1,2c0,2 0,4 0,6c0,3 0,5 0,8c0,2 0,4 0,7c0,2 0,4 0,5c0,2 0,4 0,5c0,2 -1,4 0,4c1,0 -0.4588,-1.69344 -1,-3c-1.14804,-2.77164 0,-6 0,-8c0,-4 0.31073,-7.08025 1,-10c0.51373,-2.17625 1.67963,-5.02582 2,-7c0.50653,-3.12144 2.4588,-4.69344 3,-6c0.38269,-0.92387 1,-1 2,-1c1,0 2.29291,-0.70711 3,0c0.70709,0.70711 0.07611,1.61731 1,2c1.30655,0.5412 1.23462,1.15224 2,3c0.5412,1.30656 1.48627,2.82375 2,5c0.68927,2.91975 0,4 0,7c0,1 0,3 0,4c0,1 -1,1 -1,0c0,-1 -1,-1 -1,-2c0,-2 0,-3 0,-5c0,-1 0.23462,-2.15224 1,-4c0.5412,-1.30656 1,-3 2,-4c1,-1 1.29291,-2.29289 2,-3c0.70709,-0.70711 2.29291,0.70711 3,0c0.70709,-0.70711 1,-1 2,-1c2,0 3,-1 4,-1c1,0 2.29291,-0.70711 3,0c0.70709,0.70711 0,2 0,3c0,1 0,3 0,4c0,3 0,5 0,7c0,3 0.76538,5.15224 0,7c-0.5412,1.30656 -1,3 -1,4c0,1 -1,2 -1,3c0,1 -1,1 -1,2c0,1 1,1 2,1l1,-1" id="svg_18" stroke="#000" fill="none"/>
  <path d="m486,210c-1,0 -1,1 -1,2c0,1 0.29291,1.29289 1,2c0.70709,0.70711 0,2 2,2c1,0 1,1 3,1c1,0 2,0 3,0c1,0 3,0 5,0c1,0 2.29291,-0.29289 3,-1c0.70709,-0.70711 0,-2 0,-3c0,-1 0,-2 0,-3c0,-1 0,-2 0,-3c0,-1 -0.07611,-1.61731 -1,-2c-1.30655,-0.5412 -2,-1 -3,-1c-1,0 -2,0 -3,0c-1,0 -1.29291,0.29289 -2,1c-0.70709,0.70711 -2.1731,0.85274 -3,2c-1.30746,1.814 -2.69254,3.186 -4,5c-1.65381,2.29454 -3.69254,3.186 -5,5c-0.8269,1.14726 -2.48627,2.82375 -3,5c-0.22977,0.97325 0,3 0,5c0,1 0,4 0,5c0,3 0,4 1,5c1,1 2,2 3,2c2,0 4,0 6,0c3,0 5.22937,-0.33199 9,-2c3.29733,-1.45863 6.37201,-2.3851 10,-5c2.29453,-1.65381 6,-4 8,-6l1,-1" id="svg_19" stroke="#000" fill="none"/>
  <path d="m531,203c-1,0 -2,0 -3,0c-1,0 -2,0 -3,0c-1,0 -2.29291,-0.70711 -3,0c-0.70709,0.70711 -0.69342,1.4588 -2,2c-0.92389,0.38269 -2.4588,0.69344 -3,2c-0.38269,0.92387 -1,2 -1,3c0,1 0.29291,1.29289 1,2c0.70709,0.70711 0.85272,1.1731 2,2c1.81396,1.30745 2.69342,1.4588 4,2c0.92389,0.38269 1.69342,0.4588 3,1c0.92389,0.38269 1.69342,0.4588 3,1c0.92389,0.38269 2.29291,0.29289 3,1c0.70709,0.70711 0.69342,1.4588 2,2c0.92389,0.38269 2.4588,0.69344 3,2c0.38269,0.92387 1.4588,0.69344 2,2c0.38269,0.92387 0.70709,2.29289 0,3c-0.70709,0.70711 -1.61731,0.07613 -2,1c-0.5412,1.30656 -1.85272,1.1731 -3,2c-1.81396,1.30745 -3.15222,1.23463 -5,2c-1.30658,0.5412 -3,2 -4,2c-1,0 -1.29291,-0.29289 -2,-1c-0.70709,-0.70711 -1,-1 -1,-2l0,-1" id="svg_20" stroke="#000" fill="none"/>
  <path d="m356,116c-1,0 -2.29291,-0.70711 -3,0c-0.70709,0.70711 -1.29291,0.29289 -2,1c-0.70709,0.70711 -1.07611,0.61732 -2,1c-1.30655,0.5412 -2,1 -4,2l-1,0l0,1" id="svg_21" stroke="#000" fill="none"/>
  <path d="m312,315c0,-1 -0.29291,-1.29291 -1,-2c-0.70709,-0.70709 -0.29291,-1.29291 -1,-2c-0.70709,-0.70709 -1.29291,-0.29291 -2,-1c-0.70709,-0.70709 -0.29291,-1.29291 -1,-2c-0.70709,-0.70709 -2,-1 -2,-2l-1,-1l0,-1l-1,0" id="svg_22" stroke="#000" fill="none"/>
  <path d="m342,120c0,1 0,2 0,3c0,1 0,2 0,3c0,1 0.22977,2.02675 0,3c-0.51373,2.17625 -1,3 -1,4c0,2 -1,3 -1,4c0,2 0.22977,3.02675 0,4c-0.51373,2.17625 -1,3 -1,4c0,1 -0.4588,1.69344 -1,3c-0.76538,1.84776 0,3 0,4c0,1 -1,2 -1,3c0,1 0,2 0,3c0,1 -1,3 -1,4c0,1 0,2 0,3c0,1 -0.4588,1.69344 -1,3c-0.38269,0.92387 0,2 0,3c0,1 -0.29291,1.29289 -1,2c-1.41422,1.41422 0,3 0,4c0,1 -0.48627,1.82375 -1,4c-0.22977,0.97325 0,2 0,3c0,1 -1,1 -1,2c0,1 0,2 0,3c0,1 -1,1 -1,2c0,1 0,2 0,3c0,1 -0.29291,1.29289 -1,2c-0.70709,0.70711 0,2 0,3c0,1 -0.29291,1.29289 -1,2c-0.70709,0.70711 0,2 0,3c0,1 0.70709,2.29289 0,3c-0.70709,0.70711 -1,1 -1,2c0,1 0.38269,2.07613 0,3c-0.5412,1.30656 -1,2 -1,3c0,1 0,2 0,3c0,1 -1,2 -1,3c0,1 0.38269,2.07613 0,3c-0.5412,1.30656 -0.29291,3.29289 -1,4c-0.70709,0.70711 -1,1 -1,2c0,1 0,2 0,3c0,1 -0.4588,1.69344 -1,3c-0.38269,0.92387 0.22977,2.02675 0,3c-0.51373,2.17625 -1,3 -1,4c0,1 -1,1 -1,2c0,1 0,2 0,3c0,1 -1,3 -1,4c0,1 -0.48627,1.82375 -1,4c-0.22977,0.97324 -1,2 -1,4c0,1 -1,2 -1,3c0,1 -0.4588,1.69345 -1,3c-0.38269,0.92389 0.70709,2.29291 0,3c-0.70709,0.70709 -1.4588,0.69345 -2,2c-0.38269,0.92389 -0.4588,1.69345 -1,3c-0.38269,0.92389 -0.29291,1.29291 -1,2c-0.70709,0.70709 0,2 0,3c0,1 -1,2 -1,3c0,1 -1,1 -1,2c0,1 -1,2 -1,3c0,1 -1,1 -1,2c0,1 0.70709,2.29291 0,3c-0.70709,0.70709 -1,1 -1,2c0,1 -1,2 -1,3c0,1 0,2 0,3c0,1 -1,1 -1,2c0,1 0,2 0,3c0,1 0,2 0,3l0,1l-1,0l0,-1" id="svg_23" stroke="#000" fill="none"/>
  <path d="m347,96c0,-1 -1.1731,-0.85273 -2,-2c-1.30746,-1.814 -2.69254,-3.186 -4,-5c-1.65381,-2.29454 -3,-4 -5,-6c-2,-2 -4,-4 -5,-6l-1,-2" id="svg_24" stroke="#000" fill="none"/>
  <path d="m414,91c0,-1 0,-2 0,-3c0,-1 -0.48627,-2.82375 -1,-5c-0.91901,-3.893 0,-7 0,-10l0,-4l0,-2" id="svg_25" stroke="#000" fill="none"/>
  <path d="m499,82c0,-1 0,-2 0,-3c0,-1 -0.32037,-3.02583 0,-5c0.50653,-3.12144 2,-7 4,-10l2,-3l0,-1" id="svg_26" stroke="#000" fill="none"/>
  <path d="m580,94c1,0 2,-1 6,-2c4,-1 10.94586,-3.14858 19,-6c8.94293,-3.16607 16,-6 23,-9l1,-1" id="svg_27" stroke="#000" fill="none"/>
  <path d="m610,170c1,0 2,0 3,0c3,0 6.90778,-0.49623 11,-1c3.97003,-0.48874 9,-1 13,-1l4,-1l2,0" id="svg_28" stroke="#000" fill="none"/>
  <path d="m601,259c1,0 3,0 6,0c5,0 11,0 18,0l7,0l6,0l1,0" id="svg_29" stroke="#000" fill="none"/>
  <path d="m583,330c0,1 0.85272,1.1731 2,2c1.81396,1.30746 4.0769,2.73145 8,4c5.12396,1.65686 9.06134,3.82462 15,6c5.05658,1.85226 9,3 12,4l2,0" id="svg_30" stroke="#000" fill="none"/>
  <path d="m542,352c0,1 -0.70709,2.29291 0,3c0.70709,0.70709 1.1731,1.85272 2,3c1.30743,1.814 2,4 3,6c1,2 1.78986,4.07843 3,7c0.85571,2.06586 2,5 3,8c1,3 1,5 2,7l0,1" id="svg_31" stroke="#000" fill="none"/>
  <path d="m475,352c0,1 -0.22977,2.02676 0,3c0.51373,2.17624 1.49622,4.90778 2,9c0.36655,2.97751 -0.41241,8.01703 0,13c0.50171,6.06204 1,12 1,17l0,5l0,3" id="svg_32" stroke="#000" fill="none"/>
  <path d="m406,350c0,1 0.4588,1.69345 1,3c0.76538,1.84775 -0.48056,4.03873 0,7c0.50653,3.12143 1,6 1,9c0,4 0,7 0,11l0,3l0,2" id="svg_33" stroke="#000" fill="none"/>
  <path d="m349,346c0,1 -0.85272,1.1731 -2,2c-1.814,1.30746 -4,3 -7,5c-3,2 -6.62531,4.4136 -11,8c-2.78833,2.28589 -7,5 -9,7l-3,3l-1,1l-1,1" id="svg_34" stroke="#000" fill="none"/>
  <path d="m279,310c-1,0 -2.02249,-0.36655 -5,0c-4.09222,0.50378 -8.01691,1.90338 -14,3c-5.01547,0.91925 -11.894,3.48584 -20,5c-7.92519,1.48038 -17,3 -24,4l-4,1" id="svg_35" stroke="#000" fill="none"/>
  <path d="m285,232c-1,0 -2,0 -3,0c-2,0 -5,-1 -9,-1l-4,0l-4,-1l-5,0" id="svg_36" stroke="#000" fill="none"/>
  <path d="m309,149c-1,-1 -2,-1 -3,-1c-1,0 -2.90778,-0.49623 -7,-1c-2.97751,-0.36655 -7,0 -12,0c-4,0 -7,0 -11,0l-1,0" id="svg_37" stroke="#000" fill="none"/>
 </g>

</svg>