<svg width="800" height="600" xmlns="http://www.w3.org/2000/svg">
 <g>
  <title>Layer 1</title>
  <path d="m165,168c0,1 0,2 0,3c0,1 0,2 0,4c0,2 0.48625,3.82375 1,6c0.68925,2.91975 0,4 0,7c0,1 0.48625,2.82375 1,5c0.22975,0.97325 0,3 0,4c0,2 0,4 0,5c0,2 0,3 0,5c0,2 0,4 0,5c0,2 0,3 0,5c0,1 -0.76537,3.15224 0,5c0.5412,1.30656 1,3 1,5c0,2 -0.06213,4.00194 0,5c0.50096,8.04668 1,9 1,10c0,2 0,3 0,5c0,2 0,4 0,6c0,2 0,6 0,7c0,3 0,6 0,8c0,3 0,6 0,8c0,2 0,4 0,5c0,2 0,3 0,4c0,1 0,3 0,4c0,2 0,3 0,4c0,1 1,3 1,4c0,2 0,3 0,5c0,2 0,3 0,5c0,2 0,3 0,5c0,2 0.4595,5.0535 0,7c-0.51375,2.17624 -1,4 -1,6c0,2 0,4 0,6c0,2 0,4 0,6c0,2 0,5 0,7c0,2 0,5 0,6c0,3 0,5 0,8c0,2 0.4595,4.0535 0,6c-0.51375,2.17624 -1,5 -1,7c0,3 -1,6 -1,8c0,3 0,5 0,8c0,2 0,5 0,7c0,3 -1,5 -1,7c0,2 0,4 0,6c0,1 0,3 0,4c0,1 0,2 0,3l0,1l0,1" id="svg_77" stroke="#000" fill="none"/>
  <path d="m166,173c1,0 1.29289,-0.29289 2,-1c0.70711,-0.70711 2.07613,0.38269 3,0c1.30656,-0.5412 2,-1 3,-1c1,0 2,0 3,0c1,0 2.02675,-0.22975 3,0c2.17625,0.51375 3,1 4,1c2,0 4,0 6,0c2,0 4,0 6,0c1,0 3,0 4,0c1,0 2,0 4,0c1,0 3,0 5,0c2,0 4,1 6,1c3,0 5,0 7,0c2,0 4,0 6,0c3,0 5,0 7,0c3,0 6,0 9,0c3,0 6,0 9,0c2,0 5,0 8,0c2,0 5,0 7,0c4,0 7,-1 10,-1c4,0 8,0 12,0c3,0 7,-1 11,-1c4,0 7.03748,0.61092 12,0c4.09222,-0.50377 8,-1 12,-1c4,0 8,-1 10,-1c4,0 6,0 10,0c3,0 6,-1 10,-1c3,0 8.01459,0.29561 11,0c5.07422,-0.50244 8,-1 12,-1c4,0 8,0 12,0c4,0 8,-1 12,-1c4,0 7.90778,-0.49623 12,-1c3.97003,-0.48874 8.02997,0.48874 12,0c4.09222,-0.50377 8,-1 11,-1c4,0 8,0 12,0c2,0 6,0 8,0c3,0 6.01498,0.24437 8,0c4.09222,-0.50377 6,-1 9,-1c3,0 5,0 7,0c3,0 5,0 6,0c3,0 5,0 8,0c3,0 6,1 9,1c4,0 7,0 10,0c3,0 4.87854,-0.49345 8,-1c1.97418,-0.32036 4,0 6,0c3,0 5,0 8,0c3,0 6,0 9,0c2,0 5,0 7,0c2,0 4,0 5,0c1,0 2,0 3,0c1,0 2,0 3,0c1,0 2,0 3,0c1,0 3.02673,-0.22975 4,0c2.17627,0.51375 3,1 4,1c1,0 2.29291,-0.70711 3,0c0.70709,0.70711 1,1 2,1c1,0 1.07611,0.61731 2,1c1.30658,0.5412 1.29291,1.29289 2,2c0.70709,0.70711 1,2 1,3c0,1 1,1 1,2c0,1 1.4588,1.69344 2,3c0.38269,0.92387 0.61731,3.07613 1,4c0.5412,1.30656 1.48627,2.82375 2,5c0.45953,1.9465 0.23462,4.15224 1,6c0.5412,1.30656 -0.14807,3.22836 1,6c0.5412,1.30656 1.4588,3.69344 2,5c1.14807,2.77164 1,4 1,6c0,2 0,4 0,5c0,2 1,3 1,4c0,2 0,3 0,4c0,2 1,3 1,5c0,1 -0.76538,3.15224 0,5c0.5412,1.30656 1,3 1,5c0,2 0,4 0,6c0,2 0,4 0,6c0,3 1,5 1,8c0,3 0.49622,4.90778 1,9c0.24438,1.98502 0,5 0,7c0,2 0.49347,3.87857 1,7c0.32037,1.97418 -0.32037,5.02582 0,7c0.50653,3.12143 1,5 1,7c0,3 0,5 0,7c0,2 1,5 1,7c0,2 -0.32037,5.02582 0,7c0.50653,3.12143 1,5 1,7c0,3 0,5 0,8c0,2 0,5 0,7c0,2 0,5 0,7c0,3 0,6 0,8c0,3 0,5 0,7c0,3 0,5 0,7c0,2 0,4 0,6c0,2 0,4 0,5c0,2 0,4 0,6c0,1 0,2 0,4c0,1 0,2 0,3c0,1 1,2 1,3c0,1 0,2 0,3c0,1 0.70709,2.29291 0,3c-0.70709,0.70709 -0.61731,1.07611 -1,2c-0.5412,1.30655 -1.61731,1.07611 -2,2c-0.5412,1.30655 -1.69342,2.4588 -3,3c-0.92389,0.38269 -0.69342,1.4588 -2,2c-0.92389,0.38269 -1.07611,0.61731 -2,1c-1.30658,0.5412 -2.07611,0.61731 -3,1c-1.30658,0.5412 -2.07611,1.61731 -3,2c-1.30658,0.5412 -3,2 -5,2c-2,0 -4,1 -6,1c-2,0 -5,1 -7,1c-2,0 -4,1 -6,1c-2,0 -3.69342,0.4588 -5,1c-2.77167,1.14804 -4.69342,0.4588 -6,1c-1.84778,0.76538 -4,0 -6,0c-1,0 -3,0 -5,0c-2,0 -5,0 -8,0c-4,0 -8,0 -13,0c-4,0 -9,0 -15,0c-3,0 -8.02249,0.63345 -11,1c-4.09222,0.50378 -6,1 -9,1c-2,0 -5,0 -8,0c-2,0 -5,0 -8,0c-4,0 -8,0 -13,0c-3,0 -8,0 -12,0c-5,0 -10,1 -14,1c-4,0 -7,1 -11,1c-3,0 -6.87857,0.49347 -10,1c-3.94836,0.64072 -8,0 -12,0c-4,0 -8,0 -13,0c-5,0 -10,0 -15,0c-4,0 -10,0 -14,0c-5,0 -8.92578,0.49756 -14,1c-3.98053,0.39417 -8,0 -13,0c-4,0 -8.90778,0.49622 -13,1c-4.96252,0.61093 -9,0 -14,0c-4,0 -7.92578,0.49756 -13,1c-3.98053,0.39417 -8.02997,-0.48874 -12,0c-4.09222,0.50378 -9,1 -14,1c-4,0 -9.03746,0.38907 -14,1c-4.09221,0.50378 -9,1 -13,1c-2,0 -6,1 -9,1c-2,0 -4,0 -6,0c-2,0 -4,1 -5,1c-2,0 -3,0 -5,0c-1,0 -2,0 -4,0c-1,0 -3,0 -4,0c-2,0 -3,0 -4,0c-1,0 -2,0 -3,0c-1,0 -2,-1 -3,-1c-2,0 -3,0 -5,0c-1,0 -2.07613,0.38269 -3,0c-1.30656,-0.5412 -1.69344,-1.4588 -3,-2c-0.92387,-0.38269 -1.29289,-0.29291 -2,-1c-0.70711,-0.70709 -2,0 -3,0c-1,0 -1,-1 -2,-1c-1,0 -1.29289,-0.29291 -2,-1c-0.70711,-0.70709 -0.29289,-1.29291 -1,-2c-0.70711,-0.70709 -1,-2 -1,-3c0,-1 -1,-1 -1,-2c0,-1 -0.29289,-1.29291 -1,-2c-0.70711,-0.70709 0.70711,-2.29291 0,-3c-0.70711,-0.70709 -1,-1 -1,-2c0,-1 -0.29289,-1.29291 -1,-2c-0.70711,-0.70709 0,-2 0,-3c0,-1 0,-2 0,-3c0,-1 -1,-1 -1,-3c0,-1 0,-2 0,-3c0,-1 0,-2 0,-3c0,-1 0,-2 0,-3c0,-1 0,-3 0,-4c0,-1 0,-2 0,-4c0,-2 0,-3 0,-5c0,-1 0,-2 0,-4c0,-2 0,-3 0,-4c0,-2 -0.4588,-3.69345 -1,-5c-0.76537,-1.84775 0,-4 0,-5c0,-2 0,-3 0,-5c0,-1 0,-2 0,-4c0,-1 0,-2 0,-3c0,-1 0,-2 0,-3c0,-1 0,-2 0,-3c0,-1 0,-2 0,-3c0,-1 0,-2 0,-3c0,-1 0,-2 0,-3c0,-1 0,-2 0,-3c0,-1 0,-2 0,-3c0,-1 0,-2 0,-3c0,-1 0,-3 0,-4c0,-2 0.4588,-3.69345 1,-5c0.76537,-1.84775 0,-3 0,-5c0,-1 0,-3 0,-5c0,-1 0,-3 0,-4c0,-2 0,-4 0,-5c0,-2 -0.76537,-3.15225 0,-5c0.5412,-1.30655 1,-3 1,-4c0,-1 0,-2 0,-3c0,-1 0,-3 0,-4c0,-1 0,-2 0,-4c0,-1 0,-2 0,-4c0,-1 0.48625,-1.82376 1,-4c0.22975,-0.97324 0,-3 0,-4c0,-2 0,-4 0,-6c0,-1 0,-3 0,-5c0,-2 0,-4 0,-6c0,-1 0,-3 0,-5c0,-2 0,-3 0,-6c0,-1 -1,-3 -1,-5c0,-2 0,-4 0,-6c0,-2 0.76537,-4.15224 0,-6c-0.5412,-1.30656 -1,-3 -1,-5c0,-2 0.76537,-3.15224 0,-5c-0.5412,-1.30656 -1,-3 -1,-5c0,-2 0,-3 0,-4c0,-2 0,-3 0,-5c0,-1 0,-2 0,-3c0,-1 0,-2 0,-3c0,-1 0,-2 0,-3c0,-1 0,-2 0,-3c0,-1 0.29289,-1.29289 1,-2c0.70711,-0.70711 -0.70711,-2.29289 0,-3c0.70711,-0.70711 1.07613,-0.61731 2,-1c1.30656,-0.5412 2.29289,-0.29289 3,-1c0.70711,-0.70711 1,-1 2,-1c1,0 1,-1 2,-1c1,0 2,0 3,0c1,0 1,-1 2,-1c1,0 1.29289,-0.29289 2,-1c0.70711,-0.70711 2,0 3,0c1,0 1.29289,-0.29289 2,-1c0.70711,-0.70711 2,0 3,0c1,0 2,0 3,0c1,0 2,0 3,0c1,0 2,0 3,0c1,0 2,0 3,0c1,0 2,0 3,0c1,0 2,0 3,0c2,0 4,0 6,0c1,0 3,0 4,0c1,0 2,0 3,0c1,0 1,1 2,1l1,0l1,0l1,0" id="svg_78" stroke="#000" fill="none"/>
  <path d="m192,218c0,-1 1.02675,-0.77025 2,-1c2.17625,-0.51375 3.87856,-1.49345 7,-2c2.96126,-0.48055 5.82375,-0.48625 8,-1c3.89299,-0.91901 7,0 10,0c5,0 8,-1 12,-1c4,0 8,-1 12,-1c3,0 5,-1 8,-1c2,0 3,0 5,0c1,0 2,0 4,0c1,0 3,0 4,0c2,0 4,0 5,0c1,0 3,0 4,0c2,0 3.82376,-0.48625 6,-1c1.9465,-0.4595 3,0 5,0c1,0 2,0 3,0c1,0 2,0 3,0c1,0 2,0 3,0c1,0 2,0 3,0c1,0 2,0 3,0c1,0 3,0 4,0c1,0 2,0 3,0c1,0 1.29291,0.29289 2,1c0.70709,0.70711 1.69345,0.4588 3,1c0.92389,0.38269 2,1 3,1c1,0 2.29291,0.29289 3,1c0.70709,0.70711 1.29291,0.29289 2,1c0.70709,0.70711 0.29291,1.29289 1,2c0.70709,0.70711 1.4588,0.69344 2,2c0.38269,0.92387 0.61731,2.07613 1,3c0.5412,1.30656 1.61731,2.07613 2,3c0.5412,1.30656 1.48627,1.82375 2,4c0.22977,0.97325 1,1 1,2c0,1 -0.38269,2.07613 0,3c0.5412,1.30656 1,2 1,3c0,2 1,3 1,4c0,1 0.29291,1.29289 1,2c0.70709,0.70711 0,2 0,3c0,1 0,2 0,3c0,1 0,2 0,3c0,1 -0.76538,2.15224 0,4c0.5412,1.30655 1,3 1,5c0,2 0,4 0,6c0,2 0.48627,2.82376 1,5c0.4595,1.9465 0,4 0,6c0,2 0.48627,3.82376 1,6c0.22977,0.97324 0,3 0,4c0,3 0.48627,3.82376 1,6c0.4595,1.9465 0,4 0,5c0,2 0,4 0,6c0,2 0,4 0,6c0,1 0,3 0,5c0,2 0,3 0,4c0,2 0,3 0,5c0,1 0,3 0,4c0,1 0,3 0,4c0,2 0,3 0,5c0,2 0,3 0,5c0,1 -1,3 -1,4c0,1 0,2 0,3c0,1 0.70709,2.29291 0,3c-0.70709,0.70709 -1,1 -1,2c0,1 -1,2 -1,3c0,1 -1,1 -1,2c0,1 -1,1 -1,2c0,1 -1.29291,0.29291 -2,1c-0.70709,0.70709 -1.29291,0.29291 -2,1c-0.70709,0.70709 -1.07611,0.61731 -2,1c-1.30655,0.5412 -1.69345,1.4588 -3,2c-0.92389,0.38269 -2,1 -3,1c-1,0 -1,1 -2,1c-1,0 -2,0 -3,0c-1,0 -3,0 -4,0c-1,0 -2,1 -3,1c-1,0 -2,0 -3,0c-1,0 -1.69345,0.4588 -3,1c-0.92389,0.38269 -3,0 -4,0c-2,0 -4,0 -5,0c-2,0 -4,0 -6,0c-1,0 -3,0 -5,0c-2,0 -5,0 -6,0c-3,0 -5,0 -7,0c-2,0 -3,0 -4,0c-2,0 -3,0 -4,0c-1,0 -2,0 -3,0c-1,0 -2,0 -3,0c-1,0 -2,0 -3,0c-1,0 -2,0 -3,0c-1,0 -2,0 -3,0c-1,0 -1,-1 -2,-1c-1,0 -2.29289,0.70709 -3,0c-0.70711,-0.70709 -1,-1 -2,-1c-2,0 -3,0 -4,0c-1,0 -2.29289,0.70709 -3,0c-0.70711,-0.70709 -1,-1 -2,-1c-1,0 -2,0 -3,0c-1,0 -2,0 -3,0c-1,0 -2,0 -3,0c-1,0 -2,0 -3,0c-1,0 -2,0 -3,0c-1,0 -1,-1 -2,-1c-1,0 -2.07613,0.38269 -3,0c-1.30656,-0.5412 -2.29289,-0.29291 -3,-1c-0.70711,-0.70709 -1.69344,-1.4588 -3,-2c-0.92387,-0.38269 -2.69344,-0.4588 -4,-1c-0.92387,-0.38269 -1.29289,-0.29291 -2,-1c-0.70711,-0.70709 -1.29289,-0.29291 -2,-1c-0.70711,-0.70709 -0.29289,-1.29291 -1,-2c-0.70711,-0.70709 -0.69344,-1.4588 -2,-2c-0.92387,-0.38269 -0.29289,-1.29291 -1,-2c-0.70711,-0.70709 -0.61731,-1.07611 -1,-2c-0.5412,-1.30655 -1,-2 -1,-3c0,-1 -0.29289,-1.29291 -1,-2c-0.70711,-0.70709 0,-2 0,-3c0,-1 0,-2 0,-3c0,-1 0,-2 0,-3c0,-1 -0.4588,-2.69345 -1,-4c-0.76537,-1.84775 0,-3 0,-4c0,-2 0,-3 0,-4c0,-1 0,-3 0,-4c0,-2 0,-4 0,-5c0,-2 0,-3 0,-5c0,-2 0,-3 0,-5c0,-1 0,-3 0,-5c0,-1 0,-3 0,-5c0,-1 1,-3 1,-5c0,-1 -0.22975,-3.02676 0,-4c0.51375,-2.17624 1,-4 1,-5c0,-2 0,-3 0,-5c0,-1 0,-3 0,-5c0,-1 0.48625,-2.82376 1,-5c0.22975,-0.97324 0,-2 0,-4c0,-1 1,-2 1,-4c0,-1 0,-2 0,-3c0,-1 0,-2 0,-3c0,-1 0,-2 0,-3c0,-1 1,-2 1,-3c0,-1 0,-2 0,-3c0,-1 0,-2 0,-3c0,-1 0,-2 0,-3c0,-1 0,-2 0,-3c0,-1 0,-2 0,-3c0,-1 0,-2 0,-3c0,-1 1,-1 1,-2c0,-1 0,-2 0,-3c0,-1 0,-2 0,-3c0,-1 0,-2 0,-4c0,-1 0,-2 0,-3l0,-1l0,-1l0,-1" id="svg_79" stroke="#000" fill="none"/>
  <path d="m275,247c0,-1 -0.29291,-1.29289 -1,-2c-0.70709,-0.70711 -1,-1 -2,-1c-1,0 -2,0 -3,0c-1,0 -2,0 -3,0c-1,0 -2,0 -3,0c-1,0 -2,0 -3,0c-1,0 -2,1 -3,1c-1,0 -1.29289,0.29289 -2,1c-0.70711,0.70711 -2.29289,-0.70711 -3,0c-0.70711,0.70711 -1.29289,0.29289 -2,1c-0.70711,0.70711 -1.29289,0.29289 -2,1c-0.70711,0.70711 -0.69344,1.4588 -2,2c-0.92387,0.38269 -1.29289,1.29289 -2,2c-0.70711,0.70711 -2,1 -3,2c-1,1 -1,2 -2,3c-1,1 -1,2 -2,3c-1,1 -1.4588,1.69345 -2,3c-0.38269,0.92389 -0.61731,2.07611 -1,3c-0.5412,1.30655 -0.61731,2.07611 -1,3c-0.5412,1.30655 -1,2 -1,3c0,1 0.70711,2.29291 0,3c-0.70711,0.70709 -1,1 -1,2c0,1 0,2 0,3c0,1 0,2 0,3c0,1 0,2 0,3c0,1 0.29289,1.29291 1,2c0.70711,0.70709 0.29289,1.29291 1,2c0.70711,0.70709 0.29289,1.29291 1,2c0.70711,0.70709 0.07613,1.61731 1,2c1.30656,0.5412 1.29289,1.29291 2,2c0.70711,0.70709 2.29289,0.29291 3,1c0.70711,0.70709 2,1 3,2c1,1 2.186,0.69254 4,2c1.14726,0.8269 2.69344,1.4588 4,2c0.92387,0.38269 3.29289,0.29291 4,1c0.70711,0.70709 1,1 2,1c1,0 1,1 2,1c1,0 2.29291,-0.70709 3,0c0.70709,0.70709 1,1 2,1c1,0 2,0 3,0c1,0 2,0 3,0c1,0 2,0 3,0c1,0 1.29291,-0.29291 2,-1c0.70709,-0.70709 1.29291,-0.29291 2,-1c0.70709,-0.70709 0.82376,-1.48627 3,-2c0.97324,-0.22977 1.82443,-0.0979 3,-2c0.52573,-0.85065 1.61731,-2.07611 2,-3c0.5412,-1.30655 2.4588,-1.69345 3,-3c0.38269,-0.92389 1,-2 2,-3c1,-1 1.4588,-1.69345 2,-3c0.38269,-0.92389 0.61731,-2.07611 1,-3c0.5412,-1.30655 1.29291,-1.29291 2,-2c0.70709,-0.70709 -0.70709,-2.29291 0,-3c0.70709,-0.70709 1,-1 1,-2c0,-1 0,-2 0,-3c0,-1 0,-2 0,-3c0,-1 -1,-1 -1,-2c0,-1 -0.4588,-1.69345 -1,-3c-0.76538,-1.84775 -0.48627,-2.82376 -1,-5c-0.22977,-0.97324 -1.48627,-1.82376 -2,-4c-0.4595,-1.9465 -1.1731,-2.85272 -2,-4c-1.30746,-1.814 -1,-3 -2,-4c-1,-1 -1.29291,-1.29289 -2,-2c-0.70709,-0.70711 -1,-1 -2,-1c-1,0 -1,-1 -2,-1c-1,0 -3.02676,-0.77025 -4,-1c-2.17624,-0.51375 -4,-1 -5,-2l-2,0l-1,0" id="svg_80" stroke="#000" fill="none"/>
  <path d="m233,292c-1,0 -1.29289,1.29291 -2,2c-0.70711,0.70709 -1.29289,0.29291 -2,1c-0.70711,0.70709 -0.29289,1.29291 -1,2c-0.70711,0.70709 -1,1 -1,2c0,1 -1,1 -1,2c0,1 -1,1 -1,2c0,1 -1,1 -1,2c0,1 0,2 0,3c0,1 -1,1 -1,2c0,1 0,2 0,3c0,1 -0.29289,1.29291 -1,2c-0.70711,0.70709 0,2 0,3c0,1 0,2 0,3c0,1 0,2 0,3c0,1 0,2 0,3c0,1 0,2 0,3c0,1 0,2 0,3c0,1 0,2 0,3c0,1 0,2 0,3c0,1 0,2 0,3c0,1 0,2 0,3c0,1 0,2 0,3c0,1 1,1 1,2c0,1 -0.70711,2.29291 0,3c0.70711,0.70709 1,1 1,2c0,1 1,1 1,2c0,1 1,1 1,2c0,1 0.29289,1.29291 1,2c0.70711,0.70709 0.29289,1.29291 1,2c0.70711,0.70709 0.29289,1.29291 1,2c0.70711,0.70709 0.29289,1.29291 1,2c0.70711,0.70709 1,1 1,2l1,0" id="svg_81" stroke="#000" fill="none"/>
  <path d="m288,293c1,0 1.29291,0.29291 2,1c0.70709,0.70709 0.29291,1.29291 1,2c0.70709,0.70709 1.29291,0.29291 2,1c0.70709,0.70709 0.61731,1.07611 1,2c0.5412,1.30655 1.61731,1.07611 2,2c0.5412,1.30655 1.29291,1.29291 2,2c0.70709,0.70709 0.29291,1.29291 1,2c0.70709,0.70709 0.29291,1.29291 1,2c0.70709,0.70709 0.29291,2.29291 1,3c0.70709,0.70709 1,1 1,2c0,1 0.29291,1.29291 1,2c0.70709,0.70709 0,2 0,3c0,1 0.29291,1.29291 1,2c0.70709,0.70709 0,2 0,3c0,1 1,1 1,2c0,1 0,2 0,3c0,1 0,2 0,3c0,1 0,2 0,3c0,1 0,2 0,3c0,1 0,2 0,3c0,1 0,2 0,3c0,1 -0.70709,2.29291 0,3c0.70709,0.70709 1,1 1,2c0,1 0,2 0,3c0,1 0,2 0,3c0,1 0,2 0,3c0,1 -0.29291,1.29291 -1,2c-0.70709,0.70709 -0.29291,1.29291 -1,2c-0.70709,0.70709 -0.29291,1.29291 -1,2c-0.70709,0.70709 -0.61731,1.07611 -1,2c-0.5412,1.30655 -1.29291,2.29291 -2,3c-0.70709,0.70709 -1.29291,0.29291 -2,1c-0.70709,0.70709 -2,2 -1,2c1,0 -1,-1 -1,-2l0,-1l-1,0l0,-1" id="svg_82" stroke="#000" fill="none"/>
  <path d="m377,220c0,1 0,2 0,3c0,1 0,3 0,4c0,2 0,5 0,6c0,3 0,5 0,8c0,2 0,5 0,7c0,3 0,6 0,7c0,2 0,4 0,6c0,1 0,2 0,3c0,1 0,2 0,3c0,1 0,0 0,-1c0,-1 0,-2 0,-3c0,-1 0,-2 0,-3c0,-1 0,-3 0,-5c0,-2 0,-5 0,-6c0,-3 0,-5 0,-6c0,-2 0,-3 0,-4c0,-1 0,-2 0,-3c0,-1 0,-2 0,-3c0,-1 0,-2 0,-3c0,-1 0,-2 0,-3c0,-1 0.29291,-2.70711 1,-2c0.70709,0.70711 0.23462,1.15224 1,3c0.5412,1.30656 2.48627,1.82375 3,4c0.4595,1.9465 1,3 2,5c1,2 1.1731,3.85274 2,5c1.30746,1.814 2.4588,3.69344 3,5c0.38269,0.92387 0.29291,2.29289 1,3c0.70709,0.70711 1,1 1,0c0,-1 0.29291,-1.29289 1,-2c1.41422,-1.41422 0.48627,-2.82375 1,-5c0.4595,-1.9465 1.48627,-2.82375 2,-5c0.4595,-1.9465 1.14429,-3.93414 2,-6c1.21014,-2.92157 1.78986,-5.07843 3,-8c0.85571,-2.06586 2,-4 3,-6c1,-2 0.69345,-4.5412 2,-4c0.92389,0.38269 0,2 0,3c0,1 0,2 0,3c0,1 0.48627,2.82375 1,5c0.4595,1.9465 0,3 0,5c0,2 1,4 1,5c0,2 1,4 1,5c0,1 0.4588,2.69344 1,4c0.38269,0.92387 0,2 0,3c0,1 -0.38269,2.07613 0,3c0.5412,1.30656 1,2 1,3c0,1 0,2 0,3c0,1 -0.38269,2.07611 0,3c0.5412,1.30655 1,2 1,3c0,1 0,2 0,3c0,1 0,2 0,3c0,1 1,1 1,2l0,1l0,-1" id="svg_83" stroke="#000" fill="none"/>
  <path d="m420,232c0,1 0.29291,1.29289 1,2c0.70709,0.70711 0.4588,1.69344 1,3c0.38269,0.92387 0.61731,2.07613 1,3c0.5412,1.30656 0.69254,3.186 2,5c0.8269,1.14726 1.69254,3.186 3,5c0.8269,1.14726 1,3 2,5c1,2 2,3 3,5c1,2 2.1731,3.85272 3,5c1.30746,1.814 1.61731,3.07611 2,4c0.5412,1.30655 1,0 1,-1l0,-1l-1,-2l0,-1" id="svg_84" stroke="#000" fill="none"/>
  <path d="m455,235c0,1 -0.77023,1.02675 -1,2c-0.51373,2.17625 -2,3 -3,5c-1,2 -2,3 -3,5c-1,2 -2.48627,2.82375 -3,5c-0.22977,0.97325 -0.77023,2.02675 -1,3c-0.51373,2.17624 -1.61731,3.07611 -2,4c-0.5412,1.30655 -1.4588,1.69345 -2,3c-0.38269,0.92389 -0.4588,1.69345 -1,3c-0.38269,0.92389 -0.29291,2.29291 -1,3c-0.70709,0.70709 -0.29291,1.29291 -1,2c-0.70709,0.70709 -1.4588,0.69345 -2,2c-0.38269,0.92389 -0.61731,3.07611 -1,4c-0.5412,1.30655 -1.4588,1.69345 -2,3c-0.38269,0.92389 -1,2 -1,3c0,1 -1,1 -1,2l0,1l-1,0l0,1" id="svg_85" stroke="#000" fill="none"/>
  <path d="m372,303c1,0 1,1 1,2c0,1 0,2 0,3c0,1 1,2 1,4c0,2 -0.4595,4.0535 0,6c0.51373,2.17624 1,4 1,7c0,3 0,5 0,7c0,2 0,4 0,5c0,2 0,3 0,4c0,1 0,2 0,3c0,1 0,2 0,3c0,1 0,2 0,3c0,1 -1,3 0,3c1,0 0,-2 0,-3c0,-1 0,-3 0,-5c0,-2 0,-4 0,-7c0,-3 0,-5 0,-8c0,-3 0,-6 0,-9c0,-2 0,-5 0,-8c0,-2 0,-3 0,-5c0,-2 0,-3 0,-4c0,-1 0,-2 0,-3c0,-1 0.29291,-1.29291 1,-2c0.70709,-0.70709 0.29291,-1.29291 1,-2c0.70709,-0.70709 0.29291,-1.29291 1,-2c0.70709,-0.70709 2,0 3,0c1,0 2,0 3,0c1,0 1.29291,0.29291 2,1c0.70709,0.70709 1.4588,0.69345 2,2c0.38269,0.92389 1,2 1,3c0,2 0.4588,2.69345 1,4c0.38269,0.92389 0,2 0,3c0,1 0,2 0,3c0,1 0,2 0,3c0,1 0.70709,2.29291 0,3c-0.70709,0.70709 -2.29291,0.29291 -3,1c-0.70709,0.70709 -1,1 -2,2c-1,1 -2,1 -3,2c-1,1 -3.07611,0.61731 -4,1c-1.30655,0.5412 -2.29291,1.70709 -3,1c-0.70709,-0.70709 -1,-1 -1,-2l-1,0" id="svg_86" stroke="#000" fill="none"/>
  <path d="m404,319c0,1 0,2 0,3c0,1 0,2 0,4c0,2 0,4 0,5c0,2 0,4 0,5c0,2 0,4 0,5c0,2 0,3 0,4c0,1 0,2 0,3c0,1 -1,3 0,3c1,0 0,-2 0,-3c0,-1 0,-2 0,-4c0,-2 0.48627,-2.82376 1,-5c0.4595,-1.9465 0,-4 0,-7c0,-2 0,-4 0,-6c0,-2 1,-3 1,-5c0,-1 0.29291,-1.29291 1,-2c0.70709,-0.70709 1,-1 2,-1c1,0 2.07611,-0.61731 3,-1c1.30655,-0.5412 2,-1 3,-1c1,0 2,0 3,0c1,0 2,1 3,1l1,0l1,0" id="svg_87" stroke="#000" fill="none"/>
  <path d="m448,318c0,-1 -1,-1 -2,-1c-1,0 -2,0 -3,0c-1,0 -1.61731,0.07611 -2,1c-0.5412,1.30655 -1.29291,2.29291 -2,3c-0.70709,0.70709 -2,2 -3,3c-2,2 -3,3 -5,5c-1,1 -1.69254,2.186 -3,4c-0.8269,1.14728 -1,2 -1,3c0,2 0,3 0,4c0,2 0.61731,3.07611 1,4c0.5412,1.30655 1.29291,1.29291 2,2c0.70709,0.70709 1,1 2,1c1,0 2,0 3,0c1,0 2,0 3,0c2,0 2.82376,-0.48627 5,-1c0.97324,-0.22977 1.29291,-0.29291 2,-1c0.70709,-0.70709 0.69345,-1.4588 2,-2c0.92389,-0.38269 0.69254,-1.186 2,-3c0.8269,-1.14728 1,-3 2,-4c1,-1 2,-3 2,-4c0,-1 1,-2 1,-3c0,-1 -0.29291,-1.29291 -1,-2c-0.70709,-0.70709 -1,-2 -2,-3c-1,-1 -1.61731,-1.07611 -2,-2c-0.5412,-1.30655 -2,-2 -3,-3l-1,-1l-1,-1" id="svg_88" stroke="#000" fill="none"/>
  <path d="m484,306c0,-1 -0.29291,-1.29291 -1,-2c-0.70709,-0.70709 -0.29291,-1.29291 -1,-2c-0.70709,-0.70709 -0.69345,-1.4588 -2,-2c-0.92389,-0.38269 -2,0 -3,0c-1,0 -1.07611,0.61731 -2,1c-1.30655,0.5412 -2.85272,3.1731 -4,4c-1.814,1.30746 -3,2 -4,3c-1,1 -1,2 -1,3c0,1 0,2 0,3c0,1 0,2 0,4c0,2 0.48627,2.82376 1,5c0.4595,1.9465 0,4 0,6c0,1 0.22977,3.02676 0,4c-0.51373,2.17624 -1,3 -1,4c0,2 0,3 0,5c0,2 0,4 0,6c0,1 0,2 0,4c0,1 0,0 0,-1l0,-1l0,-1l0,-1" id="svg_89" stroke="#000" fill="none"/>
  <path d="m459,329c1,0 2,0 3,0c1,0 2,0 4,0c1,0 3,0 4,0c2,0 3,0 4,0c1,0 2,0 3,0l1,0l1,0" id="svg_90" stroke="#000" fill="none"/>
  <path d="m489,325c1,0 1,1 1,2c0,1 1,1 1,2c0,1 0,2 0,3c0,1 0,2 0,3c0,1 0,2 0,3c0,1 0,2 0,3c0,1 -0.29291,1.29291 -1,2c-0.70709,0.70709 0,2 0,3l0,1l0,1" id="svg_91" stroke="#000" fill="none"/>
  <path d="m489,311c0,-1 1.29291,-1.70709 2,-1c0.70709,0.70709 -1,1 -2,1l0,-1l0,1l-1,0" id="svg_92" stroke="#000" fill="none"/>
  <path d="m507,304c0,1 0,2 0,3c0,1 0,2 0,3c0,1 0,2 0,3c0,1 0,2 0,3c0,1 0,2 0,3c0,2 0,3 0,4c0,2 0,3 0,4c0,1 0,2 0,3c0,1 0,2 0,3c0,1 0,2 0,3c0,1 0,2 0,3c0,1 0,2 0,3c0,1 0.29291,1.29291 1,2c0.70709,0.70709 0,2 0,3c0,1 0,2 0,3l0,1l0,1" id="svg_93" stroke="#000" fill="none"/>
  <path d="m519,332c0,1 1.29291,0.29291 2,1c0.70709,0.70709 0.69342,1.4588 2,2c0.92389,0.38269 2,1 3,1c1,0 2,0 3,0c1,0 2,0 3,0c1,0 1.29291,-0.29291 2,-1c0.70709,-0.70709 1,-1 1,-2c0,-1 1,-1 1,-2c0,-1 0.29291,-1.29291 1,-2c0.70709,-0.70709 0,-2 0,-3c0,-1 1,-1 1,-2c0,-1 0,-2 0,-3c0,-1 -0.29291,-1.29291 -1,-2c-0.70709,-0.70709 -1.29291,-0.29291 -2,-1c-0.70709,-0.70709 -2,0 -3,0c-1,0 -2,0 -3,0c-1,0 -1,1 -2,1c-1,0 -1.29291,0.29291 -2,1c-0.70709,0.70709 -0.29291,1.29291 -1,2c-0.70709,0.70709 -1,1 -1,2c0,1 -1,1 -1,2c0,1 0.70709,2.29291 0,3c-0.70709,0.70709 -1,1 -1,2c0,1 0,2 0,3c0,1 0,2 0,3c0,1 0,2 0,3c0,1 0.29291,1.29291 1,2c0.70709,0.70709 -0.70709,2.29291 0,3c0.70709,0.70709 1,1 1,2c0,1 0.61731,1.07611 1,2c0.5412,1.30655 1.29291,1.29291 2,2c0.70709,0.70709 1.29291,1.29291 2,2c0.70709,0.70709 0,2 1,2c1,0 1,1 2,1c1,0 2,0 3,0c1,0 2.29291,0.70709 3,0c0.70709,-0.70709 0.69342,-1.4588 2,-2c0.92389,-0.38269 2.07611,-0.61731 3,-1c1.30658,-0.5412 1.29291,-1.29291 2,-2c0.70709,-0.70709 0,-2 0,-3l0,-1l0,-1l1,0" id="svg_94" stroke="#000" fill="none"/>
  <path d="m245,267c1,0 1,-1 2,-1c1,0 2.29289,0.70709 3,0c0.70711,-0.70709 1,-1 2,-1c1,0 2,0 3,0c1,0 2,0 3,0l0,1" id="svg_99" stroke="#000" fill="none"/>
  <path d="m270,265c1,0 1.29291,-0.29291 2,-1c0.70709,-0.70709 2,0 3,0c1,0 2,0 3,0c1,0 1,1 2,1c1,0 1.29291,0.29291 2,1c0.70709,0.70709 2,0 2,1l1,0" id="svg_100" stroke="#000" fill="none"/>
  <path d="m256,282c0,1 -1,1 -1,2c0,1 0.29289,1.29291 1,2c0.70709,0.70709 0,2 1,2c1,0 1.29291,0.29291 2,1c0.70709,0.70709 1.29291,0.29291 2,1c0.70709,0.70709 1,1 2,1c1,0 2,0 3,0c1,0 2,0 3,0c1,0 1.29291,-0.29291 2,-1c0.70709,-0.70709 0.29291,-1.29291 1,-2c0.70709,-0.70709 0.29291,-1.29291 1,-2c0.70709,-0.70709 1,-1 1,-2l0,-1" id="svg_101" stroke="#000" fill="none"/>
 </g>

</svg>