<svg width="800" height="600" xmlns="http://www.w3.org/2000/svg">
 <g>
  <title>Layer 1</title>
  <path d="m115,599c1,0 1,-1 2,-1c1,0 2,-1 3,-1c1,0 2.15224,-0.23462 4,-1c1.30656,-0.5412 3.02583,-1.67963 5,-2c3.12144,-0.50653 4.82375,-1.48627 7,-2c1.9465,-0.45953 3.82375,-1.48627 6,-2c1.9465,-0.45953 3.82375,-1.48627 6,-2c0.97325,-0.22974 2,-1 3,-1c2,0 3,-1 4,-1c1,0 2,-1 3,-1c1,0 3.02675,-0.77026 4,-1c2.17625,-0.51373 3.87856,-2.49347 7,-3c1.97418,-0.32037 4.93414,-1.14429 7,-2c2.92157,-1.21014 4.82375,-2.48627 7,-3c2.91975,-0.68927 4.87856,-1.49347 8,-2c1.97418,-0.32037 4.02582,-0.67963 6,-1c3.12144,-0.50653 5.02582,-1.67963 7,-2c3.12144,-0.50653 4.82375,-2.48627 7,-3c1.9465,-0.45953 5.07843,-0.78986 8,-2c2.06586,-0.85571 5.02582,-1.67963 7,-2c3.12144,-0.50653 4.87856,-2.49347 8,-3c1.97418,-0.32037 3.87856,-1.49347 7,-2c1.97418,-0.32037 5.03874,-1.51947 8,-2c3.12144,-0.50653 6.07843,-1.78986 9,-3c4.13171,-1.71143 7,-3 10,-4c3,-1 6.90283,-3.22418 9,-4c3.867,-1.43048 6.07843,-1.78986 9,-3c2.06586,-0.85571 4.87857,-2.49347 8,-3c1.97418,-0.32037 3.96384,-2.11584 7,-3c3.95868,-1.15277 6,-2 9,-3c3,-1 6,-2 9,-3c3,-1 6,-2 9,-3c3,-1 6.04132,-1.84723 10,-3c3.03616,-0.88416 6,-2 9,-3c3,-1 7,-2 10,-3c3,-1 6.133,-1.56952 10,-3c4.19434,-1.55157 6.04132,-2.84723 10,-4c3.03616,-0.88412 5.70267,-2.54135 9,-4c3.77063,-1.66803 6,-2 10,-3c4,-1 6.80566,-2.44839 11,-4c3.867,-1.43048 8.76993,-2.54861 13,-4c4.82303,-1.65482 10,-3 15,-5c5,-2 9.80566,-3.44839 14,-5c3.867,-1.43048 9.07843,-2.78986 12,-4c4.13171,-1.71143 8,-3 12,-4c4,-1 8,-3 12,-4c4,-1 7.76993,-2.54861 12,-4c4.82303,-1.65482 8.80566,-2.44839 13,-4c3.867,-1.43048 7.04132,-1.84723 11,-3c3.03619,-0.88412 5.93414,-2.14429 8,-3c2.92157,-1.21014 6,-2 9,-3c3,-1 6.04132,-1.84723 10,-3c3.03619,-0.88412 7.07843,-1.78986 10,-3c4.13171,-1.71143 7.05164,-2.35928 11,-3c3.12146,-0.50653 6.07843,-1.78986 9,-3c2.06586,-0.85571 5,-2 8,-3c3,-1 6.05164,-1.35928 10,-2c3.12146,-0.50653 6.05164,-2.35928 10,-3c3.12146,-0.50653 6.96381,-2.11588 10,-3c3.95868,-1.15277 7,-2 11,-3c4,-1 7.03876,-1.51944 10,-2c3.12146,-0.50653 6.08026,-1.31073 9,-2c2.17627,-0.51373 4.87854,-2.49347 8,-3c1.97418,-0.32037 6,-1 9,-2c3,-1 6,-2 9,-3c3,-1 4.93414,-1.14429 7,-2c2.92157,-1.21014 3.82373,-1.48627 6,-2c0.97327,-0.22977 2,-1 3,-1c1,0 1,-1 2,-1c1,0 2.02673,-0.77023 3,-1c2.17627,-0.51373 3.82373,-1.48627 6,-2c2.91974,-0.68927 6.02582,-0.67963 8,-1c3.12146,-0.50653 5.08026,-1.31073 8,-2c2.17627,-0.51373 3.82373,-1.48627 6,-2c1.94647,-0.4595 3,-1 4,-1c1,0 2.07611,-0.61731 3,-1c1.30658,-0.5412 2.07611,-0.61731 3,-1c1.30658,-0.5412 3.82373,-1.48627 6,-2c2.91974,-0.68927 4.87854,-1.49347 8,-2c1.97418,-0.32037 4.93414,-1.14429 7,-2c2.92157,-1.21014 4.69342,-1.4588 6,-2c1.84778,-0.76538 2.69342,-0.4588 4,-1c0.92389,-0.38269 2,-1 3,-1c1,0 2.15222,-0.23462 4,-1c1.30658,-0.5412 3.18604,-0.69254 5,-2c1.14728,-0.8269 2.29291,-0.29291 3,-1c0.70709,-0.70709 1,-1 2,-1c1,0 1,-1 2,-1c1,0 2.29291,0.70709 3,0c0.70709,-0.70709 1,-1 2,-1c1,0 1.29291,-0.29291 2,-1c0.70709,-0.70709 1.29291,-0.29291 2,-1c0.70709,-0.70709 2.07611,0.38269 3,0c1.30658,-0.5412 2.02673,-0.77023 3,-1c2.17627,-0.51373 3,-1 4,-1l0,-1l1,0" id="svg_38" stroke="#000" fill="none"/>
  <path d="m103,75c0,1 0,2 0,3c0,1 1,2 1,4c0,2 0.31074,4.08025 1,7c0.51374,2.17625 1.49346,4.87856 2,8c0.48055,2.96127 1.48626,5.82375 2,8c0.68926,2.91975 0.31074,5.08025 1,8c0.51374,2.17625 0.5405,4.0535 1,6c0.51374,2.17625 1,4 1,5c0,2 0,3 0,4c0,1 0,2 0,3c0,1 0,2 0,1c0,-1 -1.2565,-1.797 -2,-3c-1.66251,-2.68999 -2,-5 -3,-8c-1,-3 -1.5695,-5.133 -3,-9c-0.77579,-2.09718 -1.75563,-6.01498 -2,-8c-0.50378,-4.09222 -1.49622,-5.90778 -2,-10c-0.36655,-2.97752 0,-6 0,-9c0,-2 0,-5 0,-7c0,-2 0,-4 0,-6c0,-2 0,-3 0,-4c0,-1 0.29289,-1.29289 1,-2c0.70711,-0.70711 0.69344,-2.45881 2,-3c0.92388,-0.38268 1.07612,-0.61732 2,-1c1.30656,-0.54119 2,-1 3,-2c1,-1 2,-1 3,-2c1,-1 3.02675,-1.77025 4,-2c2.17625,-0.51374 4.69344,-2.45881 6,-3c2.77164,-1.14805 4.82375,-1.48626 7,-2c0.97325,-0.22975 2.69344,-0.45881 4,-1c0.92387,-0.38268 2,0 3,0c1,0 2,0 3,0c1,0 1.14935,0.47427 2,1c1.90211,1.17557 2.41885,2.41886 4,4c1.58115,1.58114 2,3 3,5c1,2 2.14429,3.93414 3,6c1.21014,2.92156 1.48625,4.82375 2,7c0.4595,1.9465 0,4 0,6c0,1 0.38269,2.07612 0,3c-0.5412,1.30656 -1.29289,1.29289 -2,2c-0.70711,0.70711 -1.07613,1.61732 -2,2c-1.30656,0.5412 -2.85274,2.1731 -4,3c-1.814,1.30745 -3.85274,2.1731 -5,3c-1.814,1.30745 -4.186,0.69255 -6,2c-1.14726,0.8269 -2.186,0.69255 -4,2c-1.14727,0.8269 -2.07612,0.61732 -3,1c-1.30656,0.5412 -1.82375,1.48626 -4,2c-0.97325,0.22975 -3.02675,0.77025 -4,1c-2.17625,0.51374 -2.69344,1.4588 -4,2c-0.92388,0.38268 -2,1 -1,1c1,0 1.82375,-0.48626 4,-1c0.97325,-0.22975 3,-1 4,-1c1,0 3,0 4,0c1,0 3,0 4,0c1,0 2.85274,1.1731 4,2c1.814,1.30745 3.85274,2.1731 5,3c1.814,1.30745 3.59399,2.51301 6,4c2.68999,1.66251 5.61104,1.92807 8,4c1.68924,1.46507 2.69255,3.186 4,5c0.8269,1.14727 2.69255,3.186 4,5c0.8269,1.14727 2.48625,1.82375 3,4c0.22975,0.97325 1.4588,2.69344 2,4c0.38269,0.92387 1,1 1,2l1,0l1,0" id="svg_39" stroke="#000" fill="none"/>
  <path d="m172,98c1,0 2.02675,-0.22975 3,0c2.17625,0.51374 4,1 7,1c2,0 5,1 8,1c3,0 6.87856,0.49346 10,1c2.96126,0.48055 4.82375,-0.48626 7,-1c0.97325,-0.22975 1.29289,-0.29289 2,-1c0.70711,-0.70711 0,-2 0,-3c0,-1 0.48625,-1.82375 1,-4c0.22975,-0.97325 0,-3 0,-4c0,-1 0,-3 -1,-4c-1,-1 -2.4588,-1.69344 -3,-3c-0.38269,-0.92388 -1.29289,-1.29289 -2,-2c-0.70711,-0.70711 -2,0 -3,0c-1,0 -2,0 -3,0c-1,0 -3,1 -4,2c-1,1 -3.1731,1.85273 -4,3c-1.30745,1.814 -2,3 -3,5c-1,2 -2,3 -3,5c-1,2 -1.4588,3.69344 -2,5c-0.76537,1.84776 0,4 0,7c0,2 0.78986,4.07844 2,7c0.85571,2.06586 3,4 5,6c2,2 3.61383,3.297 6,6c1.47984,1.67633 3.38687,3.9176 6,5c0.92387,0.38269 3,1 4,1c2,0 3.0535,0.4595 5,0c2.17625,-0.51375 4.45049,-2.45049 7,-5c2.54951,-2.54951 5,-6 8,-8l3,-4l2,-2" id="svg_40" stroke="#000" fill="none"/>
  <path d="m244,79c0,1 0,2 0,4c0,2 0.48625,4.82375 1,7c0.91901,3.893 1,7 1,11c0,3 1,6 1,9c0,3 -0.4595,5.0535 0,7c0.51375,2.17625 1,3 1,4c0,1 -1,3 0,3c1,0 0,-2 0,-3c0,-1 0,-4 0,-6c0,-3 -0.64073,-6.05165 0,-10c0.50655,-3.12144 2.49623,-6.90778 3,-11c0.48874,-3.97003 1,-7 2,-10c1,-3 0.71413,-5.21168 3,-8c0.89661,-1.09367 1.69345,-2.4588 3,-3c0.92389,-0.38268 1,-1 2,-1c1,0 3,0 4,0c1,0 3.07611,0.61732 4,1c1.30655,0.5412 3,2 4,4c1,2 2,4 3,7c1,3 2.49347,5.87856 3,9c0.48056,2.96127 1,7 1,10c0,4 1,7 1,10c0,4 1,6 1,8c0,1 0,0 0,-1l0,-1" id="svg_41" stroke="#000" fill="none"/>
  <path d="m305,46c0,1 0,2 0,4c0,2 0,4 0,7c0,2 0.49347,5.87856 1,9c0.8009,4.93544 0.49756,8.9258 1,14c0.49268,4.97567 0,10 0,15c0,4 1,10 1,14c0,5 0,9 0,13c0,3 0,4 0,6l1,0l0,-1l0,-1" id="svg_42" stroke="#000" fill="none"/>
  <path d="m287,74c1,0 3,0 5,0c3,0 5,1 7,1c2,0 5,0 8,0c2,0 6.02997,0.48873 10,0c4.09222,-0.50378 8,-1 11,-2l1,0" id="svg_43" stroke="#000" fill="none"/>
  <path d="m363,84c-1,0 -1,-1 -2,-1c-1,0 -3,0 -4,0c-2,0 -4,0 -6,0c-2,0 -4,0 -6,1c-2,1 -4.31,1.33749 -7,3c-1.203,0.7435 -4,3 -5,4c-2,2 -3.48627,3.82375 -4,6c-0.4595,1.9465 0,5 0,7c0,2 -0.4595,4.0535 0,6c0.51373,2.17625 1.69254,3.186 3,5c0.8269,1.14727 1.29291,1.29289 2,2c1.41422,1.41422 3,1 4,1c2,0 4,0 6,0c2,0 5.08026,0.68926 8,0c2.17624,-0.51374 4.186,-1.69255 6,-3c2.29453,-1.65381 4.41589,-3.76108 6,-7c1.38934,-2.84072 3.49347,-5.87856 4,-9c0.48056,-2.96127 0.5405,-6.0535 1,-8c0.51373,-2.17625 1,-4 1,-6c0,-1 1,-1 1,-2c0,-1 -0.69254,1.186 -2,3c-0.8269,1.14727 -1.14429,3.93414 -2,6c-1.21014,2.92156 -1,5 -1,8c0,2 0,4 0,6c0,1 0.4588,1.69344 1,3c0.38269,0.92388 0.29291,1.29289 1,2c0.70709,0.70711 1.29291,0.29289 2,1c1.41422,1.41422 4,0 7,0l3,0l2,0" id="svg_44" stroke="#000" fill="none"/>
  <path d="m390,58c1,0 1,1 1,2c0,1 1,3 1,4c0,3 1,5 1,7c0,4 1,6 1,10c0,3 0.67007,7.01363 1,11c0.50171,6.06203 2.08075,10.98453 3,16c1.09662,5.9831 1.88135,10.02521 3,15c0.90457,4.02266 1,8 2,9l0,2" id="svg_45" stroke="#000" fill="none"/>
  <path d="m472,68c0,1 0,2 0,3c0,2 0,5 0,7c0,3 0.49347,6.87856 1,10c0.8009,4.93544 0.51126,8.02997 1,12c0.50378,4.09222 1.70438,9.0146 2,12c0.50244,5.0742 1.49347,8.87856 2,12c0.48056,2.96127 0,6 0,7l0,1" id="svg_46" stroke="#000" fill="none"/>
  <path d="m473,101c1,0 2,0 3,0c2,0 4.02582,0.32037 6,0c3.12143,-0.50654 4.90778,-1.49622 9,-2c1.98502,-0.24437 4.87857,-0.49346 8,-1c2.96127,-0.48055 5,0 6,0c1,0 2,0 3,0l0,1l1,0l0,1" id="svg_47" stroke="#000" fill="none"/>
  <path d="m510,64c0,1 -0.38269,2.07612 0,3c0.5412,1.30656 1.49347,2.87856 2,6c0.32037,1.97417 0.51947,5.03873 1,8c0.50653,3.12144 2.49347,5.87856 3,9c0.64075,3.94835 0.08099,6.107 1,10c0.51373,2.17625 2,5 2,8c0,2 0.48627,4.82375 1,7c0.22974,0.97325 0,3 0,4l0,1l1,1l0,1" id="svg_48" stroke="#000" fill="none"/>
  <path d="m540,93c0,1 0.29291,1.29289 1,2c0.70709,0.70711 0,2 0,3c0,1 0,2 0,4c0,2 0,3 0,5c0,2 1,5 1,7c0,3 0.48627,4.82375 1,7c0.22974,0.97325 0,2 0,3l0,-1" id="svg_49" stroke="#000" fill="none"/>
  <path d="m540,73c0,-1 0,-2 1,-2c1,0 2,0 2,1c0,1 0,2 -1,2c-1,0 -2,0 -3,0c-1,0 -2.70709,-0.29289 -2,-1c0.70709,-0.70711 1,-1 2,-1c1,0 1.70709,0.70711 1,0c-0.70709,-0.70711 1,-1 2,-1l-1,0" id="svg_50" stroke="#000" fill="none"/>
  <path d="m579,89c-1,0 -1,-1 -2,-1c-1,0 -1.29291,-0.29289 -2,-1c-0.70709,-0.70711 -2,0 -3,0c-1,0 -2,0 -3,0c-1,0 -2.07611,-0.38268 -3,0c-1.30658,0.5412 -2,1 -3,2c-1,1 -1.29291,2.29289 -2,3c-0.70709,0.70711 -2.29291,0.29289 -3,1c-0.70709,0.70711 0,2 0,3c0,1 -0.70709,2.29289 0,3c0.70709,0.70711 1.29291,0.29289 2,1c0.70709,0.70711 0.29291,1.29289 1,2c0.70709,0.70711 0.61731,1.07612 1,2c0.5412,1.30656 2,1 3,2c1,1 2.4588,0.69344 3,2c0.38269,0.92388 0.29291,1.29289 1,2c0.70709,0.70711 0.29291,1.29289 1,2c0.70709,0.70711 0.29291,1.29289 1,2c0.70709,0.70711 1,1 1,2c0,1 0,2 0,3c0,1 0,2 0,3c0,1 -0.29291,1.29289 -1,2c-0.70709,0.70711 -1.29291,0.29289 -2,1c-0.70709,0.70711 -1.29291,0.29289 -2,1c-0.70709,0.70711 -1,1 -2,1c-1,0 -2,0 -3,0c-1,0 -1.07611,-0.61732 -2,-1c-1.30658,-0.5412 -1.69342,-2.4588 -3,-3c-0.92389,-0.38268 -2,-1 -3,-2l0,-1" id="svg_51" stroke="#000" fill="none"/>
  <path d="m597,70c1,0 1,1 1,2c0,1 0,3 0,6c0,3 0,6 0,9c0,4 0,7 0,12c0,3 0,8 0,12c0,4 -0.49347,7.87856 -1,11c-0.32037,1.97417 0,4 0,6c0,1 0,0 -1,0l0,-1l-1,-1l0,-1" id="svg_52" stroke="#000" fill="none"/>
  <path transform="rotate(0.988939, 602.5, 82.9288)" d="m583,84c1,0 2,0 3,0c1,0 3,0 5,0c2,0 3,0 5,0c1,0 2.82373,-0.48626 5,-1c0.97327,-0.22975 3,0 5,0c2,0 3.87854,-0.49346 7,-1c1.97418,-0.32037 4,0 6,0l1,0l1,0l1,0" id="svg_53" stroke="#000" fill="none"/>
  <path d="m637,97c-1,0 -2,0 -3,0c-1,0 -2,0 -3,0c-1,0 -2,1 -3,1c-1,0 -2.07611,0.61732 -3,1c-1.30658,0.5412 -2.29291,0.29289 -3,1c-0.70709,0.70711 -1.29291,0.29289 -2,1c-0.70709,0.70711 -0.61731,1.07612 -1,2c-0.5412,1.30656 -1,2 -2,3c-1,1 -1.4588,1.69344 -2,3c-0.38269,0.92388 -1,1 -1,2c0,1 0,2 0,3c0,1 0.38269,2.07612 0,3c-0.5412,1.30656 -1,2 -1,3c0,1 -0.38269,2.07612 0,3c0.5412,1.30656 1.07611,1.61732 2,2c1.30658,0.5412 1,2 2,2c1,0 1.29291,0.29289 2,1c0.70709,0.70711 2,0 3,0c1,0 2,0 4,0c1,0 3,0 4,0c1,0 2,0 3,0c1,0 1.15222,-0.23463 3,-1c1.30658,-0.5412 3,-1 5,-2c2,-1 2.3869,-2.91761 5,-4c0.92389,-0.38268 1.29291,-0.29289 2,-1c0.70709,-0.70711 0.4588,-1.69344 1,-3c0.38269,-0.92388 1,-3 1,-4c0,-2 0.54047,-4.0535 1,-6c0.51373,-2.17625 1,-4 1,-6c0,-1 0.38269,-3.07612 0,-4c-0.5412,-1.30656 -2.02673,-1.77025 -3,-2c-2.17627,-0.51374 -3,-1 -4,-1c-1,0 -1,-1 -2,-1c-1,0 -2,0 -3,0l-1,0l-1,0" id="svg_54" stroke="#000" fill="none"/>
  <path d="m666,97c0,1 0,2 0,3c0,2 0,3 0,6c0,2 0,5 0,7c0,2 0,4 0,5c0,1 -1,3 0,3c1,0 0,-2 0,-3c0,-1 -0.70709,-2.29289 0,-3c0.70709,-0.70711 1,-1 1,-2c0,-1 0.4588,-1.69344 1,-3c0.76538,-1.84776 0.61731,-3.07612 1,-4c0.5412,-1.30656 1.4588,-2.69344 2,-4c0.38269,-0.92388 1,-3 2,-4c1,-1 1.29291,-1.29289 2,-2c0.70709,-0.70711 1.29291,-0.29289 2,-1c0.70709,-0.70711 1,-1 3,-1c2,0 3.07611,0.38268 4,0c1.30658,-0.5412 2,-1 3,-1l1,0l1,0l1,0" id="svg_55" stroke="#000" fill="none"/>
  <path d="m707,90c-1,0 -0.5412,0.69344 0,2c0.38269,0.92388 1.1731,1.85273 2,3c1.30743,1.814 3,4 5,6c2,2 4,4 6,6c2,2 4,4 6,6l1,1l2,1" id="svg_56" stroke="#000" fill="none"/>
  <path d="m749,84c-1,0 -1.4588,0.69344 -2,2c-0.38269,0.92388 -0.61731,1.07612 -1,2c-0.5412,1.30656 -1.23462,2.15224 -2,4c-0.5412,1.30656 -1.69257,2.186 -3,4c-0.8269,1.14727 -1.61731,2.07612 -2,3c-0.5412,1.30656 -1.29291,1.29289 -2,2c-0.70709,0.70711 -1,1 -1,2c0,1 -1,1 -1,2c0,1 -0.29291,1.29289 -1,2c-0.70709,0.70711 -1.4588,0.69344 -2,2c-0.38269,0.92388 -0.61731,1.07612 -1,2c-0.5412,1.30656 -1.29291,1.29289 -2,2c-0.70709,0.70711 -0.29291,1.29289 -1,2c-0.70709,0.70711 -0.29291,1.29289 -1,2c-0.70709,0.70711 -1.29291,0.29289 -2,1c-0.70709,0.70711 -0.29291,2.29289 -1,3c-0.70709,0.70711 -1.4588,0.69344 -2,2c-0.38269,0.92388 -0.29291,1.29289 -1,2c-0.70709,0.70711 -0.29291,1.29289 -1,2c-0.70709,0.70711 -1.4588,0.69344 -2,2c-0.38269,0.92387 -0.29291,1.29289 -1,2c-0.70709,0.70711 -1.29291,0.29289 -2,1c-0.70709,0.70711 -0.29291,1.29289 -1,2c-0.70709,0.70711 -0.29291,1.29289 -1,2c-0.70709,0.70711 -0.29291,1.29289 -1,2c-0.70709,0.70711 -1.29291,0.29289 -2,1c-0.70709,0.70711 -0.69342,2.4588 -2,3c-0.92389,0.38269 -0.29291,1.29289 -1,2c-0.70709,0.70711 -1.29291,0.29289 -2,1c-0.70709,0.70711 -1.29291,1.29289 -2,2c-0.70709,0.70711 -1,1 -1,2l-1,0" id="svg_57" stroke="#000" fill="none"/>
  <path d="m368,303c-1,0 -1.69345,-0.4588 -3,-1c-0.92389,-0.38269 -2,0 -3,0c-1,0 -2,0 -3,0c-1,0 -2,0 -3,0c-2,0 -3,0 -4,0c-1,0 -2,0 -3,0c-1,0 -2.07611,-0.38269 -3,0c-1.30655,0.5412 -2,1 -3,1c-1,0 -1.29291,0.29291 -2,1c-0.70709,0.70709 -2.29291,-0.70709 -3,0c-0.70709,0.70709 -1,1 -2,1c-1,0 -1.69345,1.4588 -3,2c-1.84775,0.76538 -2.82376,1.48627 -5,2c-0.97324,0.22977 -1.69345,1.4588 -3,2c-1.84775,0.76538 -2.85272,1.1731 -4,2c-1.814,1.30746 -3,2 -5,3c-2,1 -3,3 -4,4c-1,1 -2.186,1.69254 -4,3c-1.14728,0.8269 -2.4588,0.69345 -3,2c-0.38269,0.92389 -1.07611,1.61731 -2,2c-1.30655,0.5412 -1.61731,1.07611 -2,2c-0.5412,1.30655 -2.07611,1.61731 -3,2c-1.30655,0.5412 -1,2 -2,3c-1,1 -1,2 -2,3c-1,1 -1.61731,1.07611 -2,2c-0.5412,1.30655 -1.29291,1.29291 -2,2c-0.70709,0.70709 -1,1 -1,2c0,1 -1,1 -1,2c0,1 -1,1 -1,2c0,1 -1,1 -1,2c0,1 -0.29291,1.29291 -1,2c-0.70709,0.70709 0,2 0,3c0,1 -0.29291,1.29291 -1,2c-0.70709,0.70709 0,2 0,3c0,1 -0.4588,1.69345 -1,3c-0.38269,0.92389 0.76538,2.15225 0,4c-0.5412,1.30655 -1,2 -1,3c0,1 0,2 0,3c0,1 0,2 0,3c0,1 0,2 0,3c0,1 1,1 1,2c0,1 -0.70709,2.29291 0,3c0.70709,0.70709 0.29291,1.29291 1,2c0.70709,0.70709 1.4588,0.69345 2,2c0.38269,0.92389 0.77023,2.02676 1,3c0.51373,2.17624 1.69345,3.4588 3,4c0.92389,0.38269 1.4588,0.69345 2,2c0.38269,0.92389 1.07611,1.61731 2,2c1.30655,0.5412 1,2 2,2c1,0 2.07611,0.61731 3,1c1.30655,0.5412 1.29291,1.29291 2,2c0.70709,0.70709 1.69345,0.4588 3,1c0.92389,0.38269 2,1 3,1c1,0 2,1 3,1c1,0 2,1 3,1c2,0 2.82376,0.48627 5,1c1.9465,0.4595 3,0 4,0c2,0 2.69345,0.4588 4,1c0.92389,0.38269 3,0 4,0c1,0 2,0 4,0c2,0 4,0 6,0c2,0 5.02676,0.22977 6,0c2.17624,-0.51373 4,-1 6,-1c2,0 4,0 5,0c2,0 2.69345,-0.4588 4,-1c1.84775,-0.76538 2.82376,-0.48627 5,-1c1.9465,-0.4595 2.87857,-1.49347 6,-2c0.98709,-0.16019 4.186,-0.69254 6,-2c1.14728,-0.8269 3.29291,-0.29291 4,-1c0.70709,-0.70709 1.29291,-0.29291 2,-1c0.70709,-0.70709 1,-1 2,-1c1,0 1.07611,-0.61731 2,-1c1.30655,-0.5412 1.82376,-2.48627 4,-3c0.97324,-0.22977 1.85272,-1.1731 3,-2c1.814,-1.30746 3.29291,-1.29291 4,-2c0.70709,-0.70709 1,-1 2,-2c1,-1 2.29291,-1.29291 3,-2c0.70709,-0.70709 2.1731,-1.85272 3,-3c1.30746,-1.814 1.85272,-2.1731 3,-3c1.814,-1.30746 2.85272,-2.1731 4,-3c1.814,-1.30746 2.61731,-2.07611 3,-3c0.5412,-1.30655 2,-2 2,-3c0,-2 1,-3 1,-4c0,-2 0.48627,-2.82376 1,-5c0.4595,-1.9465 0.48627,-2.82376 1,-5c0.4595,-1.9465 1,-3 1,-5c0,-1 1,-2 1,-3c0,-1 0,-2 0,-3c0,-1 0,-2 0,-3c0,-1 0,-2 0,-3c0,-1 0,-2 0,-3c0,-1 -0.48627,-1.82376 -1,-4c-0.22977,-0.97324 -1.4588,-1.69345 -2,-3c-0.38269,-0.92389 -0.61731,-2.07611 -1,-3c-0.5412,-1.30655 -2.4588,-1.69345 -3,-3c-0.38269,-0.92389 -1.4588,-1.69345 -2,-3c-0.38269,-0.92389 -1,-2 -2,-3c-1,-1 -2.0979,-2.82443 -4,-4c-0.85065,-0.52573 -2.69345,-1.4588 -4,-2c-0.92389,-0.38269 -2.29291,-0.29291 -3,-1c-0.70709,-0.70709 -0.69345,-1.4588 -2,-2c-0.92389,-0.38269 -1,-1 -2,-1c-1,0 -1.69345,-1.4588 -3,-2c-1.84775,-0.76538 -3.82376,-1.48627 -6,-2c-0.97324,-0.22977 -3.02676,-0.77023 -4,-1c-2.17624,-0.51373 -3,-1 -4,-1c-1,0 -1,-1 -2,-1c-1,0 -1.69345,-0.4588 -3,-1c-1.84775,-0.76538 -4.22836,1.14804 -7,0c-1.30655,-0.5412 -3,-1 -5,-1l-1,0l-1,0" id="svg_58" stroke="#000" fill="none"/>
  <path d="m297,398c0,1 -1,2 -1,3c0,1 -1,1 -1,2c0,1 -1,1 -1,2c0,1 -0.61731,2.07611 -1,3c-0.5412,1.30655 -1.1731,1.85272 -2,3c-1.30746,1.814 -1.48627,2.82376 -2,5c-0.22977,0.97324 -0.4588,1.69345 -1,3c-0.38269,0.92389 -1,1 -1,2c0,1 -0.29291,1.29291 -1,2c-0.70709,0.70709 0.38269,2.07611 0,3c-0.5412,1.30655 -1.29291,1.29291 -2,2c-0.70709,0.70709 -0.4588,1.69345 -1,3c-0.38269,0.92389 -0.4588,1.69345 -1,3c-0.38269,0.92389 -0.4588,1.69345 -1,3c-0.38269,0.92389 -0.4588,1.69345 -1,3c-0.38269,0.92389 0.70709,2.29291 0,3c-0.70709,0.70709 -1,1 -1,2c0,1 0.70709,2.29291 0,3c-0.70709,0.70709 -1,1 -1,2c0,1 0,2 0,3c0,1 -1,1 -1,2c0,1 0,2 0,3c0,1 0.70709,2.29291 0,3c-0.70709,0.70709 -1,2 -1,3c0,1 0,2 0,3c0,1 0,2 0,3c0,1 -0.29291,1.29291 -1,2c-1.41422,1.41422 0,3 0,4c0,1 0,2 0,3c0,1 0,2 0,3c0,1 0,2 0,3c0,1 0,2 0,3c0,1 0,2 0,3c0,1 0,2 0,3c0,1 1,2 1,3c0,1 0,2 0,3c0,1 0,2 0,3c0,1 0.29291,1.29291 1,2c0.70709,0.70709 0,2 0,3c0,1 0,2 0,3c0,1 1,1 1,2c0,1 0,2 0,3c0,1 0.29291,1.29291 1,2c0.70709,0.70709 0,2 0,3c0,1 1,1 1,2c0,1 0.29291,1.29291 1,2c0.70709,0.70709 -0.70709,2.29291 0,3c0.70709,0.70709 1,1 1,2c0,1 1,1 1,2c0,1 0.29291,1.29291 1,2c0.70709,0.70709 0.29291,1.29291 1,2c0.70709,0.70709 0.29291,1.29291 1,2c0.70709,0.70709 0.61731,1.07611 1,2c0.5412,1.30658 1.29291,1.29291 2,2c0.70709,0.70709 0,0 0,-1l0,-1" id="svg_59" stroke="#000" fill="none"/>
  <path d="m411,382c1,0 1.07611,0.61731 2,1c1.30655,0.5412 1.29291,1.29291 2,2c0.70709,0.70709 1.29291,0.29291 2,1c0.70709,0.70709 0.29291,1.29291 1,2c0.70709,0.70709 2,2 3,3c1,1 2,2 3,3c1,1 2.4588,1.69345 3,3c0.38269,0.92389 1,1 1,2c0,1 0.29291,1.29291 1,2c0.70709,0.70709 0.61731,1.07611 1,2c0.5412,1.30655 1.4588,1.69345 2,3c0.38269,0.92389 0.29291,2.29291 1,3c0.70709,0.70709 1,1 1,2c0,1 1,1 1,2c0,1 0.29291,1.29291 1,2c0.70709,0.70709 -0.70709,2.29291 0,3c0.70709,0.70709 1,1 1,2c0,1 1,1 1,2c0,1 0.29291,1.29291 1,2c0.70709,0.70709 -0.70709,2.29291 0,3c0.70709,0.70709 0.61731,1.07611 1,2c0.5412,1.30655 1,2 1,3c0,1 1,2 1,3c0,1 0,2 0,3c0,1 1,1 1,2c0,1 -0.38269,2.07611 0,3c0.5412,1.30655 1,2 1,3c0,1 0.4588,1.69345 1,3c0.38269,0.92389 0,2 0,3c0,1 0,2 0,3c0,1 0,2 0,3c0,1 0,2 0,3c0,1 0,2 0,3c0,1 0.4588,1.69345 1,3c0.38269,0.92389 0,2 0,3c0,1 0,2 0,3c0,1 0,2 0,3c0,1 -1,1 -1,2c0,1 0,2 0,3c0,1 0.70709,2.29291 0,3c-0.70709,0.70709 -1,1 -1,2c0,1 -0.29291,1.29291 -1,2c-0.70709,0.70709 0.70709,2.29291 0,3c-0.70709,0.70709 -2,0 -2,-1l0,-1l-1,-1" id="svg_60" stroke="#000" fill="none"/>
  <path d="m425,392c1,0 2,0 3,0c1,0 2.0535,0.4595 4,0c2.17624,-0.51373 2.87857,-2.49347 6,-3c1.97418,-0.32037 3.93414,-1.14429 6,-2c2.92157,-1.21014 5.07843,-1.78986 8,-3c2.06586,-0.85571 2.82376,-1.48627 5,-2c0.97324,-0.22977 1.29291,-0.29291 2,-1c0.70709,-0.70709 0.29291,-1.29291 1,-2c0.70709,-0.70709 1.69345,-1.4588 3,-2c0.92389,-0.38269 2,-1 3,-2c1,-1 1.69345,-2.4588 3,-3c0.92389,-0.38269 0.29291,-1.29291 1,-2c0.70709,-0.70709 0.61731,-1.07611 1,-2c0.5412,-1.30655 1,-2 2,-3c1,-1 1.61731,-2.07611 2,-3c0.5412,-1.30655 1.61731,-2.07611 2,-3c0.5412,-1.30655 1,-2 1,-3c0,-1 1,-1 1,-2c0,-1 0,-2 0,-3c0,-1 0,-2 0,-3c0,-1 -1.29291,-0.29291 -2,-1c-0.70709,-0.70709 -1.29291,-0.29291 -2,-1c-0.70709,-0.70709 -1,-1 -2,-1c-1,0 -2,0 -3,0c-1,0 -2,0 -3,0c-1,0 -2,0 -3,0c-1,0 -2.69345,0.4588 -4,1c-1.84775,0.76538 -2.69345,0.4588 -4,1c-0.92389,0.38269 -2,0 -3,0c-1,0 -1.69345,0.4588 -3,1c-0.92389,0.38269 -1.29291,0.29291 -2,1c-0.70709,0.70709 -2,1 -4,1c-1,0 -2.07611,0.61731 -3,1c-1.30655,0.5412 -1.29291,1.29291 -2,2c-0.70709,0.70709 -1.29291,0.29291 -2,1c-0.70709,0.70709 -2,0 -3,1c-1,1 -1.29291,1.29291 -2,2c-0.70709,0.70709 -2,0 -3,1c-1,1 -1.29291,1.29291 -2,2c-0.70709,0.70709 -1.07611,0.61731 -2,1c-1.30655,0.5412 -1.29291,1.29291 -2,2c-0.70709,0.70709 -1.29291,0.29291 -2,1c-0.70709,0.70709 -1,1 -1,2l-1,0l0,1l-1,0" id="svg_61" stroke="#000" fill="none"/>
  <path d="m345,333c1,1 1.70709,2.29291 1,3c-0.70709,0.70709 -1,-1 -1,-2c0,-1 0.29291,-1.29291 1,-2c0.70709,-0.70709 2.29291,-0.70709 3,0c0.70709,0.70709 0,2 -1,2c-1,0 -1,1 -2,1c-1,0 -2.29291,1.70709 -3,1c-0.70709,-0.70709 0,-2 0,-3c0,-1 1.29291,-0.29291 2,-1c0.70709,-0.70709 1.29291,-1.70709 2,-1c0.70709,0.70709 0,2 0,3c0,1 0.70709,2.29291 0,3c-0.70709,0.70709 -2.29291,0.70709 -3,0c-0.70709,-0.70709 -0.70709,-2.29291 0,-3c0.70709,-0.70709 2.29291,0.70709 3,0c0.70709,-0.70709 1.29291,-1.70709 2,-1c0.70709,0.70709 -0.29291,1.29291 -1,2c-0.70709,0.70709 -0.29291,1.29291 -1,2c-0.70709,0.70709 -1.29291,1.70709 -2,1c-0.70709,-0.70709 -1,-1 -1,-2l0,-1l1,0l0,-1" id="svg_62" stroke="#000" fill="none"/>
  <path d="m366,324c0,1 -0.29291,1.29291 -1,2c-0.70709,0.70709 -1,-1 -1,-2c0,-1 0,-2 0,-3c0,-1 0.29291,-1.29291 1,-2c0.70709,-0.70709 2.29291,-0.70709 3,0c0.70709,0.70709 0.29291,1.29291 1,2c0.70709,0.70709 0,2 0,3c0,1 0.30655,2.4588 -1,3c-0.92389,0.38269 -1.29291,0.29291 -2,1c-0.70709,0.70709 -2,0 -2,-1c0,-1 0,-2 0,-3c0,-1 0.29291,-1.29291 1,-2c0.70709,-0.70709 1.29291,0.29291 2,1c0.70709,0.70709 0,2 0,3c0,1 -0.29291,1.29291 -1,2c-0.70709,0.70709 -2,0 -2,-1c0,-1 0.29291,-1.29291 1,-2c0.70709,-0.70709 1,-1 2,-1c1,0 2,0 2,1c0,1 0,2 -1,2c-1,0 -2.29291,0.70709 -3,0c-0.70709,-0.70709 0,-2 0,-3c0,-1 -0.70709,-2.29291 0,-3c0.70709,-0.70709 1.29291,0.29291 2,1c0.70709,0.70709 1,1 1,2c0,1 -1,1 -2,1c-1,0 -3,1 -4,1c-2,0 -3,1 -4,1c-1,0 -1.70709,-1.29291 -1,-2c0.70709,-0.70709 1.29291,-0.29291 2,-1c0.70709,-0.70709 1.29291,-0.29291 2,-1c0.70709,-0.70709 1,-1 2,-1c1,0 1,-1 2,-1c1,0 1.29291,-1.70709 2,-1c0.70709,0.70709 1,1 1,2c0,1 0.70709,2.29291 0,3c-0.70709,0.70709 -1.29291,0.29291 -2,1c-0.70709,0.70709 -2.29291,0.70709 -3,0c-0.70709,-0.70709 0,-2 0,-3c0,-1 0.29291,-1.29291 1,-2c0.70709,-0.70709 1.29291,0.29291 2,1c0.70709,0.70709 1,1 1,2c0,1 -0.29291,1.29291 -1,2c-0.70709,0.70709 -1.29291,1.70709 -2,1c-0.70709,-0.70709 -1,-1 -1,-2c0,-1 1,-2 2,-2c1,0 2.38269,0.07611 2,1c-0.5412,1.30655 -1,2 -2,2c-1,0 -1,-1 -1,-2c0,-1 1,-1 2,-1l1,0l0,-1" id="svg_70" stroke="#000" fill="none"/>
  <path d="m343,333c-1,0 -1,-1 -1,-2c0,-1 0.29291,-1.29291 1,-2c0.70709,-0.70709 1,1 1,2c0,1 -0.70709,2.29291 0,3c0.70709,0.70709 1.70709,1.29291 1,2c-0.70709,0.70709 -2,0 -2,-1c0,-1 0,-2 0,-3c0,-1 0.29291,-1.29291 1,-2c0.70709,-0.70709 1,1 1,2c0,1 0.30655,2.4588 -1,3c-0.92389,0.38269 -1,-1 -1,-2l0,-1l0,-1l1,0" id="svg_71" stroke="#000" fill="none"/>
  <path d="m308,281c0,-1 0,-2 -1,-2c-1,0 -1,-1 -2,-1c-1,0 -2,0 -3,0c-1,0 -1.02676,0.77023 -2,1c-2.17624,0.51373 -3.07611,1.61731 -4,2c-1.30655,0.5412 -1.4588,1.69345 -2,3c-0.38269,0.92389 0,2 0,3c0,1 0.29291,1.29291 1,2c0.70709,0.70709 1,1 2,1c1,0 2.15225,0.76538 4,0c1.30655,-0.5412 2,-2 3,-3c1,-1 1,-3 1,-4c0,-1 0.38269,-3.07611 0,-4c-0.5412,-1.30655 -2,-2 -2,-3l-1,-1" id="svg_72" stroke="#000" fill="none"/>
  <path d="m267,214c0,-1 -1.29291,-1.70711 -2,-1c-0.70709,0.70711 -0.29291,1.29289 -1,2c-0.70709,0.70711 -1,1 -2,2c-1,1 -1.4588,1.69344 -2,3c-0.38269,0.92387 -0.77023,2.02675 -1,3c-0.51373,2.17625 -1,3 -1,4c0,1 0,2 0,4c0,1 1.07611,1.61731 2,2c1.30655,0.5412 2.69345,1.4588 4,2c0.92389,0.38269 2,0 4,0c1,0 2.85272,-1.1731 4,-2c1.814,-1.30745 4.186,-1.69255 6,-3c1.14728,-0.8269 2.69254,-3.186 4,-5c0.8269,-1.14726 1,-3 1,-5c0,-2 0.76538,-3.15224 0,-5c-0.5412,-1.30656 -2.70547,-3.34619 -5,-5c-1.814,-1.30745 -5.07843,-2.78986 -8,-4c-2.06586,-0.85571 -4,-1 -5,-1l-1,0" id="svg_73" stroke="#000" fill="none"/>
  <path d="m179,181c0,1 0,2 0,3c0,1 0,2 0,3c0,1 0,2 0,3c0,1 -0.29289,1.29289 -1,2c-0.70711,0.70711 -0.61731,1.07613 -1,2c-0.5412,1.30656 -2.29289,1.29289 -3,2c-0.70711,0.70711 -0.82375,1.48625 -3,2c-0.97325,0.22975 -2,0 -4,0c-2,0 -4,0 -5,0c-2,0 -5.0535,-0.5405 -7,-1c-2.17625,-0.51375 -6.04132,-0.84723 -10,-2c-3.03616,-0.88414 -7.02521,-1.88133 -12,-3c-4.02266,-0.90456 -9.133,-2.5695 -13,-4c-4.19435,-1.55159 -7.88152,-3.19028 -11,-5c-1.934,-1.12234 -4.48626,-2.82375 -5,-5c-0.22975,-0.97325 -0.4588,-1.69344 -1,-3c-0.38268,-0.92387 -0.70711,-2.29289 0,-3c0.70711,-0.70711 1,-1 2,-1c1,0 2,0 3,0c1,0 2.29289,-0.70711 3,0c0.70711,0.70711 0.70711,2.29289 0,3c-0.70711,0.70711 -1,1 -2,2c-2,2 -3.186,2.69255 -5,4c-2.29454,1.65381 -4.0535,2.5405 -6,3c-2.17625,0.51375 -3,1 -4,1c-1,0 -3.186,0.30745 -5,-1c-1.14727,-0.8269 -3.86829,-2.28859 -8,-4c-2.92156,-1.21014 -7.19892,-3.53236 -10,-5c-4.42889,-2.32053 -6.56393,-4.36774 -10,-8c-2.47779,-2.61926 -4.71412,-6.21167 -7,-9c-1.79319,-2.18735 -3.34619,-4.70546 -5,-7c-1.30745,-1.814 -1,-4 -2,-6c-1,-2 -1,-4 -1,-6c0,-2 0,-4 0,-6c0,-1 0.45881,-2.69344 1,-4c0.76537,-1.84776 1.1731,-2.85273 2,-4c1.30745,-1.814 1.07612,-2.61732 2,-3c1.30656,-0.5412 1.29289,-1.29289 2,-2c0.70711,-0.70711 1.70711,0.70711 1,0c-0.70711,-0.70711 -1,-2 -3,-4c-1,-1 -3,-3 -5,-5c-2,-2 -4,-5 -6,-9c-1,-2 -2,-5 -2,-9c0,-3 -0.4305,-6.133 1,-10c0.77579,-2.09718 2,-5 4,-9c1,-2 2,-5 4,-7c2,-2 3,-5 5,-7c2,-2 4,-4 6,-6c2,-2 4.18601,-2.69255 6,-4c1.14727,-0.8269 1.69344,-2.45881 3,-3c0.92388,-0.38268 1.69344,-0.45881 3,-1c0.92388,-0.38268 2,0 4,0c1,0 3,-1 5,-1c1,0 1.29289,0.29289 2,1c0.70711,0.70711 0.29289,-1.29289 1,-2c0.70711,-0.70711 1,-1 2,-2c1,-1 3.21168,-2.71412 6,-5c2.18734,-1.79319 5.37202,-4.3851 9,-7c3.44181,-2.48071 5.86829,-5.28859 10,-7c2.92156,-1.21015 7,-3 10,-4c3,-1 5.90778,-1.49623 10,-2c3.97003,-0.48873 7,0 12,0c4,0 9.03746,0.38908 14,1c4.09221,0.50377 8.04132,1.84723 12,3c3.03616,0.88413 5.186,2.69255 7,4c1.14726,0.8269 3,3 4,5c1,2 1.69255,3.18601 3,5c0.8269,1.14727 1.07613,2.38268 2,2c1.30656,-0.54119 2,-1 3,-2c2,-2 5.19577,-3.64886 9,-6c4.25325,-2.62866 10,-5 16,-8c6,-3 12.95796,-5.13081 19,-7c6.9549,-2.15159 12.03044,-3.80616 19,-5c5.02582,-0.86089 10,-1 14,-1c3,0 7.07843,-0.21015 10,1c4.13171,1.71141 7.11237,2.54705 12,4c5.16193,1.53449 9.87604,3.34315 15,5c3.9231,1.26855 8.15927,3.61065 11,5c3.23892,1.5841 5,4 7,6c2,2 3.85272,4.1731 5,5c1.814,1.30745 3,2 4,2c1,0 2.29291,0.70711 3,0c0.70709,-0.70711 2.06601,-1.87766 4,-3c3.11847,-1.80972 5.88153,-4.19028 9,-6c3.86798,-2.24468 8.61292,-4.76859 14,-7c3.80927,-1.57784 9.98453,-2.08074 15,-3c5.98309,-1.09661 11,-1 17,-1c5,0 10.04495,-0.7331 16,0c4.09222,0.50377 7.80566,3.44841 12,5c3.867,1.4305 8,3 12,5c4,2 7.57111,4.67947 12,7c2.80109,1.46763 6.186,2.69255 8,4c2.29453,1.65381 2.29291,3.29289 3,4c0.70709,0.70711 2,0 2,-1c0,-1 0.61731,-1.07612 1,-2c1.0824,-2.61312 2.4505,-3.45049 5,-6c2.5495,-2.54951 5.31,-3.33749 8,-5c2.40601,-1.48699 5.07843,-3.78985 8,-5c2.06586,-0.85571 4.08026,-0.31074 7,-1c2.17624,-0.51374 5,-1 8,-1c2,0 6.04132,0.84723 10,2c6.07233,1.76827 11.86194,3.47545 18,5c5.90338,1.46626 11.21515,2.36079 18,5c4.16791,1.62125 9.1958,4.64886 13,7c4.25323,2.62865 6.59399,5.51301 9,7c2.69,1.66251 4.87854,2.49346 8,3c1.97418,0.32037 4,0 6,0c3,0 6,-2 8,-3c4,-2 7.88855,-4.19409 13,-7c3.92029,-2.15203 9,-6 14,-9c5,-3 10.17572,-6.60703 15,-9c5.22363,-2.59106 8.87604,-4.34315 14,-6c3.9231,-1.26855 8,-2 10,-2c3,0 4,0 6,0c2,0 4.88153,1.19028 8,3c1.93402,1.12234 5.88153,2.19028 9,4c3.86798,2.24468 9.05664,3.91753 12,6c4.08173,2.88786 7.91827,5.11214 12,8c2.94336,2.08247 6.88153,5.19028 10,7c3.86798,2.24469 6.87854,3.49346 10,4c1.97418,0.32037 3,1 5,1c1,0 1.29291,-0.29289 2,-1c0.70709,-0.70711 1.29291,-0.29289 2,-1c0.70709,-0.70711 2.15222,-0.23463 4,-1c1.30658,-0.54119 1.69342,-1.45881 3,-2c0.92389,-0.38268 2.15222,0.76537 4,0c1.30658,-0.54119 3,-1 4,-1c2,0 5.05353,0.54049 7,1c2.17627,0.51374 4,2 6,3c2,1 3,3 5,5c1,1 2,3 3,5c1,2 1.69257,3.18601 3,5c0.8269,1.14727 1.69257,2.18601 3,4c0.8269,1.14727 2,2 3,3c2,2 4.25653,3.797 5,5c1.66254,2.68999 3,4 4,6c1,2 1.77026,3.02675 2,4c0.51373,2.17625 1.29291,2.29289 2,3c0.70709,0.70711 0.29291,1.29289 1,2c0.70709,0.70711 0,2 0,3c0,1 0,2 0,3c0,2 0,4 0,6c0,2 0.16016,5.01291 0,6c-0.50653,3.12144 -0.78986,6.07844 -2,9c-0.85571,2.06586 -2.28857,5.86829 -4,10c-1.21014,2.92156 -3.16797,7.92033 -5,12c-2.20605,4.91257 -3.75531,9.132 -6,13c-1.80969,3.11848 -4,6 -6,8c-1,1 -2,2 -3,2c-1,0 -1.69342,-0.4588 -3,-1c-2.77167,-1.14806 -6.02246,-0.63345 -9,-1c-4.09222,-0.50377 -8,-1 -12,-1c-3,0 -6,0 -8,0c-3,0 -4,0 -5,0c-1,0 -1.61731,0.07613 -2,1c-0.5412,1.30656 -0.69257,2.186 -2,4c-1.65381,2.29454 -3.19031,3.88152 -5,7c-1.12231,1.93399 -3,5 -6,8c-2,2 -6.06598,4.87766 -8,6c-3.11847,1.80972 -7.03748,2.38908 -12,3c-4.09222,0.50377 -9,1 -14,1c-4,0 -9.90778,-0.49623 -14,-1c-4.96252,-0.61092 -9.07178,-0.69124 -14,-2c-3.05634,-0.81166 -7.07843,-1.78986 -10,-3c-2.06586,-0.85571 -4,-2 -5,-3c-1,-1 -2.29291,-1.29289 -3,-2c-0.70709,-0.70711 -1.07611,-1.38269 -2,-1c-1.30658,0.5412 -2.52014,3.32367 -4,5c-2.38617,2.703 -6,5 -9,8c-3,3 -7.07971,6.84796 -11,9c-5.11145,2.80591 -10.94342,6.14774 -16,8c-5.93866,2.17538 -12,3 -18,4c-6,1 -12.02997,1.48874 -16,1c-4.09222,-0.50377 -8,-3 -10,-5c-3,-3 -5,-5 -8,-8c-3,-3 -5.21167,-5.71413 -8,-8c-3.28101,-2.68979 -5.59399,-6.513 -8,-8c-2.69,-1.66251 -6,-2 -9,-3c-3,-1 -5.82376,-1.48625 -8,-2c-2.91974,-0.68925 -5,0 -8,1c-3,1 -5.88153,2.19028 -9,4c-3.86798,2.24469 -9.08743,3.79393 -14,6c-6.11951,2.74806 -12.80243,5.43288 -19,8c-5.84314,2.4203 -11.92578,3.49756 -17,4c-3.98053,0.39415 -8,0 -10,0c-2,0 -3.90634,-1.10341 -5,-2c-2.78833,-2.28587 -5.13202,-2.75531 -9,-5c-3.11847,-1.80972 -7.83807,-4.46552 -13,-6c-4.88763,-1.45294 -11.98877,-3.06982 -18,-4c-6.98792,-1.08131 -13.04495,-0.26691 -19,-1c-4.09222,-0.50377 -9.08026,-1.68925 -12,-1c-2.17624,0.51375 -3,1 -4,2c-1,1 -1.69345,1.4588 -3,2c-1.84775,0.76537 -3.31,0.33749 -6,2c-1.203,0.7435 -3.93414,1.14429 -6,2c-2.92157,1.21014 -4.87857,1.49345 -8,2c-0.98709,0.16019 -3,0 -4,0c-1,0 -1.29291,-0.29289 -2,-1c-0.70709,-0.70711 -2,-1 -3,-2c-1,-1 -3.186,-1.69255 -5,-3c-1.14728,-0.8269 -3.186,-1.69255 -5,-3c-1.14728,-0.8269 -3,-2 -5,-2c-1,0 -2,-1 -3,-1c-2,0 -2.85272,1.1731 -4,2c-1.814,1.30745 -3,2 -5,4c-2,2 -4.39099,4.76952 -8,7c-2.69,1.66251 -6,4 -9,5c-3,1 -4.82376,1.48625 -7,2c-0.97324,0.22975 -3.02675,0.22975 -4,0c-2.17625,-0.51375 -3.15224,-1.23463 -5,-2c-1.30656,-0.5412 -1.69344,-1.4588 -3,-2c-0.92387,-0.38269 -1.69344,-1.4588 -3,-2c-0.92387,-0.38269 -4.186,-0.69255 -6,-2c-2.29454,-1.65381 -3.76108,-2.41589 -7,-4c-2.84073,-1.38936 -5.02582,-1.67964 -7,-2c-3.12144,-0.50655 -6,-1 -8,-1c-3,0 -5,0 -7,0c-2,0 -3,1 -4,1c-1,0 -2,0 -3,0c-1,0 -2,0 -3,0c-1,0 -2,0 -3,0c-1,0 -2,0 -3,0c-1,0 -2,0 -3,0c-2,0 -3.0535,0.5405 -5,1c-2.17625,0.51375 -3.15224,1.23463 -5,2c-1.30656,0.5412 -2,2 -3,2c-2,0 -3,1 -4,1l-1,0l0,1" id="svg_74" stroke="#000" fill="none"/>
  <path d="m293,404c-1,0 -2,0 -3,0c-1,0 -1.29291,0.29291 -2,1c-0.70709,0.70709 -2,0 -3,0c-1,0 -1,1 -2,1c-1,0 -2.07611,0.61731 -3,1c-1.30655,0.5412 -3.07611,1.61731 -4,2c-1.30655,0.5412 -3.186,2.69254 -5,4c-1.14728,0.8269 -2.186,1.69254 -4,3c-1.14728,0.8269 -1.29291,1.29291 -2,2c-0.70709,0.70709 -1.29291,0.29291 -2,1c-0.70709,0.70709 -1,2 -2,3c-1,1 -1.69254,1.186 -3,3c-0.8269,1.14728 -2,2 -4,4c-1,1 -2.61731,2.07611 -3,3c-0.5412,1.30655 -2.29289,1.29291 -3,2c-0.70711,0.70709 -0.61731,2.07611 -1,3c-0.5412,1.30655 -1.61731,1.07611 -2,2c-0.5412,1.30655 -1.61731,2.07611 -2,3c-0.5412,1.30655 -1.4588,1.69345 -2,3c-0.38269,0.92389 -1,2 -1,3c0,1 0,2 0,3c0,1 -1,2 -1,3c0,1 0,2 0,3c0,1 0,2 0,3c0,1 0,2 0,3c0,1 0,2 0,3c0,1 0.4588,1.69345 1,3c0.38269,0.92389 0.29289,1.29291 1,2c0.70711,0.70709 -0.38269,2.07611 0,3c0.5412,1.30655 0.61731,2.07611 1,3c0.5412,1.30655 0.29289,2.29291 1,3c0.70711,0.70709 0.29289,1.29291 1,2c0.70711,0.70709 0.29289,1.29291 1,2c0.70711,0.70709 1.29289,0.29291 2,1c0.70711,0.70709 0,2 1,3c1,1 1.29289,1.29291 2,2c0.70711,0.70709 0.29289,1.29291 1,2c0.70711,0.70709 1,1 2,1c1,0 1.29289,0.29291 2,1c0.70711,0.70709 0.29289,1.29291 1,2c0.70709,0.70709 1.29291,0.29291 2,1c0.70709,0.70709 1.29291,0.29291 2,1c0.70709,0.70709 1.29291,0.29291 2,1c0.70709,0.70709 0.29291,1.29291 1,2c0.70709,0.70709 1,1 2,1c1,0 1.29291,0.29291 2,1c0.70709,0.70709 1,1 2,1c1,0 1,1 2,1c1,0 1,1 2,1l1,0" id="svg_75" stroke="#000" fill="none"/>
  <path d="m343,371c1,0 2.29291,0.70709 3,0c0.70709,-0.70709 1.797,-1.2565 3,-2c2.69,-1.66251 4.31,-1.33749 7,-3c1.203,-0.7435 3,-2 5,-3c2,-1 2.69345,-1.4588 4,-2c0.92389,-0.38269 1.29291,-0.29291 2,-1c0.70709,-0.70709 2.29291,0.70709 3,0c0.70709,-0.70709 1.29291,-0.29291 2,-1c0.70709,-0.70709 1.29291,-0.29291 2,-1c0.70709,-0.70709 1.69345,-1.4588 3,-2c0.92389,-0.38269 2,0 2,-1l1,0l1,0" id="svg_76" stroke="#000" fill="none"/>
 </g>

</svg>