<svg width="800" height="600" xmlns="http://www.w3.org/2000/svg">

 <g>
  <title>Layer 1</title>
  <path d="m455,76c0,-1 0,-2 -1,-2c-1,0 -2.0535,-0.5405 -4,-1c-2.17624,-0.51374 -3.93414,-1.14429 -6,-2c-2.92157,-1.21015 -5.08026,-0.31074 -8,-1c-2.17624,-0.51374 -3.87857,-1.49346 -7,-2c-2.96127,-0.48055 -6.01498,0.24437 -8,0c-4.09222,-0.50378 -7,-1 -10,-1c-4,0 -6.87857,-0.49346 -10,-1c-1.97418,-0.32037 -5,0 -7,0c-2,0 -4,0 -6,0c-3,0 -4.87857,0.49346 -8,1c-2.96127,0.48055 -7.05164,0.35927 -11,1c-3.12143,0.50654 -6.96384,2.11587 -10,3c-3.95868,1.15277 -6.133,0.5695 -10,2c-2.09717,0.77579 -5.04132,1.84723 -9,3c-3.03616,0.88413 -6,2 -10,3c-4,1 -6.80566,2.44841 -11,4c-3.867,1.4305 -7.96384,3.11587 -11,4c-3.95868,1.15277 -7.90283,3.22421 -10,4c-3.867,1.4305 -6.07843,2.78985 -9,4c-2.06586,0.85571 -5.06601,1.87766 -7,3c-3.11847,1.80972 -7,4 -10,6c-3,2 -5.74673,4.37135 -10,7c-3.80423,2.35114 -6.9183,5.11214 -11,8c-2.94336,2.08247 -6,5 -9,7c-3,2 -5.45049,4.45049 -8,7c-2.54951,2.54951 -4,5 -7,8c-2,2 -4.1468,4.86325 -6,7c-3.27602,3.77727 -5,6 -7,9c-2,3 -4.76952,5.39099 -7,9c-1.66251,2.68999 -3.2068,5.81265 -5,8c-2.28587,2.78833 -2.71413,6.21167 -5,9c-1.7932,2.18735 -3.19028,4.88152 -5,8c-1.12234,1.93399 -3.11586,4.96384 -4,8c-1.15277,3.95868 -1.33199,6.22935 -3,10c-1.45863,3.29733 -3,7 -4,10c-1,3 -2,5 -3,8c-1,3 -1.51945,5.03874 -2,8c-0.50655,3.12144 -1,6 -2,9c-1,3 -1.49345,5.87856 -2,9c-0.64073,3.94836 -0.49345,6.87857 -1,10c-0.48055,2.96127 -1,5 -1,8c0,2 0,5 0,7c0,3 0,5 0,8c0,2 0,5 0,9c0,2 0,6 0,9c0,3 1,6 1,9c0,3 0.08099,6.10699 1,10c0.51375,2.17624 1.14429,4.93414 2,7c1.21014,2.92157 0.78986,5.07843 2,8c0.85571,2.06586 1.5405,4.0535 2,6c0.51375,2.17624 2.4588,4.69345 3,6c1.14806,2.77164 0.5405,5.0535 1,7c0.51375,2.17624 2,4 3,6c1,2 1.23463,4.15225 2,6c1.0824,2.61313 2.87766,4.06601 4,6c1.80972,3.11847 3,5 4,7c1,2 2.69255,4.186 4,6c1.65381,2.29453 2.71413,4.21167 5,7c1.7932,2.18735 3.2068,3.81265 5,6c2.28587,2.78833 4.71413,5.21167 7,8c1.7932,2.18735 4.21167,3.71411 7,6c2.18735,1.79318 4.34619,3.70547 6,6c1.30745,1.814 2.70546,3.34619 5,5c1.814,1.30746 3.186,2.69254 5,4c2.29454,1.65381 3,3 4,4c2,2 4,4 6,5c2,1 3,2 5,3c2,1 2.85272,2.1731 4,3c1.814,1.30746 3.85272,2.1731 5,3c1.814,1.30746 3.93414,2.14429 6,3c2.92157,1.21014 5,1 8,2c3,1 6.04132,1.84723 10,3c3.03616,0.88412 6,2 10,3c4,1 8.04132,1.84723 12,3c3.03616,0.88412 8.07843,1.78986 11,3c4.13171,1.71143 8.01947,2.60583 12,3c5.07422,0.50244 10.04132,0.84723 14,2c3.03616,0.88412 7.02249,0.63345 10,1c4.09222,0.50378 6.87857,1.49347 10,2c2.96127,0.48056 5.87857,0.49347 9,1c1.97418,0.32037 5,0 7,0c3,0 5,0 9,0c3,0 5,0 8,0c3,0 6.02582,0.32037 8,0c3.12143,-0.50653 5.87857,-1.49347 9,-2c1.97418,-0.32037 6.02249,-0.63345 9,-1c4.09222,-0.50378 8.02249,-1.63345 11,-2c4.09222,-0.50378 8.96384,-2.11588 12,-3c3.95868,-1.15277 7.90778,-2.49622 12,-3c2.97751,-0.36655 6.96384,-1.11588 10,-2c3.95868,-1.15277 7,-2 11,-3c4,-1 6.64749,-2.9725 11,-4c3.89301,-0.91901 7,-2 10,-3c3,-1 7,-2 9,-3c2,-1 4,-2 6,-3c2,-1 4.15222,-2.23462 6,-3c2.6131,-1.0824 3.70544,-3.34619 6,-5c1.81396,-1.30746 3.81268,-3.20682 6,-5c2.78833,-2.28589 6,-4 8,-6c2,-2 3.81268,-4.20682 6,-6c2.78833,-2.28589 4.34619,-3.70547 6,-6c1.30743,-1.814 3,-4 4,-6c1,-2 2.87769,-4.06601 4,-6c1.80969,-3.11847 3,-5 5,-8c2,-3 3.724,-6.22272 7,-10c1.85321,-2.13675 4.20679,-5.81265 6,-8c2.28589,-2.78833 3.19031,-5.88153 5,-9c1.12231,-1.93399 1.87769,-5.06601 3,-7c1.80969,-3.11847 3.22418,-5.90283 4,-8c1.43048,-3.867 2,-6 3,-9c1,-3 1.87769,-6.06601 3,-8c1.80969,-3.11847 1.87769,-5.06601 3,-7c1.80969,-3.11847 2,-5 3,-7c1,-2 1.54047,-5.0535 2,-7c0.51373,-2.17624 2.48627,-4.82376 3,-7c0.68927,-2.91974 0.31073,-5.08026 1,-8c0.51373,-2.17624 1.49347,-4.87857 2,-8c0.32037,-1.97418 0.67963,-5.02582 1,-7c0.50653,-3.12143 1.49347,-4.87857 2,-8c0.48053,-2.96127 0.08099,-6.10699 1,-10c0.51373,-2.17624 0.75562,-6.01498 1,-8c0.50378,-4.09221 1,-6 1,-10c0,-2 0,-5 0,-9c0,-2 0,-5 0,-7c0,-3 0,-6 0,-9c0,-2 0,-5 0,-8c0,-2 0,-5 0,-8c0,-3 0,-5 0,-8c0,-2 0,-5 0,-7c0,-3 -0.48627,-5.82375 -1,-8c-0.68927,-2.91975 -0.51947,-6.03874 -1,-9c-0.50653,-3.12144 -1.56952,-6.133 -3,-10c-0.77582,-2.09717 -1.51947,-5.03874 -2,-8c-0.50653,-3.12144 -1.78986,-5.07843 -3,-8c-0.85571,-2.06586 -2,-4 -3,-6c-1,-2 -1.87769,-5.06601 -3,-7c-1.80969,-3.11848 -2.87769,-5.06601 -4,-7c-1.80969,-3.11848 -3.34619,-4.70546 -5,-7c-1.30743,-1.814 -3,-5 -4,-6c-2,-2 -2.41888,-4.41886 -4,-6c-1.58112,-1.58114 -2.69257,-3.186 -4,-5c-0.8269,-1.14727 -3,-2 -4,-3c-2,-2 -3,-3 -4,-4c-1,-1 -3.18604,-2.69255 -5,-4c-1.14728,-0.8269 -2.85272,-3.1731 -4,-4c-1.81396,-1.30745 -4.18604,-1.69255 -6,-3c-1.14728,-0.8269 -2.18604,-0.69255 -4,-2c-1.14728,-0.8269 -2.85272,-2.1731 -4,-3c-1.81396,-1.30745 -4.06598,-0.87766 -6,-2c-3.11847,-1.80972 -4.3869,-2.91761 -7,-4c-2.77167,-1.14805 -5.07843,-0.78985 -8,-2c-2.06586,-0.85571 -3.87854,-2.49346 -7,-3c-1.97418,-0.32037 -4,-1 -6,-1c-2,0 -4,-1 -6,-1c-3,0 -5.02249,-0.63345 -8,-1c-4.09222,-0.50378 -6.92578,-1.49755 -12,-2c-2.98541,-0.29562 -8,-1 -12,-1c-4,0 -8,-1 -12,-1c-3,0 -7,0 -12,0c-3,0 -7,0 -10,0c-3,0 -7,0 -11,0c-4,0 -7.02997,0.51127 -11,1c-4.09222,0.50378 -8.97736,2.09544 -13,3c-4.97479,1.11866 -8,2 -11,3l-2,1l0,1" id="svg_15" stroke="#000" fill="none"/>
  <path d="m401,134c-1,0 -2.29291,0.70711 -3,0c-0.70709,-0.70711 -1,-1 -2,-1c-1,0 -1.29291,-0.29289 -2,-1c-0.70709,-0.70711 -2,0 -3,0c-1,0 -2,0 -4,0c-2,0 -4.0535,0.5405 -6,1c-2.17624,0.51375 -4.07611,0.61731 -5,1c-1.30655,0.5412 -3.07611,1.61731 -4,2c-1.30655,0.5412 -2.82376,2.48625 -5,3c-0.97324,0.22975 -3,2 -5,3c-2,1 -2.85272,3.1731 -4,4c-1.814,1.30745 -3,2 -4,3c-1,1 -2,3 -3,4c-1,1 -2,2 -3,3c-1,1 -2,2 -3,3c-1,1 -2,2 -3,3c-1,1 -1.69254,2.186 -3,4c-0.8269,1.14726 -2.34619,2.70546 -4,5c-1.30746,1.814 -2.34619,3.70546 -4,6c-1.30746,1.814 -3,5 -4,7c-1,2 -3,3 -4,5c-1,2 -1,3 -2,4c-1,1 -2.4588,1.69344 -3,3c-0.76538,1.84776 -0.23462,3.15224 -1,5c-0.5412,1.30656 -1.1731,2.85274 -2,4c-1.30746,1.814 -1.67963,4.02582 -2,6c-0.50653,3.12144 -1.49347,3.87856 -2,7c-0.16019,0.98709 -0.23462,3.15224 -1,5c-0.5412,1.30656 -0.77023,3.02675 -1,4c-0.51373,2.17625 -1,3 -1,5c0,1 0,3 0,4c0,2 0,3 0,5c0,2 0,3 0,5c0,2 0,3 0,5c0,2 0,3 0,5c0,1 0,3 0,5c0,1 0,3 0,4c0,2 1,3 1,4c0,1 0.4588,1.69345 1,3c0.38269,0.92389 0.4588,1.69345 1,3c0.38269,0.92389 0.4588,1.69345 1,3c0.38269,0.92389 1.48627,1.82376 2,4c0.22977,0.97324 1.1731,1.85272 2,3c1.30746,1.814 2,3 3,4c1,1 2,2 3,3c1,1 1.69345,3.4588 3,4c1.84775,0.76538 2.85272,2.1731 4,3c1.814,1.30746 2.69254,2.186 4,4c0.8269,1.14728 3,2 4,3c2,2 3.186,2.69254 5,4c1.14728,0.8269 2.85272,2.1731 4,3c1.814,1.30746 3.186,1.69254 5,3c1.14728,0.8269 2.07611,1.61731 3,2c1.30655,0.5412 1.69345,1.4588 3,2c0.92389,0.38269 2,0 3,0c1,0 1,1 2,1c1,0 2,0 3,0c1,0 2,0 4,0c1,0 3,0 4,0c2,0 3,0 5,0c1,0 2,0 3,0c2,0 3,0 5,0c2,0 4,-1 5,-1c2,0 4,-1 6,-1c1,0 3.15225,-0.23462 5,-1c1.30655,-0.5412 2.15225,-0.23462 4,-1c1.30655,-0.5412 2.29291,-0.29291 3,-1c0.70709,-0.70709 1,-1 2,-1c1,0 1,-1 2,-1c1,0 1.07611,-0.61731 2,-1c1.30655,-0.5412 1.70547,-1.34619 4,-3c1.814,-1.30746 4,-2 6,-3c2,-1 3.41885,-2.41885 5,-4c1.58115,-1.58115 3.07611,-1.61731 4,-2c1.30655,-0.5412 2.4588,-1.69345 3,-3c0.38269,-0.92389 1.4588,-2.69345 2,-4c0.38269,-0.92389 1.4588,-1.69345 2,-3c0.76538,-1.84775 0.61731,-3.07611 1,-4c0.5412,-1.30655 2,-3 2,-4c0,-1 1,-2 1,-4c0,-1 0,-3 0,-4c0,-2 -0.22977,-4.02676 0,-5c0.51373,-2.17624 1,-4 1,-6c0,-1 -0.22977,-3.02676 0,-4c0.51373,-2.17624 1,-4 1,-5c0,-1 1,-3 1,-4c0,-1 -0.76538,-2.15224 0,-4c0.5412,-1.30656 1,-3 1,-5c0,-2 1,-4 1,-6c0,-2 1,-4 1,-7c0,-1 0.48627,-2.82375 1,-5c0.4595,-1.9465 0,-3 0,-4c0,-2 0,-4 0,-5c0,-2 0,-5 0,-7c0,-3 0,-6 0,-9c0,-3 0,-6 0,-8c0,-3 0.4595,-6.0535 0,-8c-0.51373,-2.17625 -0.77023,-4.02675 -1,-5c-0.51373,-2.17625 -0.77023,-3.02675 -1,-4c-0.51373,-2.17625 -0.23462,-3.15224 -1,-5c-0.5412,-1.30656 -2,-2 -2,-4c0,-1 -0.23462,-2.15224 -1,-4c-0.5412,-1.30656 -1,-2 -2,-3c-1,-1 -1,-2 -2,-3c-1,-1 -1.69345,-2.4588 -3,-3c-0.92389,-0.38269 -2,-2 -3,-3c-1,-1 -3,-2 -4,-3c-2,-2 -2.85272,-3.1731 -4,-4c-1.814,-1.30745 -4.07611,-1.61731 -5,-2c-2.61313,-1.0824 -4,-2 -6,-3c-2,-1 -3.82376,-1.48625 -6,-2c-1.9465,-0.4595 -4.82376,-1.48625 -7,-2c-2.91974,-0.68925 -4.82376,-1.48625 -7,-2c-1.9465,-0.4595 -4,-1 -5,-1c-2,0 -3,-1 -5,-1l-1,0" id="svg_16" stroke="#000" fill="none"/>
  <path d="m435,147c0,-1 0,-2 0,-3c0,-1 0.29291,-1.29289 1,-2c0.70709,-0.70711 0.29291,-1.29289 1,-2c0.70709,-0.70711 1.29291,-0.29289 2,-1c0.70709,-0.70711 1.29291,-1.29289 2,-2c0.70709,-0.70711 0.29291,-2.29289 1,-3c0.70709,-0.70711 1.29291,-0.29289 2,-1c0.70709,-0.70711 1.29291,-0.29289 2,-1c0.70709,-0.70711 0.29291,-1.29289 1,-2c0.70709,-0.70711 1.29291,-0.29289 2,-1c0.70709,-0.70711 1,-1 2,-1c1,0 1.29291,-0.29289 2,-1c0.70709,-0.70711 1.29291,-0.29289 2,-1c0.70709,-0.70711 0.69345,-1.4588 2,-2c0.92389,-0.38268 1.07611,-0.61732 2,-1c1.30655,-0.5412 1.29291,-1.29289 2,-2c0.70709,-0.70711 1.29291,-0.29289 2,-1c0.70709,-0.70711 2.29291,-0.29289 3,-1c0.70709,-0.70711 1,-1 2,-2c1,-1 3,-1 4,-2c1,-1 2.69345,-1.4588 4,-2c0.92389,-0.38268 2,-1 3,-1c1,0 1,-1 2,-1c1,0 1.29291,-0.29289 2,-1c0.70709,-0.70711 3.07611,0.38268 4,0c1.30655,-0.5412 1.82376,-1.48626 4,-2c0.97324,-0.22975 2,0 3,0c1,0 1,-1 2,-1c1,0 2,0 3,0c1,0 3,0 4,0c1,0 2,0 3,0c1,0 2,0 3,0c1,0 2,0 3,0c2,0 3,0 4,0c1,0 2,0 3,0c1,0 2,0 3,0c2,0 4.02582,0.67963 6,1c3.12146,0.50654 5.08026,0.31074 8,1c2.17627,0.51374 4.15222,0.23463 6,1c1.30658,0.5412 3.07611,0.61732 4,1c1.30658,0.5412 2.07611,0.61732 3,1c1.30658,0.5412 2.29291,1.29289 3,2c0.70709,0.70711 1.29291,0.29289 2,1c0.70709,0.70711 0.69342,1.4588 2,2c0.92389,0.38268 1.69342,1.4588 3,2c0.92389,0.38268 2,1 3,2c1,1 3,2 4,3c1,1 2,2 3,3c1,1 2,2 3,3c1,1 2,2 3,3c1,1 1.9176,1.38687 3,4c0.38269,0.92387 2.48627,1.82375 3,4c0.22974,0.97325 0.69257,2.186 2,4c0.8269,1.14726 0.69257,2.186 2,4c0.8269,1.14726 1.48627,1.82375 2,4c0.45953,1.9465 1.48627,2.82375 2,5c0.45953,1.9465 1.48627,3.82375 2,6c0.45953,1.9465 1,4 1,6c0,2 0.54047,4.0535 1,6c0.51373,2.17625 1.48627,2.82375 2,5c0.45953,1.9465 1,4 1,6c0,3 1,5 1,7c0,3 1,5 1,8c0,2 1,4 1,7c0,2 -0.45953,5.0535 0,7c0.51373,2.17625 1,4 1,6c0,2 -0.32037,5.02582 0,7c0.50653,3.12144 1,6 1,8c0,3 0,5 0,8c0,3 -0.49347,4.87856 -1,8c-0.32037,1.97418 0,5 0,7c0,2 -1,4 -1,6c0,2 0.45953,4.0535 0,6c-0.51373,2.17624 -1,4 -2,6c-1,2 -0.69257,4.186 -2,6c-0.8269,1.14728 -2.48627,2.82376 -3,5c-0.45953,1.9465 -1.4588,2.69345 -2,4c-0.76538,1.84775 -1.4588,2.69345 -2,4c-0.38269,0.92389 -1,3 -2,4c-1,1 -2,2 -3,3c-2,2 -3.69257,3.186 -5,5c-1.65381,2.29453 -4.34619,2.70547 -6,5c-1.30743,1.814 -2.41888,3.41885 -4,5c-1.58112,1.58115 -2.85272,2.1731 -4,3c-1.81396,1.30746 -2.47424,2.14935 -3,3c-1.1756,1.9021 -3,1 -4,2c-2,2 -4,3 -6,4c-2,1 -4.21167,1.71411 -7,4c-1.09369,0.89661 -3.82373,2.48627 -6,3c-1.94647,0.4595 -2.69342,1.4588 -4,2c-0.92389,0.38269 -2.69342,0.4588 -4,1c-0.92389,0.38269 -2.85272,0.1731 -4,1c-1.81396,1.30746 -4.31,0.33749 -7,2c-1.203,0.7435 -4,2 -7,2c-1,0 -3,1 -5,1c-2,0 -3,0 -4,0c-1,0 -2,1 -4,1c-2,0 -4,0 -6,0c-3,0 -4.87857,0.49347 -8,1c-2.96127,0.48056 -5.87857,0.49347 -9,1c-1.97418,0.32037 -4,0 -6,0c-1,0 -2,0 -3,0c-1,0 -2,0 -3,0c-1,0 -2,0 -3,0c-1,0 -2,-1 -3,-1c-2,0 -3.07611,0.38269 -4,0c-1.30655,-0.5412 -2,-1 -3,-1c-1,0 -2.07611,-0.61731 -3,-1c-1.30655,-0.5412 -2.02676,-0.77023 -3,-1c-2.17624,-0.51373 -2.82376,-1.48627 -5,-2c-0.97324,-0.22977 -2.82376,-0.48627 -5,-1c-1.9465,-0.4595 -2.69345,-1.4588 -4,-2c-1.84775,-0.76538 -1.82376,-1.48627 -4,-2c-0.97324,-0.22977 -2.29291,-0.29291 -3,-1c-0.70709,-0.70709 -1.07611,-1.61731 -2,-2c-1.30655,-0.5412 -1.29291,-1.29291 -2,-2c-0.70709,-0.70709 -1.29291,-0.29291 -2,-1c-0.70709,-0.70709 -0.61731,-1.07611 -1,-2c-0.5412,-1.30655 -1.29291,-1.29291 -2,-2c-0.70709,-0.70709 -0.29291,-1.29291 -1,-2c-0.70709,-0.70709 -0.29291,-1.29291 -1,-2c-0.70709,-0.70709 -0.29291,-1.29291 -1,-2c-0.70709,-0.70709 -0.29291,-1.29291 -1,-2c-0.70709,-0.70709 -0.61731,-1.07611 -1,-2c-0.5412,-1.30655 -1.29291,-1.29291 -2,-2c-0.70709,-0.70709 0,-2 0,-3l1,0l0,-1" id="svg_17" stroke="#000" fill="none"/>
  <path d="m386,222c0,1 0,2 -1,2c-1,0 -2,0 -3,0c-1,0 -1,-1 -1,-2c0,-1 0,-2 0,-3c0,-1 -0.70709,-2.29289 0,-3c0.70709,-0.70711 1,-1 2,-1c1,0 2,0 3,0c1,0 0.29291,1.29289 1,2c0.70709,0.70711 1,1 1,2c0,1 0.70709,2.29289 0,3c-0.70709,0.70711 -0.61731,1.07613 -1,2c-0.5412,1.30656 -1.69345,2.4588 -3,3c-0.92389,0.38269 -2.07611,0.61731 -3,1c-1.30655,0.5412 -2.29291,1.70711 -3,1c-0.70709,-0.70711 -1.07611,-0.61731 -2,-1c-1.30655,-0.5412 -2.82443,-0.09789 -4,-2c-0.52573,-0.85065 -0.29291,-1.29289 -1,-2c-0.70709,-0.70711 -1,-1 -1,-2c0,-1 0.29291,-1.29289 1,-2c0.70709,-0.70711 2,0 3,0c1,0 2,0 3,0c1,0 2.69345,-0.4588 4,-1c1.84775,-0.76537 4,0 5,0c1,0 2,0 2,1c0,1 0,2 0,3c0,1 0.70709,2.29289 0,3c-0.70709,0.70711 -1,1 -2,2c-1,1 -1.29291,1.29289 -2,2c-0.70709,0.70711 -1.69345,0.4588 -3,1c-0.92389,0.38269 -2.29291,0.70711 -3,0c-0.70709,-0.70711 -0.29291,-1.29289 -1,-2c-0.70709,-0.70711 -1,-2 -1,-3c0,-2 0,-3 0,-4c0,-2 -0.38269,-3.07613 0,-4c0.5412,-1.30656 1.29291,-1.29289 2,-2c0.70709,-0.70711 2,0 3,0c1,0 2,0 3,0c1,0 1,1 1,2c0,1 0,2 0,3c0,1 -1,1 -2,1c-1,0 -2,0 -3,0c-1,0 -2,0 -4,0c-1,0 -2.29291,0.70711 -3,0c-0.70709,-0.70711 0.29291,-1.29289 1,-2c0.70709,-0.70711 1,-1 2,-1c1,0 2,-1 4,-1c2,0 3,0 5,0c1,0 0.70709,0.29289 0,1c-0.70709,0.70711 -0.61731,2.07613 -1,3c-0.5412,1.30656 -1.29291,1.29289 -2,2c-0.70709,0.70711 -2.07611,0.38269 -3,0c-1.30655,-0.5412 -1,-2 -2,-2l0,-1l0,-1l1,0" id="svg_18" stroke="#000" fill="none"/>
  <path d="m512,217c-1,0 -2.29291,0.70711 -3,0c-0.70709,-0.70711 0,-2 0,-3c0,-1 0.07611,-1.61731 1,-2c1.30655,-0.5412 2.02673,-1.77025 3,-2c2.17627,-0.51375 3,-2 4,-2c1,0 3,-1 4,-1c1,0 3,0 4,0c2,0 2.61731,0.07613 3,1c0.5412,1.30656 1,2 1,3c0,2 0.76538,4.15224 0,6c-0.5412,1.30656 -1.23462,3.15224 -2,5c-1.0824,2.61313 -2.69342,4.4588 -4,5c-1.84778,0.76537 -3,1 -4,1c-1,0 -2,0 -3,0c-1,0 -1.29291,-0.29289 -2,-1c-0.70709,-0.70711 -1.29291,-1.29289 -2,-2c-0.70709,-0.70711 -1.4588,-0.69344 -2,-2c-0.38269,-0.92387 0,-2 0,-3c0,-1 0,-2 1,-3c1,-1 1.69342,-2.4588 3,-3c0.92389,-0.38269 2,-1 3,-1c2,0 3,0 6,0c1,0 2.69342,0.4588 4,1c1.84778,0.76537 3.29291,0.29289 4,1c0.70709,0.70711 0.70709,2.29289 0,3c-0.70709,0.70711 -2.18604,-0.30745 -4,1c-1.14728,0.8269 -3.82373,1.48625 -6,2c-1.94647,0.4595 -3.82373,0.48625 -6,1c-0.97327,0.22975 -2.29291,0.70711 -3,0c-0.70709,-0.70711 -1,-1 -1,-2c0,-1 0,-2 0,-3c0,-2 1.48627,-2.82375 2,-5c0.22974,-0.97325 1.07611,-2.61731 2,-3c1.30658,-0.5412 2,-1 3,-1c1,0 2.29291,-0.70711 3,0c0.70709,0.70711 1.29291,0.29289 2,1c0.70709,0.70711 0,2 0,3c0,1 0.70709,2.29289 0,3c-0.70709,0.70711 -2,2 -3,3c-1,1 -1.29291,1.29289 -2,2c-0.70709,0.70711 -2.29291,0.70711 -3,0c-0.70709,-0.70711 -1.29291,-1.29289 -2,-2c-0.70709,-0.70711 -2,-1 -1,-1c1,0 2,0 3,0c1,0 1.29291,0.29289 2,1c0.70709,0.70711 1.70709,1.29289 1,2c-0.70709,0.70711 -2,0 -3,0c-1,0 -2.07611,0.38269 -3,0c-1.30655,-0.5412 -1.61731,-1.07613 -2,-2c-0.5412,-1.30656 -1.70709,-2.29289 -1,-3c0.70709,-0.70711 1.29291,-0.29289 2,-1c0.70709,-0.70711 1,-1 2,-1c1,0 2.29291,-0.70711 3,0c0.70709,0.70711 1.02673,0.77025 2,1c2.17627,0.51375 3,1 3,2c0,1 -1,1 -2,1c-1,0 -3,0 -4,0c-2,0 -3,0 -4,0c-1,0 -0.70709,-0.29289 0,-1c0.70709,-0.70711 1,-1 2,-1c1,0 2,0 3,0c1,0 2.29291,-0.70711 3,0c0.70709,0.70711 1,1 0,1c-1,0 -2,0 -3,0l0,-1l0,-1" id="svg_19" stroke="#000" fill="none"/>
  <path d="m389,397c0,-1 -0.70709,-2.29291 0,-3c0.70709,-0.70709 1,-1 2,-2c1,-1 3,-2 4,-3c2,-2 3.186,-2.69254 5,-4c1.14728,-0.8269 3,-2 5,-4c1,-1 1.29291,-2.29291 2,-3c0.70709,-0.70709 2.07611,0.38269 3,0c1.30655,-0.5412 2.82376,-1.48627 5,-2c1.9465,-0.4595 4.0535,-0.5405 6,-1c2.17624,-0.51373 3.07611,-0.61731 4,-1c1.30655,-0.5412 2,-1 3,-1c3,0 4.87857,-1.49347 8,-2c2.96127,-0.48056 4.87857,-1.49347 8,-2c0.98709,-0.16019 3,-1 4,-1c1,0 1,-1 2,-1c1,0 2,0 3,0c1,0 2,0 3,0c1,0 3,0 4,0c2,0 4.0535,-0.4595 6,0c2.17624,0.51373 4.82376,1.48627 7,2c1.9465,0.4595 3.69345,0.4588 5,1c0.92389,0.38269 2.29291,-0.70709 3,0c0.70709,0.70709 1.29291,0.29291 2,1c0.70709,0.70709 1.29291,0.29291 2,1c0.70709,0.70709 1.29291,0.29291 2,1c0.70709,0.70709 0.29291,1.29291 1,2c0.70709,0.70709 1.29291,0.29291 2,1c0.70709,0.70709 0.29291,1.29291 1,2c0.70709,0.70709 1,1 2,2c1,1 1.77023,3.02676 2,4c0.51373,2.17624 1.69254,3.186 3,5c0.8269,1.14728 1.4588,2.69345 2,4c0.38269,0.92389 0.29291,2.29291 1,3c0.70709,0.70709 1.4588,0.69345 2,2c0.38269,0.92389 1,2 1,3c0,1 1,2 1,3c0,1 0.4588,1.69345 1,3c0.38269,0.92389 0,3 0,4c0,1 0,2 0,3c0,1 0,2 0,3c0,1 0,2 0,3c0,2 -0.23462,3.15225 -1,5c-0.5412,1.30655 -2.4588,2.69345 -3,4c-0.38269,0.92389 -1,2 -2,3c-1,1 -1.07611,1.61731 -2,2c-1.30655,0.5412 -2,1 -3,2c-1,1 -3,1 -5,2c-2,1 -4,2 -6,3c-2,1 -3.69345,1.4588 -5,2c-1.84775,0.76538 -3.07611,0.61731 -4,1c-1.30655,0.5412 -2.0535,0.5405 -4,1c-2.17624,0.51373 -3.82376,1.48627 -6,2c-1.9465,0.4595 -5.02582,0.67963 -7,1c-3.12143,0.50653 -6.02582,1.67963 -8,2c-3.12143,0.50653 -5,1 -7,1c-2,0 -4,1 -6,1c-2,0 -3.82376,0.48627 -6,1c-1.9465,0.4595 -4,0 -6,0c-2,0 -5,1 -6,1c-3,0 -4.69345,0.4588 -6,1c-1.84775,0.76538 -3,0 -5,0c-1,0 -2,0 -3,0c-1,0 -2,0 -3,0c-1,0 -1.69345,-0.4588 -3,-1c-0.92389,-0.38269 -2,0 -3,0c-1,0 -1,-1 -2,-1c-1,0 -2.29291,-0.29291 -3,-1c-0.70709,-0.70709 -1.07611,-0.61731 -2,-1c-1.30655,-0.5412 -2.4588,-0.69345 -3,-2c-0.38269,-0.92389 -1.29291,-0.29291 -2,-1c-0.70709,-0.70709 -0.29291,-1.29291 -1,-2c-0.70709,-0.70709 -1.29291,-1.29291 -2,-2c-0.70709,-0.70709 -1,-1 -2,-2c-1,-1 -1.23462,-2.15225 -2,-4c-0.5412,-1.30655 -1.4588,-1.69345 -2,-3c-0.38269,-0.92389 -1,-2 -1,-3c0,-1 -0.4588,-1.69345 -1,-3c-0.38269,-0.92389 0,-2 0,-3c0,-2 0.4588,-3.69345 1,-5c0.76538,-1.84775 1.1731,-3.85272 2,-5c1.30746,-1.814 1.77023,-3.02676 2,-4c0.51373,-2.17624 1.85272,-3.1731 3,-4c1.814,-1.30746 3,-2 5,-3c2,-1 3.59399,-2.513 6,-4c2.69,-1.66251 6,-3 8,-5l2,-1l2,-2l1,-1" id="svg_20" stroke="#000" fill="none"/>
  <path d="m538,429c1,0 2,-1 3,-1c1,0 1.82373,-0.48627 4,-1c2.91974,-0.68927 6.07843,0.21014 9,-1c2.06586,-0.85571 5.87854,-1.49347 9,-2c2.96124,-0.48056 6.87854,-1.49347 10,-2c2.96124,-0.48056 6.133,-0.56952 10,-2c2.09717,-0.77579 4.82373,-2.48627 7,-3c2.91974,-0.68927 5.90283,-1.22421 8,-2c3.867,-1.43048 6,-1 9,-2c3,-1 5,-1 8,-2c3,-1 5.93414,-2.14429 8,-3c2.92157,-1.21014 5,-2 7,-3c2,-1 4,-3 6,-4c2,-1 3.69342,-2.4588 5,-3c0.92389,-0.38269 2.18604,-0.69254 4,-2c1.14728,-0.8269 2.07611,-1.61731 3,-2c1.30658,-0.5412 2,-2 3,-3c2,-2 3,-3 4,-4c1,-1 2.41888,-2.41885 4,-4c1.58112,-1.58115 2.1731,-2.85272 3,-4c1.30743,-1.814 2,-3 4,-5c1,-1 1.69257,-3.186 3,-5c1.65381,-2.29453 2.69257,-4.186 4,-6c1.65381,-2.29453 2.41888,-4.41885 4,-6c1.58112,-1.58115 3,-3 4,-5c1,-2 1.69257,-3.186 3,-5c0.8269,-1.14728 2.4588,-2.69345 3,-4c0.76538,-1.84775 0.69257,-3.186 2,-5c0.8269,-1.14728 1.48627,-1.82376 2,-4c0.22974,-0.97324 1,-2 1,-3c0,-1 1,-2 1,-3c0,-1 1,-2 1,-3c0,-1 0.4588,-1.69345 1,-3c0.76538,-1.84775 -0.76538,-3.15225 0,-5c0.5412,-1.30655 1,-3 1,-5c0,-2 1,-3 1,-5c0,-1 0.4588,-1.69345 1,-3c0.38269,-0.92389 0,-2 0,-3c0,-1 0,-2 0,-3l0,-1l0,-1" id="svg_21" stroke="#000" fill="none"/>
  <path d="m666,215c-1,0 -2,0 -3,0c-1,0 -2,0 -3,0c-1,0 -2.29291,-0.70711 -3,0c-0.70709,0.70711 -0.69342,1.4588 -2,2c-0.92389,0.38269 -0.69342,1.4588 -2,2c-0.92389,0.38269 -1.61731,1.07613 -2,2c-0.5412,1.30656 -2.4588,1.69344 -3,3c-0.38269,0.92387 -1,2 -2,3c-1,1 -1.48627,2.82375 -2,5c-0.22974,0.97325 -0.23462,2.15224 -1,4c-0.5412,1.30656 -1.48627,1.82375 -2,4c-0.22974,0.97325 -1,2 -1,3c0,1 -1,2 -1,3c0,1 0,2 0,3c0,1 -0.70709,2.29289 0,3c0.70709,0.70711 0.29291,1.29289 1,2c0.70709,0.70711 1.29291,0.29289 2,1c0.70709,0.70711 1.29291,0.29289 2,1c0.70709,0.70709 1,1 2,1c1,0 2,0 3,0c1,0 2,0 3,0c1,0 2.58582,1.41422 4,0c0.70709,-0.70709 1.29291,-0.29291 2,-1c0.70709,-0.70711 0.29291,-1.29289 1,-2c0.70709,-0.70711 0.29291,-1.29289 1,-2c0.70709,-0.70711 1,-2 1,-3c0,-1 0,-2 0,-3c0,-1 -0.29291,-1.29289 -1,-2c-0.70709,-0.70711 -2,0 -3,0c-1,0 -2.70709,-0.29289 -2,-1c0.70709,-0.70711 2,0 3,0c1,0 2,0 3,0c1,0 2,0 3,0l1,0" id="svg_23" stroke="#000" fill="none"/>
  <path d="m685,238c0,-1 -1,-1 -2,-1c-1,0 -2,0 -3,0c-1,0 -1.29291,0.29289 -2,1c-0.70709,0.70711 -1.29291,0.29289 -2,1c-0.70709,0.70711 -1,1 -1,2c0,1 -1,1 -1,2c0,1 -1,2 -1,3c0,1 0,2 0,3c0,1 0,2 0,3c0,1 0.29291,1.29289 1,2c0.70709,0.70711 1.29291,0.29289 2,1c0.70709,0.70711 2,0 3,0c1,0 2.07611,0.38269 3,0c1.30658,-0.5412 1.61731,-2.07613 2,-3c0.5412,-1.30656 2.4588,-1.69344 3,-3c0.38269,-0.92387 -0.41418,-2.58578 1,-4c0.70709,-0.70711 1,-2 1,-3c0,-1 0,-2 0,-3c0,-1 0,-2 0,-1c0,1 -0.4588,1.69344 -1,3c-0.38269,0.92387 0,2 0,3c0,1 0,2 0,3c0,1 0,2 0,3c0,1 0,2 1,2l1,0l1,0" id="svg_24" stroke="#000" fill="none"/>
  <path d="m699,240c0,1 0,2 0,3c0,1 1,1 1,2c0,1 0,2 0,3c0,2 0,3 0,4c0,1 0,2 0,3c0,1 0,2 0,1c0,-1 -0.22974,-2.02675 0,-3c0.51373,-2.17625 1.48627,-2.82375 2,-5c0.22974,-0.97325 1,-3 1,-4c0,-1 1,-1 1,-2c0,-1 0.29291,-1.29289 1,-2c0.70709,-0.70711 1.29291,-0.29289 2,-1c0.70709,-0.70711 2,0 2,1c0,1 1,1 1,2c0,1 0,2 0,3c0,1 1,3 1,4c0,1 0.70709,2.29289 0,3c-0.70709,0.70711 -1,1 -1,0c0,-1 -0.70709,-2.29289 0,-3c0.70709,-0.70711 0.61731,-1.07613 1,-2c0.5412,-1.30656 1.4588,-1.69344 2,-3c0.38269,-0.92387 1.29291,-1.29289 2,-2c0.70709,-0.70711 1,-2 2,-2c1,0 2,0 2,1c0,1 0.29291,1.29289 1,2c0.70709,0.70711 0,2 0,3c0,1 1,2 1,3c0,1 0,2 0,3c0,1 0,2 0,3c0,1 0,2 0,3l0,1l0,-1l1,-1" id="svg_25" stroke="#000" fill="none"/>
  <path d="m733,244c0,1 0.29291,1.29289 1,2c0.70709,0.70711 2,0 3,0c1,0 2,-1 3,-1c1,0 1.29291,-0.29289 2,-1c0.70709,-0.70711 0.29291,-1.29289 1,-2c0.70709,-0.70711 1,-1 1,-2c0,-1 0,-2 -1,-2c-1,0 -1,-1 -2,-1c-1,0 -2,0 -3,0c-1,0 -1.29291,0.29289 -2,1c-0.70709,0.70711 -2,0 -2,1c0,1 -1,1 -1,2c0,1 -1,1 -1,2c0,1 -0.29291,1.29289 -1,2c-1.41418,1.41422 -0.4588,2.69344 -1,4c-0.76538,1.84776 0,3 0,4c0,1 0,2 0,3c0,1 0.29291,1.29291 1,2c0.70709,0.70709 0.29291,1.29291 1,2c0.70709,0.70709 1,1 2,1c1,0 2,0 3,0c1,0 2,0 3,0c1,0 2,0 3,0c1,0 2,0 3,0c1,0 2,0 3,-1l1,-1l1,-1l1,-2" id="svg_26" stroke="#000" fill="none"/>
  <path d="m771,237c0,-1 -1,-1 -2,-1c-1,0 -1,-1 -2,-1c-1,0 -2,0 -3,0c-1,0 -1.29291,0.29289 -2,1c-0.70709,0.70711 -0.29291,1.29289 -1,2c-0.70709,0.70711 -1.29291,1.29289 -2,2c-0.70709,0.70711 -1,1 -1,2c0,1 -0.70709,2.29289 0,3c0.70709,0.70711 0.29291,1.29289 1,2c0.70709,0.70711 1.29291,0.29289 2,1c0.70709,0.70711 0.29291,1.29289 1,2c0.70709,0.70711 1.29291,0.29289 2,1c0.70709,0.70711 2.29291,-0.70711 3,0c0.70709,0.70711 1.29291,0.29289 2,1c0.70709,0.70711 1,1 1,2c0,1 1,1 1,2c0,1 0,2 0,3c0,1 0,2 0,3c0,1 0.70709,2.29291 0,3c-0.70709,0.70709 -2,0 -3,0c-1,0 -2,0 -2,-1l-1,0" id="svg_27" stroke="#000" fill="none"/>
  <path d="m627,183c0,1 0,2 0,3c0,1 0,2 0,3c0,2 0,3 0,5c0,1 0,3 0,4c0,1 -0.48627,1.82375 -1,4c-0.22974,0.97325 0,2 0,3c0,1 0,2 0,3c0,2 0,3 0,4c0,2 0,3 0,4c0,1 0,3 0,4c0,1 0,2 0,3c0,1 0,2 0,3c0,1 0,2 0,3c0,1 0,2 0,3c0,1 1,1 1,2c0,1 0,2 0,3c0,1 0,2 0,3c0,1 0,2 0,3c0,1 0,2 0,3c0,1 0,2 0,3c0,1 -0.70709,2.29289 0,3c0.70709,0.70711 1,1 1,2c0,1 0,2 0,3c0,1 0,2 0,3c0,1 0,2 0,3c0,1 0,2 0,3c0,1 0,2 0,3c0,1 0,2 0,3c0,1 0,2 0,3c0,1 0,2 0,3c0,1 0,2 0,3c0,1 0,2 0,3c0,1 0,2 0,3c0,1 0,2 0,3c0,1 1,1 2,1c1,0 1.69342,0.4588 3,1c0.92389,0.38269 2,0 3,0c1,0 2,0 3,0c1,0 2,0 3,0c1,0 1.29291,-0.29291 2,-1c0.70709,-0.70709 2,0 3,0c1,0 1.29291,-0.29291 2,-1c0.70709,-0.70709 2,0 3,0c1,0 2,0 3,0c1,0 1,-1 2,-1c1,0 1.82373,-0.48627 4,-1c0.97327,-0.22977 3,0 4,0c2,0 4,-1 5,-1c2,0 3,0 4,0c1,0 2.07611,0.38269 3,0c1.30658,-0.5412 2,-1 4,-1c2,0 4.02673,0.22977 5,0c2.17627,-0.51373 4,-1 6,-1c1,0 2,0 3,0c1,0 2,0 3,0c1,0 2,0 3,0c2,0 3,0 5,0c2,0 4,-1 7,-1c1,0 3,0 5,0c2,0 3,0 4,0c1,0 2,0 3,0c1,0 2,0 3,0c1,0 2,0 3,0c1,0 2,0 5,0c2,0 5,0 7,0c2,0 4,0 6,0c1,0 2.29291,0.70709 3,0c0.70709,-0.70709 1,-1 2,-1c1,0 2,0 3,0c2,0 3,0 4,0c2,0 3,0 4,0c1,0 2,0 3,0c1,0 2,0 3,0c2,0 3,0 4,0c1,0 1,-1 2,-1c1,0 1,-1 2,-1c1,0 2.29291,-0.29291 3,-1c0.70709,-0.70709 1.29291,-0.29291 2,-1c0.70709,-0.70709 1.29291,-0.29291 2,-1c0.70709,-0.70709 0,-2 0,-3c0,-1 0,-2 0,-3c0,-1 0,-2 0,-3c0,-1 0,-2 0,-3c0,-1 0,-2 0,-3c0,-1 -0.29291,-1.29291 -1,-2c-0.70709,-0.70709 0,-2 0,-3c0,-1 -0.29291,-1.29291 -1,-2c-0.70709,-0.70711 0,-2 0,-3c0,-1 -1,-1 -1,-2c0,-1 0,-2 0,-3c0,-1 -1,-1 -1,-2c0,-1 0,-2 0,-3c0,-1 -1,-1 -1,-2c0,-1 0,-2 0,-3c0,-1 -0.29291,-1.29289 -1,-2c-0.70709,-0.70711 0,-2 0,-3c0,-1 -0.29291,-1.29289 -1,-2c-0.70709,-0.70711 0,-2 0,-3c0,-1 0,-2 0,-3c0,-1 -1,-1 -1,-2c0,-1 0,-2 0,-3c0,-1 0,-2 0,-3c0,-1 -0.29291,-1.29289 -1,-2c-0.70709,-0.70711 0,-2 0,-3c0,-1 0,-2 0,-3c0,-1 -0.29291,-1.29289 -1,-2c-0.70709,-0.70711 0,-2 0,-3c0,-1 -0.29291,-1.29289 -1,-2c-0.70709,-0.70711 0,-2 0,-3c0,-1 -0.07611,-1.61731 -1,-2c-1.30658,-0.5412 -2,-1 -3,-1c-1,0 -1,-1 -2,-1c-1,0 -2,0 -3,0c-1,0 -2,-1 -3,-1c-1,0 -3,0 -5,0c-2,0 -4,-1 -6,-1c-3,0 -6,0 -9,0c-3,0 -5,0 -8,0c-2,0 -4,0 -6,0c-1,0 -3,0 -4,0c-1,0 -2,0 -3,0c-1,0 -2,0 -3,0c-2,0 -3,0 -6,0c-2,0 -5,1 -8,1c-2,0 -5,0 -8,0c-2,0 -3,1 -5,1c-1,0 -2,0 -3,0c-1,0 -2,0 -3,0c-1,0 -2,0 -4,0c-2,0 -4,0 -6,0c-2,0 -4,0 -6,0c-1,0 -3,0 -4,0c-1,0 -2,0 -3,0c-1,0 -3,0 -5,0c-2,0 -5,0 -7,0c-2,0 -5,0 -6,0c-2,0 -3,0 -5,0c-1,0 -2,0 -3,0c-1,0 -2,0 -3,0c-1,0 -2,0 -3,0c-1,0 -2.29291,0.70711 -3,0c-0.70709,-0.70711 -1,-1 -2,-1l-1,0l-1,0l-1,0" id="svg_28" stroke="#000" fill="none"/>
 </g>
</svg>