<svg width="800" height="600" xmlns="http://www.w3.org/2000/svg">

 <g>
  <title>Layer 1</title>
  <path d="m337,183c0,-1 -1,-1 -2,-1c-1,0 -1,-1 -2,-1c-1,0 -2,0 -3,0c-1,0 -2.07611,0.38269 -3,0c-1.30655,-0.5412 -2,-1 -3,-1c-2,0 -3,0 -5,0c-1,0 -2,1 -3,1c-2,0 -2.87857,0.49345 -6,1c-0.98709,0.16019 -3,1 -5,1c-1,0 -3.15225,0.23463 -5,1c-1.30655,0.5412 -3.02676,0.77025 -4,1c-2.17624,0.51375 -3.15225,1.23463 -5,2c-1.30655,0.5412 -2.85272,1.1731 -4,2c-1.814,1.30745 -4,2 -6,3c-2,1 -3.186,1.69255 -5,3c-1.14728,0.8269 -1.69345,2.4588 -3,3c-0.92389,0.38269 -2,1 -3,2c-1,1 -3,2 -4,3c-1,1 -2.1731,1.85274 -3,3c-1.30746,1.814 -3,3 -4,4c-1,1 -1,2 -2,3c-1,1 -2.1731,1.85274 -3,3c-1.30745,1.814 -1,3 -2,4c-1,1 -0.69344,2.4588 -2,3c-0.92387,0.38269 -0.61731,1.07613 -1,2c-0.5412,1.30656 -1.4588,1.69344 -2,3c-0.76537,1.84776 -0.4588,2.69344 -1,4c-0.38269,0.92387 0.38269,3.07613 0,4c-0.5412,1.30656 -1,3 -1,4c0,1 0,2 0,4c0,1 0,2 0,3c0,1 0,2 0,4c0,1 0,2 0,3c0,1 0.4588,1.69344 1,3c0.38269,0.92389 0.4588,1.69345 1,3c0.76537,1.84775 0.4588,2.69345 1,4c0.38269,0.92389 1,2 1,3c0,1 0.61731,1.07611 1,2c0.5412,1.30655 1.4588,1.69345 2,3c0.38269,0.92389 1,1 1,2c0,1 1.4588,1.69345 2,3c0.38269,0.92389 0.29289,1.29291 1,2c0.70709,0.70709 2,1 3,2c1,1 1.85272,2.1731 3,3c1.814,1.30746 3,2 4,3c1,1 2.186,1.69254 4,3c1.14728,0.8269 2.07611,1.61731 3,2c1.30655,0.5412 2.15225,1.23462 4,2c1.30655,0.5412 2.15225,1.23462 4,2c1.30655,0.5412 2.15225,1.23462 4,2c1.30655,0.5412 2.69345,1.4588 4,2c0.92389,0.38269 2,1 3,1c2,0 3.07611,0.61731 4,1c1.30655,0.5412 2.69345,1.4588 4,2c0.92389,0.38269 3,1 4,1c2,0 3.07611,-0.38269 4,0c1.30655,0.5412 2,1 3,1c1,0 2.82376,0.48627 5,1c0.97324,0.22977 3.15225,-0.76538 5,0c1.30655,0.5412 2,1 3,1c1,0 2,0 3,0c1,0 2,0 3,0c1,0 2,0 4,0c2,0 3,-1 5,-1c2,0 2.82376,-0.48627 5,-1c0.97324,-0.22977 2.07611,0.38269 3,0c1.30655,-0.5412 2,-1 3,-1c1,0 1,-1 2,-1c1,0 1,-1 2,-1c1,0 1,-1 2,-1c1,0 1.07611,-0.61731 2,-1c1.30655,-0.5412 2.07611,-1.61731 3,-2c1.30655,-0.5412 1.29291,-1.29291 2,-2c0.70709,-0.70709 1.29291,-0.29291 2,-1c0.70709,-0.70709 1.07611,-0.61731 2,-1c1.30655,-0.5412 2.29291,-1.29291 3,-2c0.70709,-0.70709 0.69254,-1.186 2,-3c0.8269,-1.14728 2,-1 3,-2c1,-1 2,-2 3,-3c1,-1 0.85272,-2.1731 2,-3c1.814,-1.30746 2,-2 3,-3c1,-1 1.61731,-2.07611 2,-3c0.5412,-1.30655 1,-2 1,-3c0,-1 0.29291,-1.29291 1,-2c1.41422,-1.41422 -0.38269,-3.07611 0,-4c0.5412,-1.30655 1.29291,-1.29291 2,-2c0.70709,-0.70709 0,-2 0,-3c0,-1 1,-2 1,-3c0,-1 0,-2 0,-3c0,-1 0,-2 0,-3c0,-1 0,-2 0,-3c0,-2 0,-3 0,-4c0,-1 0.38269,-3.07613 0,-4c-0.5412,-1.30656 -1.48627,-1.82375 -2,-4c-0.22977,-0.97325 -1,-3 -1,-4c0,-1 -0.77023,-2.02675 -1,-3c-0.51373,-2.17625 -1.4588,-2.69344 -2,-4c-0.38269,-0.92387 -0.4588,-1.69344 -1,-3c-0.38269,-0.92387 -1,-1 -2,-2c-1,-1 -1,-2 -2,-3c-1,-1 -1.61731,-2.07613 -2,-3c-0.5412,-1.30656 -2.4588,-1.69344 -3,-3c-0.38269,-0.92387 -0.69254,-1.186 -2,-3c-0.8269,-1.14726 -2.4588,-1.69344 -3,-3c-0.38269,-0.92387 -0.69345,-2.4588 -2,-3c-1.84775,-0.76537 -3,-1 -4,-2c-1,-1 -2.07611,-1.61731 -3,-2c-1.30655,-0.5412 -2.29291,-1.29289 -3,-2c-0.70709,-0.70711 -1.07611,-0.61731 -2,-1c-1.30655,-0.5412 -2.29291,-1.29289 -3,-2c-0.70709,-0.70711 -0.69345,-1.4588 -2,-2c-0.92389,-0.38269 -1.69345,-0.4588 -3,-1c-0.92389,-0.38269 -2.29291,-0.29289 -3,-1c-0.70709,-0.70711 -1.69345,-1.4588 -3,-2c-0.92389,-0.38269 -2.02676,-0.77025 -3,-1c-2.17624,-0.51375 -3,-1 -4,-1c-1,0 -1,-1 -2,-1c-1,0 -2,0 -3,0c-1,0 -1.29291,-0.29289 -2,-1c-0.70709,-0.70711 -2,0 -3,0l-1,0l-1,0l-1,0" id="svg_1" stroke="#000" fill="none"/>
  <path d="m273,235c0,-1 0.4588,-1.69344 1,-3c0.38269,-0.92387 0.29291,-1.29289 1,-2c0.70709,-0.70711 1,-2 1,-3c0,-1 0.29291,-1.29289 1,-2c0.70709,-0.70711 1.4588,-0.69344 2,-2c0.38269,-0.92387 0.29291,-2.29289 1,-3c0.70709,-0.70711 1.29291,-0.29289 2,-1c0.70709,-0.70711 0.29291,-1.29289 1,-2c0.70709,-0.70711 1.29291,-0.29289 2,-1c0.70709,-0.70711 0.29291,-1.29289 1,-2c0.70709,-0.70711 2.07611,0.38269 3,0c1.30655,-0.5412 2,-1 3,-1c1,0 1,-1 2,-1c1,0 2.29291,0.70711 3,0c0.70709,-0.70711 1,-1 2,-1c1,0 2,0 3,0c1,0 1.29291,-0.29289 2,-1c0.70709,-0.70711 2,0 3,0c1,0 2,0 3,0c1,0 1,1 2,1c1,0 2,0 3,0c1,0 1,1 2,1c1,0 1,1 2,1c1,0 1.29291,0.29289 2,1c0.70709,0.70711 0.29291,1.29289 1,2c0.70709,0.70711 0.29291,1.29289 1,2c0.70709,0.70711 0.29291,1.29289 1,2c0.70709,0.70711 1.29291,0.29289 2,1c0.70709,0.70711 0.29291,1.29289 1,2c0.70709,0.70711 -0.70709,2.29289 0,3c0.70709,0.70711 1,1 1,2c0,1 0,2 0,3c0,1 0,2 0,3c0,1 0,2 0,3c0,1 0,2 0,3c0,1 0,2 0,3c0,1 -1,1 -1,2c0,1 -1,1 -1,2c0,1 -1,1 -1,2c0,1 -0.29291,1.29289 -1,2c-0.70709,0.70711 -2.4588,0.69344 -3,2c-0.38269,0.92387 -0.29291,1.29289 -1,2c-0.70709,0.70711 -1,1 -2,1c-1,0 -1.29291,0.29291 -2,1c-0.70709,0.70709 -1.29291,0.29291 -2,1c-0.70709,0.70709 -2.07611,-0.38269 -3,0c-1.30655,0.5412 -2.07611,0.61731 -3,1c-1.30655,0.5412 -2,1 -3,1c-1,0 -1.29291,0.29291 -2,1c-0.70709,0.70709 -2,0 -3,0c-1,0 -2,0 -3,0c-1,0 -2,0 -3,0c-1,0 -2,0 -3,0c-1,0 -2,0 -3,0c-1,0 -2,0 -3,0c-1,0 -2,0 -3,0c-1,0 -1.29291,-0.29291 -2,-1c-0.70709,-0.70709 -1.29291,-0.29291 -2,-1c-0.70709,-0.70709 -1.29291,-0.29291 -2,-1c-0.70709,-0.70709 -1.29291,-0.29291 -2,-1c-0.70709,-0.70709 -0.29291,-1.29289 -1,-2c-0.70709,-0.70711 -0.29291,-1.29289 -1,-2c-0.70709,-0.70711 -1,-1 -1,-2c0,-1 -1,-1 -1,-2c0,-1 0,-2 0,-3c0,-1 -1,-2 -1,-3l0,-1l0,-1l1,-1" id="svg_2" stroke="#000" fill="none"/>
  <path d="m317,214c0,-1 0,-2 0,-3c0,-1 -0.70709,-2.29289 0,-3c0.70709,-0.70711 1.29291,-0.29289 2,-1c0.70709,-0.70711 0.29291,-1.29289 1,-2c0.70709,-0.70711 1.29291,-0.29289 2,-1c0.70709,-0.70711 1.29291,-0.29289 2,-1c0.70709,-0.70711 0.29291,-1.29289 1,-2c0.70709,-0.70711 1.29291,-0.29289 2,-1c0.70709,-0.70711 1.69345,-0.4588 3,-1c0.92389,-0.38269 1.29291,-0.29289 2,-1c0.70709,-0.70711 2,0 3,0c1,0 2,0 3,0c1,0 2,0 3,0c1,0 2,0 3,0c1,0 2,0 3,0c1,0 2.29291,-0.70711 3,0c0.70709,0.70711 1.29291,0.29289 2,1c0.70709,0.70711 0.29291,1.29289 1,2c0.70709,0.70711 1.29291,0.29289 2,1c0.70709,0.70711 0.29291,1.29289 1,2c0.70709,0.70711 0.29291,1.29289 1,2c0.70709,0.70711 1,1 1,2c0,1 0.29291,1.29289 1,2c0.70709,0.70711 -0.70709,2.29289 0,3c0.70709,0.70711 1,1 1,2c0,1 1,1 1,2c0,1 1,1 1,2c0,1 0.29291,1.29289 1,2c0.70709,0.70711 0,2 0,3c0,1 1,1 1,2c0,1 0,2 0,3c0,1 1,2 1,3c0,1 0,2 0,3c0,1 0,2 0,3c0,1 0.70709,2.29289 0,3c-0.70709,0.70711 -0.29291,1.29289 -1,2c-0.70709,0.70711 -1.4588,0.69344 -2,2c-0.38269,0.92387 -1,1 -1,2c0,1 -0.61731,1.07613 -1,2c-0.5412,1.30656 -1.29291,1.29289 -2,2c-0.70709,0.70711 -0.29291,1.29289 -1,2c-0.70709,0.70711 -1.29291,0.29289 -2,1c-0.70709,0.70711 -1.29291,0.29289 -2,1c-0.70709,0.70711 -1.29291,0.29289 -2,1c-0.70709,0.70709 -1.29291,0.29291 -2,1c-0.70709,0.70709 -1,1 -2,1c-1,0 -1,1 -2,1c-1,0 -2,0 -3,0c-1,0 -2,0 -3,0c-1,0 -2,0 -3,0c-1,0 -2,0 -3,0c-1,0 -2.07611,0.38269 -3,0c-1.30655,-0.5412 -2.29291,-0.29291 -3,-1c-0.70709,-0.70709 -1.29291,-0.29291 -2,-1c-0.70709,-0.70709 -0.29291,-1.29289 -1,-2c-0.70709,-0.70711 -1,-1 -1,-2c0,-1 0,-2 -1,-3l0,-1l1,0" id="svg_3" stroke="#000" fill="none"/>
  <path d="m343,222c0,1 0.70709,2.29289 0,3c-0.70709,0.70711 -1.29291,0.29289 -2,1c-0.70709,0.70711 -2.29291,0.70711 -3,0c-0.70709,-0.70711 0,-2 0,-3c0,-1 1,-1 2,-1c1,0 1.70709,1.29289 1,2c-0.70709,0.70711 -0.29291,0.70711 -1,0c-0.70709,-0.70711 -1,-1 0,-1l0,-1l1,0" id="svg_4" stroke="#000" fill="none"/>
  <path d="m303,234c1,0 1.70709,1.29289 1,2c-0.70709,0.70711 -1,1 -2,1c-1,0 -2.29291,0.70711 -3,0c-0.70709,-0.70711 0,-2 0,-3c0,-1 0.29291,-1.29289 1,-2c0.70709,-0.70711 2.29291,0.70711 3,0c0.70709,-0.70711 1,-1 2,-1c1,0 1,1 1,2c0,1 -0.29291,1.29289 -1,2c-0.70709,0.70711 0,2 -1,2c-1,0 -2,0 -3,0c-1,0 -2,0 -2,-1c0,-1 -0.38269,-2.07613 0,-3c0.5412,-1.30656 2.29291,-0.29289 3,-1c0.70709,-0.70711 1,-1 2,-1c1,0 3,-1 2,-1c-1,0 -0.29291,1.29289 -1,2c-0.70709,0.70711 -0.29291,1.29289 -1,2c-0.70709,0.70711 -1.29291,0.29289 -2,1c-0.70709,0.70711 -2,0 -2,-1c0,-1 1,-1 2,-1c1,0 0.70709,0.29289 0,1c-0.70709,0.70711 -2,0 -2,-1l1,0" id="svg_5" stroke="#000" fill="none"/>
  <path d="m330,280c0,-1 -0.70709,-2.29291 0,-3c0.70709,-0.70709 1.29291,-0.29291 2,-1c0.70709,-0.70709 0.29291,-2.29291 1,-3c0.70709,-0.70709 2,-1 2,-2c0,-1 0.29291,-1.29291 1,-2c0.70709,-0.70709 1.29291,-0.29291 2,-1c0.70709,-0.70709 1.29291,-0.29291 2,-1c0.70709,-0.70709 0.29291,-1.29291 1,-2c0.70709,-0.70709 1.29291,-1.29291 2,-2c0.70709,-0.70709 1,-1 2,-1c1,0 1.29291,-0.29291 2,-1c0.70709,-0.70709 2.29291,0.70709 3,0c0.70709,-0.70709 1,-1 2,-1c1,0 2.29291,0.70709 3,0c0.70709,-0.70709 1,-1 2,-1c1,0 2,0 3,0c1,0 0.29291,1.29291 1,2c0.70709,0.70709 1.29291,0.29291 2,1c0.70709,0.70709 1,1 1,2c0,1 0.4588,1.69345 1,3c0.38269,0.92389 0,2 0,3c0,1 0,2 0,3c0,1 0,2 0,3c0,1 0,2 0,3c0,1 -0.29291,1.29291 -1,2c-0.70709,0.70709 -0.29291,1.29291 -1,2c-0.70709,0.70709 -0.29291,1.29291 -1,2c-0.70709,0.70709 -0.29291,1.29291 -1,2c-0.70709,0.70709 -0.29291,1.29291 -1,2c-0.70709,0.70709 -1,1 -2,1c-1,0 -1.29291,0.29291 -2,1c-0.70709,0.70709 -1.29291,0.29291 -2,1c-0.70709,0.70709 -0.29291,1.29291 -1,2c-0.70709,0.70709 -1.29291,0.29291 -2,1c-0.70709,0.70709 -2.29291,-0.70709 -3,0c-0.70709,0.70709 -1.29291,0.29291 -2,1c-0.70709,0.70709 -1,1 -2,1c-1,0 -1,1 -2,1c-1,0 -2,0 -3,0c-1,0 -2,0 -3,0c-1,0 -2.29291,-0.29291 -3,-1c-0.70709,-0.70709 -0.29291,-1.29291 -1,-2c-0.70709,-0.70709 -1.29291,-0.29291 -2,-1c-0.70709,-0.70709 -0.29291,-1.29291 -1,-2c-0.70709,-0.70709 -1.29291,-0.29291 -2,-1c-0.70709,-0.70709 0,-2 0,-3c0,-1 -1,-1 -1,-2c0,-1 0,-2 0,-3c0,-1 0.29291,-1.29291 1,-2c0.70709,-0.70709 0,-2 1,-2l0,-1l0,-1l1,0" id="svg_6" stroke="#000" fill="none"/>
  <path d="m376,286c1,0 2,0 3,0c1,0 2.29291,0.70709 3,0c0.70709,-0.70709 1,-1 2,-1c1,0 1.69345,-0.4588 3,-1c1.84775,-0.76538 4.02676,0.22977 5,0c2.17624,-0.51373 3.15225,-0.23462 5,-1c1.30655,-0.5412 2,-1 3,-1c1,0 2,-1 3,-1c1,0 2.07611,-0.61731 3,-1c1.30655,-0.5412 1.29291,-1.29291 2,-2c0.70709,-0.70709 1.29291,-0.29291 2,-1c0.70709,-0.70709 1.07611,-1.61731 2,-2c1.30655,-0.5412 2.4588,-1.69345 3,-3c0.38269,-0.92389 0.29291,-1.29291 1,-2c0.70709,-0.70709 1.61731,-1.07611 2,-2c0.5412,-1.30655 2.4588,-1.69345 3,-3c0.38269,-0.92389 0.61731,-1.07611 1,-2c0.5412,-1.30655 1,-2 2,-3c1,-1 1,-2 2,-3c1,-1 2.48627,-1.82375 3,-4c0.22977,-0.97325 1.29291,-2.29289 2,-3c0.70709,-0.70711 1.29291,-0.29289 2,-1c0.70709,-0.70711 0.29291,-1.29289 1,-2c0.70709,-0.70711 0.29291,-1.29289 1,-2c0.70709,-0.70711 0.29291,-1.29289 1,-2c0.70709,-0.70711 0.29291,-1.29289 1,-2c0.70709,-0.70711 0.29291,-1.29289 1,-2c0.70709,-0.70711 1,-1 1,-2c0,-1 0.29291,-1.29289 1,-2c0.70709,-0.70711 0.4588,-1.69344 1,-3c0.38269,-0.92387 0,-2 0,-3c0,-1 1,-1 1,-2c0,-1 0.29291,-1.29289 1,-2c0.70709,-0.70711 0,-2 0,-3c0,-1 0,-2 0,-3c0,-1 1,-1 1,-2c0,-1 0.70709,-2.29289 0,-3c-0.70709,-0.70711 -1,-1 -1,-2c0,-1 -1,-1 -1,-2l-1,0l0,-1" id="svg_7" stroke="#000" fill="none"/>
  <path d="m370,124c0,1 0,2 0,3c0,1 0,2 0,4c0,1 0,3 0,4c0,2 0,3 0,5c0,1 0,3 0,4c0,1 0,2 0,4c0,1 0,2 0,3c0,2 0,3 0,4c0,2 0,3 0,5c0,1 0,3 0,4c0,1 0,3 0,4c0,1 0.29291,1.29289 1,2c0.70709,0.70711 0,2 0,3c0,1 0,2 0,3c0,1 0,2 0,3c0,1 0,2 0,3c0,1 0,2 0,3c0,1 0,2 0,3c0,1 0,2 0,3c0,1 1,1 1,2c0,1 0,2 1,2c1,0 1,1 2,1c1,0 2,1 3,1c1,0 1,1 2,1c1,0 1.69345,0.4588 3,1c0.92389,0.38269 2,0 3,0c1,0 2,0 3,0c1,0 1.69345,0.4588 3,1c0.92389,0.38269 2.15225,-0.76537 4,0c1.30655,0.5412 3,1 4,1c1,0 3,0 4,0c1,0 2,0 4,0c1,0 2,0 3,0c1,0 2,0 3,0c1,0 2,0 4,0c2,0 4,0 6,0c1,0 3.15225,0.76537 5,0c1.30655,-0.5412 2,-1 4,-1c1,0 2,0 3,0c1,0 2.07611,0.38269 3,0c1.30655,-0.5412 3,-1 5,-1c1,0 3,0 4,0c1,0 3,0 4,0c1,0 2,0 4,0c1,0 2,0 4,0c1,0 3,-1 4,-1c1,0 2,0 3,0c2,0 3.07611,0.38269 4,0c1.30655,-0.5412 2,-1 3,-1c1,0 2,0 3,0c1,0 3,0 5,0c1,0 3,0 5,0c2,0 3.87857,-0.49345 7,-1c1.97418,-0.32036 4,0 7,0c2,0 4,0 6,0c2,0 3,0 5,0c1,0 2,0 4,0c2,0 3,0 4,0c2,0 4,0 5,0c2,0 4,0 5,0c1,0 1.29291,-0.29289 2,-1c0.70709,-0.70711 2,0 3,0c1,0 2.29291,0.70711 3,0c0.70709,-0.70711 0.29291,-1.29289 1,-2c0.70709,-0.70711 0,-2 1,-3c1,-1 0.77026,-2.02675 1,-3c0.51373,-2.17625 1,-3 1,-4c0,-1 0,-3 0,-4c0,-1 0,-3 0,-4c0,-2 0,-3 0,-4c0,-1 0,-3 0,-4c0,-1 0,-2 0,-3c0,-1 0,-2 0,-3c0,-1 -1,-2 -1,-3c0,-1 0,-2 0,-3c0,-1 0,-2 0,-3c0,-1 0,-2 0,-3c0,-1 0.70709,-2.29289 0,-3c-0.70709,-0.70711 -1,-1 -1,-2c0,-1 0,-3 0,-4c0,-1 0.38269,-2.07613 0,-3c-0.5412,-1.30656 -1,-2 -1,-4c0,-1 0,-2 0,-3c0,-1 -0.4588,-1.69344 -1,-3c-0.38269,-0.92388 0,-2 0,-3c0,-1 0,-2 0,-3c0,-1 0.70709,-2.29289 0,-3c-0.70709,-0.70711 -1,-1 -1,-2c0,-1 0,-2 0,-3c0,-1 -1,-1 -2,-1c-1,0 -1,-1 -2,-1c-2,0 -3.69342,-0.4588 -5,-1c-1.84778,-0.76537 -3,0 -5,0c-2,0 -4,0 -7,0c-3,0 -6,-1 -8,-1c-3,0 -6,0 -9,0c-2,0 -4,0 -6,0c-2,0 -4,0 -6,0c-1,0 -3,0 -5,0c-2,0 -4,0 -6,0c-2,0 -4,0 -5,0c-2,0 -3.82376,0.48626 -6,1c-1.9465,0.4595 -4.0535,-0.4595 -6,0c-2.17624,0.51374 -3,1 -5,1c-1,0 -3,0 -5,0c-2,0 -4,0 -6,0c-2,0 -5,0 -7,0c-3,0 -5.08026,-0.68926 -8,0c-2.17624,0.51374 -4.15225,0.23463 -6,1c-1.30655,0.5412 -3,1 -4,1c-1,0 -2,0 -3,0c-1,0 -2,0 -3,0c-2,0 -3,0 -5,0c-1,0 -2.15225,-0.76537 -4,0c-1.30655,0.5412 -2,1 -3,1c-1,0 -2,0 -3,0c-1,0 -2,0 -3,0c-1,0 -2,0 -3,0c-2,0 -4,0 -5,0c-2,0 -3,0 -4,0c-1,0 -2,0 -3,0c-1,0 -2,0 -3,0c-1,0 -2,0 -3,0c-1,0 -2,0 -3,0c-1,0 -1,1 -2,1c-1,0 -1,1 -1,2c0,1 -1,1 -1,2c0,1 0,2 0,3c0,1 0,2 0,3c0,1 0,2 0,3c0,1 0,2 0,3l0,1l0,1" id="svg_8" stroke="#000" fill="none"/>
  <path d="m409,132c0,-1 -1,-1 -2,-1c-1,0 -2,0 -3,0c-1,0 -2,0 -3,0c-1,0 -1.82376,0.48625 -4,1c-0.97324,0.22975 -2.02676,0.77025 -3,1c-2.17624,0.51375 -2.69345,2.4588 -4,3c-0.92389,0.38269 -0.69345,1.4588 -2,2c-0.92389,0.38269 -1.1731,0.85274 -2,2c-1.30746,1.814 -1.61731,3.07613 -2,4c-0.5412,1.30656 -1.4588,1.69344 -2,3c-0.76538,1.84776 -1,3 -1,4c0,2 -1,3 -1,5c0,1 -1,2 -1,4c0,1 0,3 0,5c0,1 0,2 0,3c0,1 0,2 0,3c0,1 0.29291,1.29289 1,2c0.70709,0.70711 0.29291,1.29289 1,2c0.70709,0.70711 1,2 2,3c1,1 1.69345,2.4588 3,3c0.92389,0.38269 2,0 3,0c1,0 2,0 3,0c1,0 2.29291,0.70711 3,0c0.70709,-0.70711 1,-1 2,-1c1,0 1,-1 2,-1c1,0 0.29291,-1.29289 1,-2c0.70709,-0.70711 1.61731,-1.07613 2,-2c0.5412,-1.30656 1.29291,-1.29289 2,-2c0.70709,-0.70711 -0.70709,-2.29289 0,-3c0.70709,-0.70711 1,-1 1,-2c0,-1 -0.29291,-1.29289 -1,-2c-0.70709,-0.70711 -1,-1 -1,-2c0,-1 -1.29291,-0.29289 -2,-1c-0.70709,-0.70711 -0.29291,-1.29289 -1,-2c-0.70709,-0.70711 -1.69345,-0.4588 -3,-1c-0.92389,-0.38269 -2.29291,0.70711 -3,0c-0.70709,-0.70711 1,-1 2,-1c1,0 2,0 3,0c1,0 2,0 3,0c1,0 2,0 3,0c1,0 1.85272,-0.1731 3,-1c1.814,-1.30745 2.82376,-1.48625 5,-2c0.97324,-0.22975 3,-1 4,-1l1,0" id="svg_9" stroke="#000" fill="none"/>
  <path transform="rotate(1.67249, 433, 166.343)" d="m439,155c-1,0 -1,-1 -2,-1c-1,0 -2,0 -3,0c-1,0 -2,0 -3,0c-1,0 -3,0 -4,0c-1,0 -2.29291,-0.70711 -3,0c-0.70709,0.70711 -1.29291,0.29289 -2,1c-0.70709,0.70711 -0.61731,1.07613 -1,2c-0.5412,1.30656 -1,2 -1,3c0,1 -1,2 -1,3c0,1 0,2 0,3c0,1 0,2 0,3c0,2 1,3 1,4c0,1 -0.70709,2.29289 0,3c0.70709,0.70711 1.29291,0.29289 2,1c0.70709,0.70711 1,1 2,1c1,0 2.07611,0.38269 3,0c1.30655,-0.5412 1.69345,-1.4588 3,-2c0.92389,-0.38269 1.07611,-0.61731 2,-1c1.30655,-0.5412 2,-2 3,-3c1,-1 1.29291,-2.29289 2,-3c0.70709,-0.70711 1.4588,-0.69344 2,-2c0.38269,-0.92387 1,-1 1,-2c0,-1 0,-2 0,-3c0,-1 0,-2 0,-3c0,-1 -1,-1 -1,0c0,1 0,2 0,3c0,1 0,2 0,3c0,1 0,2 0,3c0,1 0,2 0,3c0,1 0.77023,2.02675 1,3c0.51373,2.17625 1.29291,3.29289 2,4c0.70709,0.70711 1,1 2,1c1,0 2,0 3,0l0,-1" id="svg_10" stroke="#000" fill="none"/>
  <path d="m447,158c1,1 1,2 1,3c0,1 0,2 0,3c0,1 0,2 0,3c0,1 0,2 0,3c0,1 0,2 0,3c0,1 0,2 0,3c0,1 0,2 0,1c0,-1 0,-2 0,-3c0,-1 1,-2 1,-4c0,-1 1,-3 1,-4c0,-1 1,-3 1,-4c0,-1 1,-3 1,-4c0,-1 0.29291,-2.29289 1,-3c0.70709,-0.70711 2,0 3,0c1,0 0.29291,1.29289 1,2c0.70709,0.70711 1,1 1,2c0,1 0,2 0,3c0,1 0,2 0,3c0,1 0,2 0,3c0,1 0,2 0,3c0,1 -0.29291,1.29289 -1,2c-0.70709,0.70711 0,2 0,1c0,-1 0.29291,-1.29289 1,-2c0.70709,-0.70711 -0.41422,-2.58578 1,-4c0.70709,-0.70711 2,-1 2,-2c0,-1 0.29291,-1.29289 1,-2c0.70709,-0.70711 -0.70709,-2.29289 0,-3c0.70709,-0.70711 0.29291,-1.29289 1,-2c0.70709,-0.70711 1.29291,-0.29289 2,-1c0.70709,-0.70711 0.29291,-1.29289 1,-2c0.70709,-0.70711 2,0 2,1c0,1 0,2 0,3c0,1 0.29291,1.29289 1,2c0.70709,0.70711 0,2 0,3c0,1 0,2 0,3c0,1 0,2 0,3c0,1 0,2 0,3l0,1l-1,0l0,1" id="svg_11" stroke="#000" fill="none"/>
  <path d="m479,161c0,1 1,1 2,1c1,0 2,0 3,0c1,0 2.29291,0.70711 3,0c0.70709,-0.70711 1.29291,-0.29289 2,-1c0.70709,-0.70711 0.29291,-1.29289 1,-2c0.70709,-0.70711 1,-1 1,-2c0,-1 0,-2 0,-3c0,-1 0,-2 0,-3c0,-1 0,-2 0,-3c0,-1 -0.29291,-1.29289 -1,-2c-0.70709,-0.70711 -2,0 -3,0c-1,0 -2.29291,-0.70711 -3,0c-0.70709,0.70711 -0.29291,1.29289 -1,2c-0.70709,0.70711 -0.29291,1.29289 -1,2c-0.70709,0.70711 -0.29291,1.29289 -1,2c-0.70709,0.70711 -1,1 -1,2c0,1 0,2 0,3c0,1 -0.29291,1.29289 -1,2c-0.70709,0.70711 0,2 0,3c0,1 0,2 0,3c0,1 -0.70709,2.29289 0,3c0.70709,0.70711 0.29291,1.29289 1,2c0.70709,0.70711 0.29291,1.29289 1,2c0.70709,0.70711 1.29291,0.29289 2,1c0.70709,0.70711 1.29291,0.29289 2,1c0.70709,0.70711 1,1 2,1c1,0 2,0 3,0c1,0 1.29291,-0.29289 2,-1c0.70709,-0.70711 1,-1 2,-1l0,-1l1,0" id="svg_12" stroke="#000" fill="none"/>
  <path d="m512,150c0,-1 -1,-1 -2,-1c-1,0 -2,0 -3,0c-1,0 -2,0 -3,0c-1,0 -1.29291,0.29289 -2,1c-0.70709,0.70711 -1.29291,0.29289 -2,1c-0.70709,0.70711 0,2 0,3c0,1 -0.70709,2.29289 0,3c0.70709,0.70711 1.4588,0.69344 2,2c0.38269,0.92387 1.29291,0.29289 2,1c0.70709,0.70711 0.29291,1.29289 1,2c0.70709,0.70711 1,1 2,1c1,0 1,1 2,1c1,0 1,1 2,1c1,0 1.29291,0.29289 2,1c0.70709,0.70711 0.29291,1.29289 1,2c0.70709,0.70711 -0.70709,2.29289 0,3c0.70709,0.70711 1,1 1,2c0,1 0,2 0,3c0,1 -0.07611,1.61731 -1,2c-1.30658,0.5412 -1.29291,1.29289 -2,2c-0.70709,0.70711 -1.29291,0.29289 -2,1c-0.70709,0.70711 -2.29291,0.70711 -3,0c-0.70709,-0.70711 -1,-1 -1,-2l-1,0l0,-1l-1,0" id="svg_13" stroke="#000" fill="none"/>
 </g>
</svg>